<svg id="svg" version="1.1" xmlns="http://www.w3.org/2000/svg" xmlns:xlink="http://www.w3.org/1999/xlink" width="400" height="400" viewBox="0, 0, 400,400"><g id="svgg"><path id="path0" d="M71.059 98.401 C 65.252 101.300,64.248 108.653,69.026 113.294 C 71.329 115.531,72.033 115.600,92.400 115.600 C 104.777 115.600,111.436 115.749,112.639 116.052 C 115.099 116.671,117.829 119.349,118.480 121.782 L 118.966 123.600 190.234 123.600 L 261.503 123.600 262.896 119.500 C 263.662 117.245,264.964 113.300,265.788 110.734 L 267.287 106.067 266.599 103.997 C 265.757 101.461,263.935 99.314,261.803 98.346 C 259.224 97.174,73.408 97.228,71.059 98.401 M27.855 99.786 C 21.012 102.225,21.902 112.126,29.098 113.620 C 32.448 114.316,52.651 113.977,54.182 113.200 C 59.923 110.285,59.142 101.188,53.018 99.646 C 50.314 98.965,29.838 99.079,27.855 99.786 M151.364 109.231 C 153.487 111.753,151.887 115.200,148.593 115.200 C 145.832 115.200,144.120 112.474,145.367 110.063 C 146.642 107.597,149.640 107.181,151.364 109.231 M164.945 109.055 C 167.269 111.378,165.641 115.200,162.327 115.200 C 160.152 115.200,158.800 113.820,158.800 111.599 C 158.800 108.308,162.618 106.727,164.945 109.055 M239.725 108.966 C 241.118 110.256,241.414 111.627,240.628 113.145 C 239.600 115.134,239.196 115.200,228.047 115.200 L 217.641 115.200 216.620 113.862 C 216.059 113.126,215.600 112.108,215.600 111.600 C 215.600 111.092,216.059 110.074,216.620 109.338 L 217.641 108.000 228.162 108.000 L 238.683 108.000 239.725 108.966 M116.887 130.743 C 113.742 134.473,117.110 134.173,75.800 134.400 L 39.400 134.600 37.511 135.711 C 32.648 138.569,31.809 145.933,35.904 149.813 C 38.539 152.311,36.568 152.159,69.400 152.389 C 99.385 152.600,99.401 152.600,100.807 153.475 C 107.394 157.572,107.075 166.329,100.206 169.958 C 98.712 170.747,98.003 170.800,88.890 170.800 C 80.056 170.800,79.029 170.871,77.646 171.576 C 71.345 174.791,71.045 183.902,77.115 187.677 L 78.600 188.600 105.400 188.800 L 132.200 189.000 134.068 189.920 C 140.619 193.147,140.913 202.216,134.600 206.352 L 133.000 207.400 100.600 207.600 C 71.210 207.781,68.070 207.863,66.800 208.478 C 59.437 212.046,60.068 222.704,67.798 225.338 C 70.755 226.345,219.237 226.357,222.738 225.350 C 226.633 224.230,229.885 221.352,230.590 218.400 C 230.815 217.457,237.098 198.140,243.990 177.200 C 247.777 165.697,255.801 141.188,257.990 134.439 C 258.876 131.711,259.600 129.326,259.600 129.139 C 259.600 128.953,227.858 128.800,189.063 128.800 L 118.525 128.800 116.887 130.743 M183.051 139.881 C 193.999 143.820,202.037 152.865,205.286 164.903 C 206.301 168.662,206.525 178.749,205.664 181.900 C 205.409 182.835,205.020 184.316,204.800 185.191 C 199.868 204.810,174.938 216.239,158.400 206.463 C 133.441 191.709,133.441 155.227,158.400 141.900 C 165.518 138.100,175.768 137.260,183.051 139.881 M14.728 173.234 C 9.721 175.772,9.475 183.068,14.296 186.065 L 15.800 187.000 38.600 187.000 L 61.400 187.000 62.926 186.052 C 67.759 183.047,67.573 176.136,62.583 173.310 L 61.000 172.413 38.600 172.450 C 17.571 172.485,16.110 172.533,14.728 173.234 M141.200 175.528 C 141.200 196.262,162.467 213.140,181.186 207.262 C 193.028 203.544,202.348 192.864,204.144 180.957 L 204.391 179.313 202.080 179.072 C 199.646 178.817,198.356 178.372,193.800 176.216 C 186.416 172.721,181.077 172.772,173.400 176.412 C 168.194 178.881,166.135 179.327,161.033 179.089 C 156.397 178.873,155.248 178.551,150.064 176.013 C 147.445 174.731,143.721 173.600,142.116 173.600 C 141.288 173.600,141.200 173.785,141.200 175.528 M189.701 177.668 C 193.231 179.164,193.105 179.690,188.945 180.844 C 184.400 182.104,178.877 181.663,175.100 179.740 C 170.172 177.230,184.029 175.264,189.701 177.668 M176.245 184.734 C 177.543 187.353,174.303 189.446,172.202 187.345 C 171.405 186.548,171.439 185.241,172.280 184.312 C 173.256 183.233,175.625 183.485,176.245 184.734 M191.423 185.506 C 194.133 187.388,193.410 191.624,190.279 192.212 C 186.653 192.892,184.317 189.186,186.636 186.431 C 187.674 185.196,190.258 184.697,191.423 185.506 M40.218 209.813 C 34.595 211.953,33.559 219.026,38.334 222.678 C 42.170 225.613,51.744 223.988,53.652 220.078 C 57.073 213.070,48.623 206.614,40.218 209.813 M115.000 239.981 C 91.624 243.876,71.738 267.405,75.765 286.401 C 80.427 308.388,113.431 309.007,133.863 287.490 C 156.294 263.869,144.836 235.010,115.000 239.981 M304.000 239.996 C 278.214 244.109,257.218 273.326,266.876 291.657 C 272.624 302.565,289.019 306.575,303.400 300.588 C 304.060 300.314,304.994 299.970,305.475 299.825 C 311.944 297.877,323.358 288.610,328.224 281.354 C 343.918 257.958,330.886 235.708,304.000 239.996 M124.494 245.011 C 129.033 245.496,127.631 245.961,118.400 247.031 C 110.260 247.974,98.792 252.433,94.283 256.408 C 92.090 258.341,91.517 258.277,92.776 256.238 C 95.362 252.055,102.713 247.663,110.324 245.754 C 115.176 244.537,118.461 244.365,124.494 245.011 M316.900 244.657 C 319.176 245.033,318.703 245.476,315.700 245.780 C 304.393 246.922,291.117 251.939,285.740 257.100 C 283.633 259.123,283.517 259.158,284.060 257.600 C 286.768 249.832,304.922 242.677,316.900 244.657 " stroke="none" fill="#3c4474" fill-rule="evenodd"></path><path id="path1" d="M0.000 200.000 L 0.000 400.000 200.000 400.000 L 400.000 400.000 400.000 200.000 L 400.000 0.000 200.000 0.000 L 0.000 0.000 0.000 200.000 M260.130 97.361 C 267.494 99.093,268.634 103.558,264.760 115.487 C 263.419 119.619,262.254 123.225,262.173 123.501 C 262.054 123.901,247.501 123.982,190.372 123.901 L 118.720 123.800 117.973 121.832 C 115.805 116.122,115.267 116.000,92.229 115.998 C 72.111 115.995,71.477 115.940,69.086 113.968 C 62.750 108.741,65.297 98.846,73.400 97.211 C 76.458 96.593,257.488 96.739,260.130 97.361 M55.266 100.206 C 59.852 103.395,59.779 110.017,55.123 113.098 L 53.458 114.200 40.629 114.200 L 27.800 114.200 26.351 113.219 C 22.084 110.331,21.458 104.519,25.040 101.040 C 27.216 98.927,27.814 98.849,41.266 98.928 L 53.533 99.000 55.266 100.206 M146.470 109.326 C 145.278 110.594,145.305 112.783,146.526 113.930 C 149.032 116.285,152.691 113.701,151.537 110.392 C 150.787 108.240,148.034 107.661,146.470 109.326 M160.182 109.382 C 158.150 111.414,159.606 114.800,162.512 114.800 C 165.323 114.800,166.642 111.406,164.618 109.382 C 163.999 108.763,163.179 108.400,162.400 108.400 C 161.621 108.400,160.801 108.763,160.182 109.382 M217.426 109.031 C 215.757 110.701,215.683 112.280,217.200 113.908 C 218.526 115.331,238.189 115.302,239.530 113.874 C 240.799 112.524,240.711 110.302,239.346 109.229 C 237.915 108.103,218.529 107.928,217.426 109.031 M259.924 129.900 C 259.698 130.725,258.273 135.171,256.756 139.780 C 255.240 144.389,254.000 148.321,254.000 148.519 C 254.000 148.717,253.751 149.446,253.447 150.140 C 253.143 150.833,251.147 156.800,249.012 163.400 C 246.877 170.000,244.982 175.760,244.802 176.200 C 244.622 176.640,243.361 180.510,242.000 184.800 C 240.639 189.090,239.381 192.960,239.205 193.400 C 239.028 193.840,238.402 195.730,237.813 197.600 C 237.224 199.470,236.596 201.360,236.416 201.800 C 236.236 202.240,234.973 206.110,233.608 210.400 C 230.015 221.696,229.745 222.200,225.964 224.655 L 224.200 225.800 146.400 225.918 C 94.181 225.997,68.134 225.901,67.182 225.627 C 60.633 223.735,59.092 213.676,64.683 209.310 C 67.442 207.155,66.700 207.200,99.393 207.200 C 128.810 207.200,134.400 207.004,134.400 205.972 C 134.400 205.797,134.717 205.553,135.104 205.430 C 138.169 204.458,139.708 197.123,137.545 193.800 C 134.553 189.202,136.182 189.433,105.000 189.200 L 78.200 189.000 76.504 187.898 C 71.138 184.409,70.715 176.017,75.718 172.320 C 78.410 170.331,78.860 170.257,89.200 170.105 C 100.150 169.944,100.549 169.862,102.786 167.321 C 105.178 164.603,105.763 159.672,103.972 157.304 C 100.453 152.649,103.409 153.029,68.934 152.800 L 38.868 152.600 37.145 151.389 C 31.322 147.295,31.322 139.505,37.145 135.411 L 38.868 134.200 68.934 133.921 C 119.116 133.454,114.036 133.873,116.982 129.957 L 118.153 128.400 189.244 128.400 L 260.336 128.400 259.924 129.900 M167.400 139.259 C 141.433 144.051,131.109 178.692,149.614 198.939 C 164.979 215.751,191.677 211.791,201.786 191.200 C 202.380 189.990,203.003 188.730,203.171 188.400 C 204.052 186.667,205.221 181.721,205.605 178.100 C 208.090 154.685,188.996 135.273,167.400 139.259 M318.053 143.517 C 320.679 144.572,321.158 145.188,324.809 152.200 C 326.183 154.840,328.250 158.800,329.402 161.000 C 330.553 163.200,333.522 168.960,335.999 173.800 C 347.918 197.090,347.278 196.020,349.884 196.997 C 367.204 203.489,382.160 210.351,383.950 212.628 C 386.362 215.693,386.623 214.416,379.005 236.800 C 373.398 253.277,375.823 251.600,357.600 251.600 C 341.007 251.600,341.003 251.599,339.407 246.446 C 338.215 242.597,334.019 237.617,329.699 234.924 C 306.898 220.713,267.039 240.380,258.056 270.276 C 257.373 272.549,256.920 273.345,255.896 274.076 L 254.600 275.000 205.400 274.846 C 178.340 274.761,155.777 274.534,155.260 274.340 C 152.669 273.373,151.933 270.694,153.145 266.648 C 155.961 257.246,154.855 246.973,150.420 241.334 C 148.993 239.520,149.271 236.605,151.028 234.947 L 152.457 233.600 192.414 233.600 C 230.064 233.600,232.393 233.560,232.736 232.900 C 232.936 232.515,233.832 230.040,234.727 227.400 C 235.621 224.760,237.720 218.640,239.391 213.800 C 241.062 208.960,243.316 202.390,244.401 199.200 C 245.486 196.010,247.742 189.440,249.414 184.600 C 251.087 179.760,252.695 175.080,252.988 174.200 C 253.280 173.320,255.168 167.830,257.183 162.000 C 259.198 156.170,261.484 149.510,262.263 147.200 C 263.042 144.890,263.769 142.854,263.878 142.676 C 264.428 141.780,315.714 142.576,318.053 143.517 M63.661 173.451 C 68.198 176.714,68.098 182.404,63.437 186.177 L 61.926 187.400 39.360 187.510 C 17.394 187.616,16.743 187.598,14.894 186.802 C 8.522 184.061,9.101 173.988,15.723 172.379 C 16.426 172.209,27.107 172.099,39.461 172.135 L 61.922 172.200 63.661 173.451 M145.742 173.834 C 147.094 174.182,149.190 174.985,150.400 175.617 C 158.312 179.752,165.753 179.811,173.616 175.800 C 180.411 172.334,187.358 172.317,194.000 175.752 C 197.460 177.540,199.725 178.301,202.500 178.605 C 205.157 178.897,205.214 179.043,204.190 182.975 C 197.004 210.563,165.029 217.980,148.080 195.990 C 145.977 193.262,143.467 188.641,142.976 186.595 C 142.819 185.938,142.560 185.220,142.402 185.000 C 141.681 183.997,140.481 174.440,140.976 173.639 C 141.353 173.029,142.860 173.090,145.742 173.834 M178.233 177.400 C 173.798 178.320,173.750 178.919,178.000 180.290 C 180.998 181.258,186.262 181.236,189.357 180.245 L 191.714 179.490 190.757 178.761 C 188.714 177.206,182.451 176.525,178.233 177.400 M172.875 184.416 C 171.802 185.416,171.776 186.035,172.758 187.248 C 173.854 188.601,175.746 187.941,175.922 186.143 C 176.140 183.916,174.444 182.954,172.875 184.416 M188.114 185.790 C 185.195 187.060,186.193 192.000,189.368 192.000 C 192.681 192.000,193.787 187.345,190.837 185.819 C 189.431 185.092,189.713 185.095,188.114 185.790 M258.361 198.045 C 257.107 198.505,256.744 199.162,255.206 203.751 C 253.680 208.307,253.134 208.000,262.762 208.000 C 272.431 208.000,271.683 208.329,273.327 203.352 C 274.604 199.486,274.655 198.565,273.626 198.014 C 272.654 197.493,259.792 197.519,258.361 198.045 M50.274 209.625 C 55.782 211.707,56.590 219.371,51.695 223.109 C 49.633 224.683,41.837 224.974,39.047 223.580 C 33.358 220.739,33.712 211.730,39.600 209.491 C 40.675 209.082,49.118 209.189,50.274 209.625 M94.099 234.156 C 96.406 235.907,95.424 237.626,89.787 241.707 C 79.277 249.315,71.195 260.524,68.809 270.800 C 67.948 274.509,68.243 274.400,59.070 274.400 C 52.181 274.400,50.961 274.308,50.331 273.738 C 48.975 272.510,48.538 274.008,60.212 239.855 C 61.179 237.025,62.292 234.466,62.685 234.167 C 63.722 233.381,93.064 233.370,94.099 234.156 M125.200 239.201 C 145.088 241.510,152.478 261.305,140.431 280.000 C 119.916 311.837,73.234 311.552,74.929 279.600 C 75.933 260.676,96.128 241.445,117.346 239.209 C 121.504 238.771,121.495 238.771,125.200 239.201 M314.263 239.181 C 338.653 241.986,343.014 268.435,322.444 288.802 C 297.503 313.496,260.750 306.349,264.331 277.501 C 266.187 262.552,280.532 246.780,297.104 241.468 C 302.434 239.759,303.331 239.543,306.405 239.221 C 310.723 238.770,310.691 238.771,314.263 239.181 M305.600 245.422 C 298.377 246.557,290.676 250.361,286.430 254.892 C 284.905 256.519,284.807 257.312,286.300 255.936 C 288.237 254.151,297.460 249.200,298.848 249.200 C 299.085 249.200,299.846 248.939,300.540 248.620 C 302.228 247.842,309.456 246.008,310.982 245.970 C 311.652 245.953,312.830 245.697,313.600 245.400 C 315.561 244.645,310.455 244.659,305.600 245.422 M113.200 245.627 C 107.372 246.500,98.958 250.346,95.495 253.720 C 93.555 255.610,93.448 256.075,95.230 254.873 C 97.430 253.388,103.355 250.400,104.099 250.400 C 104.397 250.400,104.811 250.246,105.020 250.058 C 106.298 248.908,117.036 246.434,122.200 246.099 C 125.566 245.882,125.947 245.793,124.600 245.543 C 122.525 245.158,116.013 245.206,113.200 245.627 M378.342 259.770 C 379.416 260.326,380.400 261.869,380.400 262.999 C 380.400 263.726,376.864 274.265,376.140 275.693 C 374.998 277.949,374.604 278.000,358.407 278.000 C 341.756 278.000,341.331 277.940,340.126 275.413 C 339.231 273.537,342.748 262.266,344.841 260.300 L 346.013 259.200 361.626 259.200 C 374.357 259.200,377.443 259.305,378.342 259.770 " stroke="none" fill="#fbfbfb" fill-rule="evenodd"></path><path id="path2" d="M120.732 97.100 C 146.105 97.157,187.505 97.157,212.732 97.100 C 237.959 97.043,217.200 96.997,166.600 96.997 C 116.000 96.997,95.359 97.043,120.732 97.100 M58.514 106.600 C 58.517 107.700,58.595 108.103,58.687 107.495 C 58.779 106.886,58.777 105.986,58.682 105.495 C 58.587 105.003,58.511 105.500,58.514 106.600 M89.126 133.900 C 93.376 133.964,100.216 133.964,104.326 133.899 C 108.437 133.834,104.960 133.781,96.600 133.781 C 88.240 133.782,84.877 133.835,89.126 133.900 M171.491 138.689 C 172.201 138.777,173.461 138.779,174.291 138.692 C 175.121 138.605,174.540 138.533,173.000 138.531 C 171.460 138.529,170.781 138.600,171.491 138.689 M263.878 142.676 C 263.769 142.854,263.042 144.890,262.263 147.200 C 261.484 149.510,259.198 156.170,257.183 162.000 C 255.168 167.830,253.280 173.320,252.988 174.200 C 252.695 175.080,251.087 179.760,249.414 184.600 C 247.742 189.440,245.486 196.010,244.401 199.200 C 243.316 202.390,241.062 208.960,239.391 213.800 C 237.720 218.640,235.621 224.760,234.727 227.400 C 233.832 230.040,232.936 232.515,232.736 232.900 C 232.393 233.560,230.064 233.600,192.414 233.600 L 152.457 233.600 151.028 234.947 C 149.271 236.605,148.993 239.520,150.420 241.334 C 154.855 246.973,155.961 257.246,153.145 266.648 C 151.933 270.694,152.669 273.373,155.260 274.340 C 155.777 274.534,178.340 274.761,205.400 274.846 L 254.600 275.000 255.896 274.076 C 256.920 273.345,257.373 272.549,258.056 270.276 C 267.039 240.380,306.898 220.713,329.699 234.924 C 334.019 237.617,338.215 242.597,339.407 246.446 C 341.003 251.599,341.007 251.600,357.600 251.600 C 375.823 251.600,373.398 253.277,379.005 236.800 C 386.623 214.416,386.362 215.693,383.950 212.628 C 382.160 210.351,367.204 203.489,349.884 196.997 C 347.278 196.020,347.918 197.090,335.999 173.800 C 333.522 168.960,330.553 163.200,329.402 161.000 C 328.250 158.800,326.183 154.840,324.809 152.200 C 319.349 141.713,322.693 142.645,289.938 142.482 C 275.714 142.411,263.987 142.498,263.878 142.676 M41.700 152.691 C 42.525 152.778,43.875 152.778,44.700 152.691 C 45.525 152.605,44.850 152.534,43.200 152.534 C 41.550 152.534,40.875 152.605,41.700 152.691 M101.200 154.125 C 101.200 154.194,101.785 154.779,102.500 155.425 L 103.800 156.600 102.625 155.300 C 101.530 154.088,101.200 153.816,101.200 154.125 M205.701 170.600 C 205.705 171.480,205.787 171.793,205.883 171.295 C 205.979 170.798,205.975 170.078,205.875 169.695 C 205.775 169.313,205.696 169.720,205.701 170.600 M85.678 170.298 C 88.031 170.369,91.991 170.369,94.478 170.299 C 96.965 170.229,95.040 170.171,90.200 170.170 C 85.360 170.170,83.325 170.228,85.678 170.298 M79.300 170.676 C 79.685 170.776,80.315 170.776,80.700 170.676 C 81.085 170.575,80.770 170.493,80.000 170.493 C 79.230 170.493,78.915 170.575,79.300 170.676 M27.700 172.300 C 33.805 172.362,43.795 172.362,49.900 172.300 C 56.005 172.238,51.010 172.187,38.800 172.187 C 26.590 172.187,21.595 172.238,27.700 172.300 M141.905 173.483 C 142.402 173.579,143.122 173.575,143.505 173.475 C 143.887 173.375,143.480 173.296,142.600 173.301 C 141.720 173.305,141.407 173.387,141.905 173.483 M182.100 173.494 C 183.145 173.576,184.855 173.576,185.900 173.494 C 186.945 173.412,186.090 173.344,184.000 173.344 C 181.910 173.344,181.055 173.412,182.100 173.494 M140.093 177.200 C 140.093 177.970,140.175 178.285,140.276 177.900 C 140.376 177.515,140.376 176.885,140.276 176.500 C 140.175 176.115,140.093 176.430,140.093 177.200 M205.701 177.400 C 205.705 178.280,205.787 178.593,205.883 178.095 C 205.979 177.598,205.975 176.878,205.875 176.495 C 205.775 176.113,205.696 176.520,205.701 177.400 M175.952 185.687 C 176.137 186.798,176.193 186.855,176.319 186.054 C 176.401 185.533,176.303 184.943,176.101 184.741 C 175.879 184.519,175.821 184.893,175.952 185.687 M196.378 199.100 L 195.000 200.600 196.500 199.222 C 197.325 198.463,198.000 197.788,198.000 197.722 C 198.000 197.416,197.662 197.704,196.378 199.100 M273.626 198.014 C 274.655 198.565,274.604 199.486,273.327 203.352 C 271.683 208.329,272.431 208.000,262.762 208.000 C 253.134 208.000,253.680 208.307,255.206 203.751 C 256.744 199.162,257.107 198.505,258.361 198.045 C 259.792 197.519,272.654 197.493,273.626 198.014 M194.400 199.800 C 193.428 200.790,192.723 201.600,192.833 201.600 C 192.943 201.600,193.828 200.790,194.800 199.800 C 195.772 198.810,196.477 198.000,196.367 198.000 C 196.257 198.000,195.372 198.810,194.400 199.800 M71.720 207.498 C 73.655 207.572,76.715 207.571,78.520 207.497 C 80.324 207.423,78.740 207.363,75.000 207.364 C 71.260 207.364,69.784 207.425,71.720 207.498 M62.685 234.167 C 62.292 234.466,61.179 237.025,60.212 239.855 C 48.538 274.008,48.975 272.510,50.331 273.738 C 50.961 274.308,52.181 274.400,59.070 274.400 C 68.243 274.400,67.948 274.509,68.809 270.800 C 71.195 260.524,79.277 249.315,89.787 241.707 C 95.424 237.626,96.406 235.907,94.099 234.156 C 93.064 233.370,63.722 233.381,62.685 234.167 M120.700 239.082 C 121.195 239.178,122.005 239.178,122.500 239.082 C 122.995 238.987,122.590 238.909,121.600 238.909 C 120.610 238.909,120.205 238.987,120.700 239.082 M309.900 239.082 C 310.395 239.178,311.205 239.178,311.700 239.082 C 312.195 238.987,311.790 238.909,310.800 238.909 C 309.810 238.909,309.405 238.987,309.900 239.082 M310.291 244.689 C 311.001 244.777,312.261 244.779,313.091 244.692 C 313.921 244.605,313.340 244.533,311.800 244.531 C 310.260 244.529,309.581 244.600,310.291 244.689 M118.900 245.076 C 119.285 245.176,119.915 245.176,120.300 245.076 C 120.685 244.975,120.370 244.893,119.600 244.893 C 118.830 244.893,118.515 244.975,118.900 245.076 M306.900 245.076 C 307.285 245.176,307.915 245.176,308.300 245.076 C 308.685 244.975,308.370 244.893,307.600 244.893 C 306.830 244.893,306.515 244.975,306.900 245.076 M314.200 245.200 C 313.513 245.495,313.570 245.547,314.600 245.566 C 315.260 245.578,316.070 245.413,316.400 245.200 C 317.182 244.694,315.376 244.694,314.200 245.200 M93.537 255.476 C 93.289 255.775,93.202 256.135,93.343 256.276 C 93.484 256.418,93.600 256.313,93.600 256.043 C 93.600 255.773,93.760 255.651,93.955 255.772 C 94.150 255.893,94.507 255.753,94.748 255.462 C 95.079 255.064,95.039 254.933,94.587 254.933 C 94.257 254.933,93.785 255.178,93.537 255.476 M146.137 261.400 C 146.139 263.160,146.209 263.830,146.293 262.889 C 146.378 261.949,146.377 260.509,146.291 259.689 C 146.205 258.870,146.136 259.640,146.137 261.400 M335.340 261.600 C 335.340 263.470,335.409 264.235,335.493 263.300 C 335.577 262.365,335.577 260.835,335.493 259.900 C 335.409 258.965,335.340 259.730,335.340 261.600 M344.841 260.300 C 342.748 262.266,339.231 273.537,340.126 275.413 C 341.331 277.940,341.756 278.000,358.407 278.000 C 377.230 278.000,375.260 278.873,378.547 269.080 C 380.588 263.000,380.607 262.893,379.922 261.389 C 378.946 259.246,378.562 259.200,361.626 259.200 L 346.013 259.200 344.841 260.300 M79.600 295.725 C 79.600 295.794,80.185 296.379,80.900 297.025 L 82.200 298.200 81.025 296.900 C 79.930 295.688,79.600 295.416,79.600 295.725 M98.900 303.876 C 99.285 303.976,99.915 303.976,100.300 303.876 C 100.685 303.775,100.370 303.693,99.600 303.693 C 98.830 303.693,98.515 303.775,98.900 303.876 M288.100 303.876 C 288.485 303.976,289.115 303.976,289.500 303.876 C 289.885 303.775,289.570 303.693,288.800 303.693 C 288.030 303.693,287.715 303.775,288.100 303.876 " stroke="none" fill="#a4cbe3" fill-rule="evenodd"></path><path id="path3" d="M34.924 99.099 C 38.183 99.167,43.403 99.166,46.524 99.099 C 49.646 99.031,46.980 98.976,40.600 98.977 C 34.220 98.977,31.666 99.032,34.924 99.099 M223.500 108.299 C 226.195 108.368,230.605 108.368,233.300 108.299 C 235.995 108.230,233.790 108.173,228.400 108.173 C 223.010 108.173,220.805 108.230,223.500 108.299 M34.900 114.299 C 37.925 114.367,42.875 114.367,45.900 114.299 C 48.925 114.231,46.450 114.175,40.400 114.175 C 34.350 114.175,31.875 114.231,34.900 114.299 M223.500 115.099 C 226.195 115.168,230.605 115.168,233.300 115.099 C 235.995 115.030,233.790 114.973,228.400 114.973 C 223.010 114.973,220.805 115.030,223.500 115.099 M82.928 115.900 C 88.168 115.963,96.628 115.963,101.728 115.900 C 106.827 115.836,102.540 115.785,92.200 115.785 C 81.860 115.785,77.687 115.837,82.928 115.900 M50.500 134.300 C 56.165 134.362,65.435 134.362,71.100 134.300 C 76.765 134.237,72.130 134.186,60.800 134.186 C 49.470 134.186,44.835 134.237,50.500 134.300 M194.400 146.925 C 194.400 146.994,194.985 147.579,195.700 148.225 L 197.000 149.400 195.825 148.100 C 194.730 146.888,194.400 146.616,194.400 146.925 M58.900 152.700 C 66.105 152.761,77.895 152.761,85.100 152.700 C 92.305 152.639,86.410 152.589,72.000 152.589 C 57.590 152.589,51.695 152.639,58.900 152.700 M140.893 174.800 C 140.893 175.570,140.975 175.885,141.076 175.500 C 141.176 175.115,141.176 174.485,141.076 174.100 C 140.975 173.715,140.893 174.030,140.893 174.800 M181.905 176.683 C 182.402 176.779,183.122 176.775,183.505 176.675 C 183.887 176.575,183.480 176.496,182.600 176.501 C 181.720 176.505,181.407 176.587,181.905 176.683 M160.100 179.076 C 160.485 179.176,161.115 179.176,161.500 179.076 C 161.885 178.975,161.570 178.893,160.800 178.893 C 160.030 178.893,159.715 178.975,160.100 179.076 M162.900 179.076 C 163.285 179.176,163.915 179.176,164.300 179.076 C 164.685 178.975,164.370 178.893,163.600 178.893 C 162.830 178.893,162.515 178.975,162.900 179.076 M27.672 187.500 C 33.541 187.562,43.261 187.562,49.272 187.500 C 55.282 187.438,50.480 187.387,38.600 187.386 C 26.720 187.386,21.802 187.437,27.672 187.500 M93.929 207.500 C 100.820 207.561,111.980 207.561,118.729 207.500 C 125.478 207.438,119.840 207.388,106.200 207.388 C 92.560 207.388,87.038 207.438,93.929 207.500 M61.320 216.800 C 61.320 218.010,61.395 218.505,61.487 217.900 C 61.578 217.295,61.578 216.305,61.487 215.700 C 61.395 215.095,61.320 215.590,61.320 216.800 M116.500 245.076 C 116.885 245.176,117.515 245.176,117.900 245.076 C 118.285 244.975,117.970 244.893,117.200 244.893 C 116.430 244.893,116.115 244.975,116.500 245.076 M316.400 245.200 C 315.915 245.514,315.972 245.589,316.700 245.594 C 317.195 245.597,317.600 245.420,317.600 245.200 C 317.600 244.699,317.176 244.699,316.400 245.200 M276.778 254.300 L 275.400 255.800 276.900 254.422 C 278.296 253.138,278.584 252.800,278.278 252.800 C 278.212 252.800,277.537 253.475,276.778 254.300 " stroke="none" fill="#9ca4bc" fill-rule="evenodd"></path><path id="path4" d="M119.700 97.500 C 145.385 97.557,187.415 97.557,213.100 97.500 C 238.785 97.443,217.770 97.397,166.400 97.397 C 115.030 97.397,94.015 97.443,119.700 97.500 M263.200 98.925 C 263.200 98.994,263.785 99.579,264.500 100.225 L 265.800 101.400 264.625 100.100 C 263.530 98.888,263.200 98.616,263.200 98.925 M22.901 106.600 C 22.905 107.480,22.987 107.793,23.083 107.295 C 23.179 106.798,23.175 106.078,23.075 105.695 C 22.975 105.313,22.896 105.720,22.901 106.600 M216.962 108.900 C 216.206 109.792,216.207 109.794,217.000 109.152 C 217.440 108.796,218.070 108.405,218.400 108.284 C 218.909 108.097,218.904 108.058,218.362 108.032 C 218.011 108.014,217.381 108.405,216.962 108.900 M240.582 111.600 C 240.582 112.948,240.651 113.104,240.952 112.430 C 241.179 111.921,241.179 111.279,240.952 110.770 C 240.651 110.096,240.582 110.252,240.582 111.600 M215.693 111.600 C 215.693 112.370,215.775 112.685,215.876 112.300 C 215.976 111.915,215.976 111.285,215.876 110.900 C 215.775 110.515,215.693 110.830,215.693 111.600 M146.162 114.300 C 146.581 114.795,147.211 115.186,147.562 115.168 C 148.104 115.142,148.109 115.103,147.600 114.916 C 147.270 114.795,146.640 114.404,146.200 114.048 C 145.407 113.406,145.406 113.408,146.162 114.300 M216.962 114.300 C 217.381 114.795,218.011 115.186,218.362 115.168 C 218.904 115.142,218.909 115.103,218.400 114.916 C 218.070 114.795,217.440 114.404,217.000 114.048 C 216.207 113.406,216.206 113.408,216.962 114.300 M261.600 123.133 C 261.600 123.487,244.301 123.624,190.300 123.699 L 119.000 123.798 190.179 123.900 C 257.910 123.997,262.864 123.931,261.873 122.940 C 261.723 122.790,261.600 122.877,261.600 123.133 M117.968 129.100 C 117.518 129.696,117.522 129.725,117.999 129.300 C 118.443 128.904,133.223 128.800,189.047 128.800 C 245.062 128.800,259.575 128.903,259.735 129.300 C 259.856 129.599,259.950 129.518,259.968 129.100 C 260.018 128.011,118.792 128.011,117.968 129.100 M115.775 131.700 L 114.600 133.000 115.900 131.825 C 117.112 130.730,117.384 130.400,117.075 130.400 C 117.006 130.400,116.421 130.985,115.775 131.700 M88.526 134.300 C 92.666 134.365,99.326 134.365,103.326 134.299 C 107.327 134.234,103.940 134.181,95.800 134.181 C 87.660 134.181,84.387 134.234,88.526 134.300 M165.000 139.200 C 164.496 139.417,164.422 139.544,164.800 139.544 C 165.130 139.544,165.760 139.389,166.200 139.200 C 166.704 138.983,166.778 138.856,166.400 138.856 C 166.070 138.856,165.440 139.011,165.000 139.200 M179.800 139.200 C 180.240 139.389,180.870 139.544,181.200 139.544 C 181.578 139.544,181.504 139.417,181.000 139.200 C 180.560 139.011,179.930 138.856,179.600 138.856 C 179.222 138.856,179.296 138.983,179.800 139.200 M191.200 144.106 C 191.200 144.194,191.965 144.874,192.900 145.617 C 193.835 146.360,194.346 146.652,194.036 146.265 C 193.451 145.537,191.200 143.823,191.200 144.106 M40.700 152.293 C 41.635 152.377,43.165 152.377,44.100 152.293 C 45.035 152.209,44.270 152.140,42.400 152.140 C 40.530 152.140,39.765 152.209,40.700 152.293 M101.600 154.125 C 101.600 154.194,102.185 154.779,102.900 155.425 L 104.200 156.600 103.025 155.300 C 101.930 154.088,101.600 153.816,101.600 154.125 M105.000 161.600 C 105.000 163.344,105.122 164.462,105.272 164.085 C 105.421 163.708,105.544 162.590,105.544 161.600 C 105.544 160.610,105.421 159.492,105.272 159.115 C 105.122 158.738,105.000 159.856,105.000 161.600 M102.575 168.100 L 101.400 169.400 102.700 168.225 C 103.912 167.130,104.184 166.800,103.875 166.800 C 103.806 166.800,103.221 167.385,102.575 168.100 M85.678 170.698 C 88.031 170.769,91.991 170.769,94.478 170.699 C 96.965 170.629,95.040 170.571,90.200 170.570 C 85.360 170.570,83.325 170.628,85.678 170.698 M206.144 174.000 C 206.144 176.090,206.212 176.945,206.294 175.900 C 206.376 174.855,206.376 173.145,206.294 172.100 C 206.212 171.055,206.144 171.910,206.144 174.000 M139.724 174.200 C 139.726 175.520,139.801 176.012,139.890 175.293 C 139.979 174.574,139.977 173.494,139.886 172.893 C 139.795 172.292,139.722 172.880,139.724 174.200 M72.524 179.800 C 72.526 181.120,72.601 181.612,72.690 180.893 C 72.779 180.174,72.777 179.094,72.686 178.493 C 72.595 177.892,72.522 178.480,72.524 179.800 M10.501 179.800 C 10.505 180.680,10.587 180.993,10.683 180.495 C 10.779 179.998,10.775 179.278,10.675 178.895 C 10.575 178.513,10.496 178.920,10.501 179.800 M179.423 181.240 C 179.850 181.407,181.730 181.536,183.600 181.525 C 187.722 181.503,187.085 181.302,182.223 181.091 C 180.255 181.005,178.995 181.072,179.423 181.240 M171.867 184.667 C 171.505 185.028,171.540 186.487,171.925 187.093 C 172.105 187.376,172.230 186.907,172.219 185.994 C 172.209 185.119,172.185 184.402,172.167 184.401 C 172.148 184.401,172.013 184.520,171.867 184.667 M74.998 186.337 C 75.434 186.852,76.153 187.459,76.596 187.686 C 77.445 188.121,77.321 187.987,75.403 186.394 C 74.248 185.435,74.234 185.433,74.998 186.337 M186.014 187.174 C 185.786 187.599,185.618 188.364,185.641 188.874 C 185.674 189.617,185.740 189.556,185.977 188.565 C 186.139 187.886,186.402 187.121,186.560 186.865 C 186.718 186.609,186.753 186.400,186.638 186.400 C 186.522 186.400,186.242 186.748,186.014 187.174 M192.800 188.746 C 192.800 189.376,192.422 190.411,191.961 191.046 L 191.122 192.200 192.161 191.078 C 193.057 190.110,193.663 187.600,193.000 187.600 C 192.890 187.600,192.800 188.116,192.800 188.746 M93.129 189.100 C 100.240 189.161,111.760 189.161,118.729 189.100 C 125.698 189.038,119.880 188.988,105.800 188.988 C 91.720 188.988,86.018 189.039,93.129 189.100 M151.183 199.300 C 152.164 200.345,153.019 201.200,153.083 201.200 C 153.384 201.200,153.066 200.841,151.300 199.183 L 149.400 197.400 151.183 199.300 M149.983 200.100 C 150.964 201.145,151.819 202.000,151.883 202.000 C 152.184 202.000,151.866 201.641,150.100 199.983 L 148.200 198.200 149.983 200.100 M195.600 200.200 C 194.628 201.190,193.923 202.000,194.033 202.000 C 194.143 202.000,195.028 201.190,196.000 200.200 C 196.972 199.210,197.677 198.400,197.567 198.400 C 197.457 198.400,196.572 199.210,195.600 200.200 M138.752 199.913 C 138.621 200.707,138.679 201.081,138.901 200.859 C 139.103 200.657,139.201 200.067,139.119 199.546 C 138.993 198.745,138.937 198.802,138.752 199.913 M193.375 200.500 L 192.200 201.800 193.500 200.625 C 194.712 199.530,194.984 199.200,194.675 199.200 C 194.606 199.200,194.021 199.785,193.375 200.500 M171.907 208.690 C 172.626 208.779,173.706 208.777,174.307 208.686 C 174.908 208.595,174.320 208.522,173.000 208.524 C 171.680 208.526,171.188 208.601,171.907 208.690 M170.915 209.896 C 172.188 209.976,174.168 209.975,175.315 209.894 C 176.462 209.814,175.420 209.749,173.000 209.750 C 170.580 209.751,169.642 209.816,170.915 209.896 M54.472 216.467 C 54.432 217.494,54.296 218.664,54.170 219.067 C 53.954 219.754,53.968 219.756,54.392 219.097 C 54.640 218.710,54.776 217.540,54.694 216.497 L 54.544 214.600 54.472 216.467 M63.798 223.137 C 64.234 223.652,64.953 224.259,65.396 224.486 C 66.245 224.921,66.121 224.787,64.203 223.194 C 63.048 222.235,63.034 222.233,63.798 223.137 M43.312 224.295 C 44.364 224.377,45.984 224.376,46.912 224.292 C 47.840 224.208,46.980 224.141,45.000 224.142 C 43.020 224.143,42.260 224.212,43.312 224.295 M221.800 225.600 C 221.296 225.817,221.222 225.944,221.600 225.944 C 221.930 225.944,222.560 225.789,223.000 225.600 C 223.504 225.383,223.578 225.256,223.200 225.256 C 222.870 225.256,222.240 225.411,221.800 225.600 M119.712 239.495 C 120.764 239.577,122.384 239.576,123.312 239.492 C 124.240 239.408,123.380 239.341,121.400 239.342 C 119.420 239.343,118.660 239.412,119.712 239.495 M308.912 239.495 C 309.964 239.577,311.584 239.576,312.512 239.492 C 313.440 239.408,312.580 239.341,310.600 239.342 C 308.620 239.343,307.860 239.412,308.912 239.495 M295.700 242.012 C 294.361 242.551,294.611 242.824,296.000 242.340 C 296.660 242.110,297.200 241.849,297.200 241.761 C 297.200 241.524,296.713 241.605,295.700 242.012 M303.200 245.200 C 302.408 245.454,302.367 245.520,303.000 245.520 C 303.440 245.520,304.250 245.376,304.800 245.200 C 305.592 244.946,305.633 244.880,305.000 244.880 C 304.560 244.880,303.750 245.024,303.200 245.200 M123.300 246.276 C 123.685 246.376,124.315 246.376,124.700 246.276 C 125.085 246.175,124.770 246.093,124.000 246.093 C 123.230 246.093,122.915 246.175,123.300 246.276 M120.305 246.683 C 120.802 246.779,121.522 246.775,121.905 246.675 C 122.287 246.575,121.880 246.496,121.000 246.501 C 120.120 246.505,119.807 246.587,120.305 246.683 M296.000 250.600 C 295.450 250.914,295.180 251.172,295.400 251.172 C 295.620 251.172,296.250 250.914,296.800 250.600 C 297.350 250.286,297.620 250.028,297.400 250.028 C 297.180 250.028,296.550 250.286,296.000 250.600 M286.800 253.800 C 285.828 254.790,285.123 255.600,285.233 255.600 C 285.343 255.600,286.228 254.790,287.200 253.800 C 288.172 252.810,288.877 252.000,288.767 252.000 C 288.657 252.000,287.772 252.810,286.800 253.800 M87.381 254.500 L 85.800 256.200 87.500 254.619 C 89.081 253.148,89.384 252.800,89.081 252.800 C 89.016 252.800,88.251 253.565,87.381 254.500 M93.633 256.500 C 92.752 257.340,92.706 257.346,92.945 256.600 C 93.198 255.812,93.193 255.812,92.601 256.576 C 91.248 258.324,92.175 258.497,93.800 256.800 C 95.140 255.402,95.017 255.181,93.633 256.500 M84.575 257.700 L 83.400 259.000 84.700 257.825 C 85.912 256.730,86.184 256.400,85.875 256.400 C 85.806 256.400,85.221 256.985,84.575 257.700 M74.914 281.400 C 74.917 282.500,74.995 282.903,75.087 282.295 C 75.179 281.686,75.177 280.786,75.082 280.295 C 74.987 279.803,74.911 280.300,74.914 281.400 M132.788 288.700 L 130.200 291.400 132.900 288.812 C 134.385 287.388,135.600 286.173,135.600 286.112 C 135.600 285.817,135.193 286.192,132.788 288.700 M80.783 296.500 C 81.764 297.545,82.619 298.400,82.683 298.400 C 82.984 298.400,82.666 298.041,80.900 296.383 L 79.000 294.600 80.783 296.500 M97.500 303.495 C 98.655 303.576,100.545 303.576,101.700 303.495 C 102.855 303.414,101.910 303.348,99.600 303.348 C 97.290 303.348,96.345 303.414,97.500 303.495 M286.700 303.495 C 287.855 303.576,289.745 303.576,290.900 303.495 C 292.055 303.414,291.110 303.348,288.800 303.348 C 286.490 303.348,285.545 303.414,286.700 303.495 " stroke="none" fill="#9494b4" fill-rule="evenodd"></path></g></svg>