<svg id="svg" version="1.1" xmlns="http://www.w3.org/2000/svg" xmlns:xlink="http://www.w3.org/1999/xlink" width="400" height="400" viewBox="0, 0, 400,400"><g id="svgg"><path id="path0" d="M399.000 0.800 C 399.901 1.796,400.000 1.796,400.000 0.800 C 400.000 0.247,399.733 0.000,399.138 0.000 C 398.301 0.000,398.297 0.024,399.000 0.800 M101.200 87.629 C 93.810 87.845,90.400 88.362,90.400 89.267 C 90.400 89.450,90.114 89.600,89.765 89.600 C 89.011 89.600,85.191 93.428,84.554 94.823 C 84.308 95.360,83.867 96.305,83.574 96.923 C 83.261 97.582,83.040 99.433,83.040 101.400 C 83.040 103.367,83.261 105.218,83.574 105.877 C 83.867 106.495,84.307 107.450,84.551 108.000 C 85.511 110.166,89.428 113.428,92.280 114.437 L 95.000 115.400 127.400 115.600 C 145.220 115.710,160.160 115.952,160.600 116.137 C 165.995 118.410,168.860 121.540,170.182 126.600 L 170.600 128.200 264.300 128.301 L 358.000 128.402 357.994 113.901 C 357.988 98.868,357.919 98.124,356.219 94.837 C 355.135 92.740,352.040 89.968,349.506 88.823 L 347.000 87.691 228.000 87.546 C 162.550 87.466,105.490 87.503,101.200 87.629 M24.255 91.378 C 15.250 95.789,15.966 109.075,25.355 111.804 C 29.333 112.961,60.814 112.512,63.151 111.266 C 71.514 106.804,71.131 95.296,62.489 91.361 L 60.377 90.400 43.289 90.413 L 26.200 90.425 24.255 91.378 M198.953 104.955 C 203.103 106.688,202.816 112.142,198.502 113.566 C 193.211 115.313,190.630 106.920,195.800 104.782 C 196.954 104.304,197.464 104.332,198.953 104.955 M223.079 105.665 C 225.666 107.813,224.989 111.815,221.780 113.347 C 217.068 115.595,212.935 108.637,217.185 105.611 C 218.909 104.383,221.563 104.407,223.079 105.665 M336.531 104.945 C 340.266 106.506,340.110 111.829,336.281 113.509 C 334.000 114.510,305.028 114.179,303.163 113.131 C 299.824 111.254,300.343 106.012,304.000 104.681 C 305.449 104.154,335.215 104.396,336.531 104.945 M168.209 137.013 C 165.917 140.341,164.344 141.493,160.050 142.990 C 158.515 143.525,151.754 143.600,105.180 143.600 C 67.393 143.600,51.446 143.730,49.931 144.050 C 34.449 147.317,33.346 166.893,48.394 171.342 C 49.309 171.613,65.297 171.835,94.200 171.979 L 138.600 172.200 140.364 173.200 C 142.742 174.548,145.796 177.621,146.606 179.481 C 146.970 180.316,147.432 181.313,147.634 181.695 C 150.067 186.309,145.973 195.297,140.111 198.207 L 137.800 199.354 121.400 199.632 C 105.061 199.910,103.686 200.034,101.125 201.467 C 91.453 206.881,91.631 221.099,101.430 225.744 C 102.293 226.154,103.313 226.649,103.695 226.844 C 104.077 227.040,105.371 227.200,106.571 227.200 C 107.771 227.200,108.864 227.380,109.000 227.600 C 109.162 227.863,123.642 228.001,151.124 228.004 L 193.000 228.008 195.107 228.989 C 206.021 234.070,206.852 247.956,196.600 253.958 C 192.993 256.070,195.171 255.991,140.726 255.996 C 98.095 255.999,89.616 256.092,87.306 256.578 C 73.810 259.417,71.312 276.479,83.513 282.485 L 86.183 283.800 216.792 283.800 L 347.400 283.800 349.711 282.717 C 352.040 281.626,355.199 278.735,356.219 276.763 C 358.073 273.178,357.988 276.680,357.994 203.500 L 358.000 134.800 263.866 134.800 L 169.733 134.800 168.209 137.013 M269.797 150.824 C 286.213 154.500,298.116 162.736,306.707 176.361 C 308.077 178.533,310.000 182.469,310.000 183.099 C 310.000 183.406,310.233 183.890,310.519 184.176 C 310.804 184.461,311.274 185.483,311.564 186.447 C 311.854 187.411,312.237 188.560,312.415 189.000 C 312.594 189.440,312.850 190.340,312.984 191.000 C 313.119 191.660,313.518 193.460,313.872 195.000 C 314.764 198.889,314.729 210.627,313.814 214.800 C 312.722 219.775,312.531 220.518,311.812 222.600 C 305.684 240.333,291.379 253.369,272.600 258.335 C 269.172 259.242,267.531 259.375,259.800 259.375 C 250.830 259.375,250.224 259.299,243.400 257.322 C 232.971 254.301,221.886 246.217,215.142 236.715 C 212.501 232.993,208.800 226.211,208.800 225.093 C 208.800 224.800,208.657 224.389,208.482 224.180 C 208.087 223.708,207.443 221.734,206.662 218.600 C 199.271 188.927,217.412 158.436,246.500 151.644 C 247.545 151.400,249.165 151.021,250.100 150.802 C 253.625 149.976,266.074 149.991,269.797 150.824 M24.600 202.777 C 13.775 204.086,11.533 218.920,21.455 223.584 C 23.147 224.379,23.856 224.400,48.974 224.400 L 74.758 224.400 76.679 223.379 C 84.889 219.014,84.748 207.468,76.436 203.481 C 74.521 202.562,31.240 201.974,24.600 202.777 M207.399 204.401 C 207.064 204.943,207.519 212.401,208.009 214.400 C 209.336 219.814,209.741 221.249,210.493 223.200 C 213.100 229.960,216.885 235.966,221.772 241.102 C 224.842 244.328,230.640 249.200,231.408 249.200 C 231.556 249.200,232.154 249.539,232.738 249.952 C 235.489 251.902,241.902 254.580,247.000 255.910 C 251.893 257.186,253.400 257.356,259.800 257.351 C 266.343 257.346,267.850 257.166,274.000 255.653 C 275.744 255.225,281.922 252.845,283.000 252.186 C 283.440 251.918,284.855 251.131,286.144 250.438 C 297.733 244.211,307.394 231.365,310.840 217.600 C 311.993 212.994,311.950 212.800,309.777 212.800 C 306.270 212.800,301.575 211.496,296.625 209.147 C 295.759 208.736,294.814 208.400,294.525 208.400 C 294.236 208.400,294.000 208.220,294.000 208.000 C 294.000 207.780,293.676 207.600,293.280 207.600 C 292.884 207.600,292.389 207.450,292.180 207.266 C 291.281 206.476,285.975 204.964,282.600 204.536 C 278.394 204.002,269.449 204.473,268.966 205.254 C 268.849 205.445,268.335 205.600,267.825 205.600 C 266.852 205.600,265.135 206.224,261.800 207.789 C 258.241 209.460,253.931 211.200,253.353 211.200 C 253.043 211.200,252.477 211.361,252.095 211.557 C 250.677 212.285,246.414 212.800,241.800 212.800 C 237.186 212.800,232.923 212.285,231.505 211.557 C 231.123 211.361,230.459 211.200,230.029 211.200 C 229.599 211.200,229.136 211.020,229.000 210.800 C 228.864 210.580,228.491 210.400,228.172 210.400 C 227.852 210.400,226.287 209.793,224.695 209.050 C 218.021 205.939,215.189 205.014,211.134 204.621 C 209.888 204.500,208.601 204.299,208.274 204.173 C 207.948 204.048,207.554 204.150,207.399 204.401 M281.661 209.603 C 287.152 210.232,292.629 212.305,291.197 213.211 C 286.302 216.306,271.993 216.293,263.200 213.186 C 256.853 210.943,270.404 208.313,281.661 209.603 M263.818 220.582 C 266.341 223.104,263.407 227.204,260.274 225.535 C 258.354 224.512,257.845 222.507,259.109 220.948 C 260.418 219.335,262.416 219.180,263.818 220.582 M288.000 223.314 C 295.016 225.829,293.657 234.800,286.260 234.800 C 279.797 234.800,278.566 225.061,284.803 223.273 C 286.640 222.746,286.407 222.743,288.000 223.314 M50.745 259.458 C 44.202 260.614,40.457 268.572,43.413 275.038 C 47.587 284.170,64.131 283.136,66.973 273.565 C 69.739 264.254,61.946 257.480,50.745 259.458 M42.000 339.000 L 42.000 361.600 54.520 361.600 C 61.473 361.600,67.209 361.439,67.420 361.237 C 67.629 361.037,68.700 360.788,69.800 360.684 C 72.963 360.383,78.331 358.482,78.733 357.519 C 78.807 357.343,79.108 357.200,79.403 357.200 C 81.024 357.200,86.051 350.690,87.589 346.600 C 91.120 337.203,87.310 325.562,79.000 320.358 C 73.572 316.959,70.179 316.412,54.500 316.405 L 42.000 316.400 42.000 339.000 M191.400 325.185 C 190.960 325.382,190.079 325.556,189.442 325.572 C 182.355 325.744,175.442 334.451,175.447 343.200 C 175.452 352.464,179.201 357.857,188.000 361.259 C 189.908 361.996,199.289 361.997,201.200 361.260 C 219.249 354.298,217.965 328.776,199.400 325.485 C 196.313 324.938,192.287 324.787,191.400 325.185 M322.200 325.200 C 321.760 325.389,320.857 325.556,320.194 325.572 C 316.107 325.667,311.277 328.860,309.686 332.519 C 309.051 333.981,309.060 339.360,309.700 340.505 C 311.748 344.169,314.252 345.968,319.600 347.613 C 324.149 349.013,325.323 350.263,324.641 352.980 C 323.865 356.071,316.909 355.038,312.828 351.226 C 311.214 349.718,311.370 349.699,310.578 351.500 C 309.036 355.007,307.829 358.368,308.042 358.561 C 308.545 359.016,314.697 360.800,315.766 360.800 C 316.466 360.800,317.246 361.006,317.498 361.258 C 318.202 361.962,331.796 361.958,333.600 361.253 C 340.328 358.625,342.576 355.856,342.573 350.201 C 342.569 343.807,340.039 341.027,332.386 339.007 C 326.594 337.479,324.597 335.403,326.800 333.200 C 328.284 331.716,334.844 332.773,336.400 334.746 C 337.501 336.142,337.902 336.008,338.911 333.907 C 341.096 329.356,341.600 328.238,341.600 327.938 C 341.600 327.373,335.003 325.600,332.903 325.600 C 331.772 325.600,330.736 325.420,330.600 325.200 C 330.300 324.715,323.329 324.715,322.200 325.200 M115.296 343.500 L 115.400 361.400 124.200 361.400 L 133.000 361.400 133.224 352.600 C 133.451 343.667,133.540 343.051,134.892 341.100 C 135.778 339.821,136.351 339.731,137.425 340.700 C 139.065 342.181,140.482 342.600,143.832 342.594 C 148.143 342.587,149.419 341.692,151.661 337.105 C 153.903 332.517,149.044 325.600,143.578 325.600 C 140.388 325.600,134.400 329.682,134.400 331.856 C 134.400 332.155,134.130 332.400,133.800 332.400 C 133.314 332.400,133.200 331.756,133.200 329.000 L 133.200 325.600 124.196 325.600 L 115.192 325.600 115.296 343.500 M241.297 348.500 L 241.400 371.400 250.300 371.508 L 259.200 371.615 259.200 365.761 L 259.200 359.907 260.100 360.191 C 260.595 360.347,261.540 360.560,262.200 360.665 C 262.860 360.769,263.782 361.040,264.248 361.267 C 267.217 362.711,274.974 360.189,278.475 356.642 C 291.571 343.373,278.283 319.253,262.229 327.156 C 259.108 328.692,259.200 328.697,259.200 327.000 L 259.200 325.600 250.197 325.600 L 241.193 325.600 241.297 348.500 M66.930 333.951 C 71.764 337.137,69.095 344.800,63.151 344.800 L 61.600 344.800 61.600 339.000 L 61.600 333.200 63.700 333.203 C 65.074 333.204,66.191 333.463,66.930 333.951 M197.117 339.427 C 198.626 340.484,199.344 342.720,198.754 344.524 C 197.159 349.404,190.400 348.333,190.400 343.200 C 190.400 339.586,194.253 337.421,197.117 339.427 M265.140 340.536 C 268.698 344.324,265.561 350.274,260.764 348.836 L 259.200 348.368 259.200 344.607 C 259.200 341.173,259.278 340.791,260.089 340.223 C 261.473 339.253,264.087 339.416,265.140 340.536 M398.662 398.731 C 397.757 399.732,397.829 400.000,399.000 400.000 C 399.800 400.000,400.000 399.800,400.000 399.000 C 400.000 397.815,399.570 397.728,398.662 398.731 " stroke="none" fill="#3c4474" fill-rule="evenodd"></path><path id="path1" d="M0.000 199.429 C 0.000 371.733,0.078 398.935,0.571 399.429 C 1.065 399.922,28.082 400.000,199.185 400.000 L 397.227 400.000 398.613 398.613 L 400.000 397.227 400.000 199.735 L 400.000 2.244 398.925 1.122 L 397.850 0.000 198.925 0.000 L 0.000 0.000 0.000 199.429 M341.600 86.936 C 348.223 87.093,350.503 87.851,353.798 90.992 C 358.373 95.354,358.600 96.441,358.600 114.000 L 358.600 128.600 264.424 128.701 C 189.347 128.781,170.184 128.700,169.930 128.301 C 169.755 128.025,169.609 127.410,169.606 126.933 C 169.589 124.497,166.608 120.135,163.754 118.372 C 159.762 115.905,161.258 116.000,126.600 116.000 C 92.354 116.000,95.130 116.148,89.860 114.044 C 80.774 110.418,80.121 93.866,88.889 89.440 C 89.610 89.076,90.470 88.631,90.800 88.451 C 94.333 86.527,90.105 86.583,222.400 86.699 C 284.770 86.754,338.410 86.860,341.600 86.936 M62.983 90.784 C 72.843 95.668,71.797 109.546,61.338 112.598 C 58.284 113.490,28.220 113.474,25.652 112.580 C 18.233 109.996,15.134 102.838,18.500 96.064 C 19.462 94.128,22.916 90.800,23.963 90.800 C 24.335 90.800,24.811 90.632,25.020 90.427 C 25.670 89.788,28.105 89.706,44.800 89.754 L 61.000 89.802 62.983 90.784 M194.675 106.322 C 193.379 107.674,193.152 110.695,194.262 111.805 C 196.541 114.084,200.202 113.225,201.208 110.176 C 202.428 106.480,197.378 103.501,194.675 106.322 M217.738 105.728 C 216.714 106.238,215.797 108.736,216.137 110.091 C 217.291 114.691,223.702 113.927,223.770 109.181 C 223.817 105.928,220.802 104.201,217.738 105.728 M302.635 106.364 C 300.762 108.319,301.142 111.502,303.375 112.561 C 304.928 113.298,334.269 113.534,336.136 112.825 C 339.002 111.735,339.711 108.572,337.569 106.431 L 336.338 105.200 320.044 105.200 L 303.750 105.200 302.635 106.364 M358.360 134.552 C 359.143 135.496,358.767 272.569,357.975 274.400 C 356.376 278.103,353.391 281.596,350.758 282.844 C 350.011 283.198,348.878 283.738,348.239 284.044 C 346.523 284.866,87.119 284.880,85.361 284.058 C 81.713 282.353,80.578 281.618,78.958 279.911 C 72.394 272.993,74.452 261.551,83.000 257.438 C 86.930 255.547,85.335 255.600,138.704 255.600 C 198.234 255.600,194.685 255.873,199.482 250.931 C 201.033 249.332,201.473 248.598,202.744 245.481 C 204.590 240.953,200.221 230.400,196.500 230.400 C 196.225 230.400,196.000 230.260,196.000 230.089 C 196.000 228.517,192.856 228.400,150.709 228.400 C 107.942 228.400,105.640 228.315,101.759 226.599 C 99.292 225.508,96.089 222.662,95.156 220.732 C 94.802 220.000,94.262 218.878,93.956 218.239 C 91.938 214.025,94.020 206.556,98.225 202.926 C 102.529 199.209,104.928 198.820,123.625 198.809 L 137.450 198.800 139.625 197.753 C 150.199 192.664,150.185 179.159,139.600 173.553 L 137.800 172.600 93.200 172.400 C 68.670 172.290,48.240 172.048,47.800 171.863 C 33.290 165.748,33.413 148.447,48.000 143.746 C 48.550 143.569,73.750 143.329,104.000 143.212 C 149.792 143.035,159.201 142.907,160.200 142.444 C 160.860 142.138,162.009 141.623,162.753 141.300 C 164.142 140.696,168.000 137.155,168.000 136.483 C 168.000 136.277,168.373 135.634,168.829 135.054 L 169.658 134.000 263.780 134.000 C 343.286 134.000,357.973 134.086,358.360 134.552 M251.000 151.273 C 250.120 151.477,248.140 151.920,246.600 152.257 C 245.060 152.594,243.440 153.016,243.000 153.194 C 242.560 153.373,241.570 153.735,240.800 153.998 C 230.753 157.433,218.027 167.943,213.371 176.650 C 212.915 177.502,212.091 179.010,211.539 180.000 C 210.987 180.990,210.205 182.700,209.802 183.800 C 209.398 184.900,208.918 185.971,208.734 186.180 C 208.550 186.389,208.400 186.963,208.400 187.456 C 208.400 187.949,208.241 188.451,208.046 188.571 C 207.851 188.692,207.598 189.287,207.483 189.895 C 207.368 190.503,206.899 192.980,206.442 195.400 C 204.938 203.358,205.687 215.810,208.006 221.400 C 208.189 221.840,208.660 223.100,209.053 224.200 C 210.769 228.996,214.765 235.716,218.567 240.197 C 221.236 243.345,225.673 247.479,227.700 248.706 C 228.305 249.073,228.800 249.514,228.800 249.686 C 228.800 249.859,228.977 250.000,229.192 250.000 C 229.408 250.000,230.533 250.603,231.692 251.341 C 232.852 252.078,235.150 253.315,236.800 254.089 C 241.775 256.422,243.507 256.932,253.000 258.864 C 257.062 259.690,268.190 258.907,273.800 257.399 C 275.120 257.044,276.608 256.653,277.106 256.529 C 277.604 256.406,278.110 256.146,278.230 255.952 C 278.349 255.759,278.696 255.600,279.000 255.600 C 279.984 255.600,286.113 252.524,289.400 250.381 C 301.960 242.192,310.112 229.990,313.308 214.600 C 313.789 212.283,313.900 198.658,313.459 196.000 C 312.959 192.980,311.182 186.779,310.154 184.465 C 302.511 167.259,288.853 155.647,272.000 152.027 C 270.790 151.767,269.032 151.385,268.094 151.177 C 265.950 150.703,253.145 150.775,251.000 151.273 M74.009 202.157 C 83.139 204.341,86.427 214.655,80.193 221.555 C 79.376 222.460,78.458 223.200,78.153 223.200 C 77.849 223.200,77.600 223.336,77.600 223.502 C 77.600 224.888,75.454 225.000,48.972 225.000 L 22.944 225.000 21.096 224.050 C 11.002 218.857,13.268 203.095,24.232 202.231 C 25.229 202.152,26.155 201.978,26.289 201.844 C 26.820 201.313,71.713 201.608,74.009 202.157 M211.567 204.015 C 214.638 204.500,216.896 205.084,218.660 205.852 C 219.354 206.153,220.032 206.400,220.169 206.400 C 220.305 206.400,221.939 207.120,223.800 208.000 C 225.661 208.880,227.295 209.600,227.431 209.600 C 227.568 209.600,228.246 209.847,228.940 210.148 C 235.363 212.942,248.909 213.056,254.095 210.361 C 254.477 210.162,254.959 210.000,255.167 210.000 C 255.374 210.000,256.682 209.478,258.072 208.841 C 262.528 206.798,266.468 205.200,267.047 205.200 C 267.357 205.200,267.923 205.039,268.305 204.842 C 272.108 202.884,284.919 203.466,290.260 205.840 C 290.954 206.148,291.612 206.400,291.723 206.400 C 291.835 206.400,293.608 207.177,295.663 208.128 C 301.632 210.887,307.097 212.400,311.099 212.400 C 312.313 212.400,312.344 212.444,312.149 213.900 C 311.810 216.439,310.717 220.979,310.349 221.380 C 310.157 221.589,310.000 222.086,310.000 222.485 C 310.000 222.884,309.841 223.523,309.648 223.905 C 309.454 224.287,308.610 226.040,307.772 227.800 C 304.122 235.466,292.741 248.800,289.848 248.800 C 289.717 248.800,289.264 249.096,288.841 249.457 C 287.263 250.809,281.965 253.384,276.200 255.601 C 270.693 257.719,258.230 258.727,251.773 257.577 C 246.608 256.657,243.647 255.843,241.505 254.753 C 241.123 254.559,240.608 254.400,240.360 254.400 C 239.741 254.400,232.749 250.876,231.969 250.171 C 231.621 249.857,231.154 249.600,230.930 249.600 C 230.707 249.600,230.198 249.240,229.800 248.800 C 229.402 248.360,228.894 248.000,228.672 248.000 C 227.155 248.000,215.200 235.365,215.200 233.761 C 215.200 233.597,214.944 233.179,214.631 232.831 C 213.716 231.816,211.031 226.437,209.923 223.400 C 208.029 218.208,207.293 214.903,206.794 209.342 C 206.231 203.084,206.161 203.162,211.567 204.015 M267.300 210.267 C 266.145 210.363,265.200 210.612,265.200 210.821 C 265.200 211.029,264.737 211.200,264.171 211.200 C 260.498 211.200,262.444 212.490,268.400 214.004 C 274.576 215.574,284.332 215.182,289.523 213.157 C 290.641 212.720,290.316 212.000,289.000 212.000 C 288.476 212.000,287.936 211.820,287.800 211.600 C 287.664 211.380,287.149 211.200,286.656 211.200 C 286.163 211.200,285.559 210.999,285.314 210.754 C 284.852 210.292,271.379 209.928,267.300 210.267 M259.468 221.592 C 258.359 223.470,259.477 225.182,261.820 225.194 C 263.417 225.202,264.000 224.562,264.000 222.800 C 264.000 220.105,260.844 219.264,259.468 221.592 M285.930 223.651 C 285.639 223.836,285.056 223.991,284.636 223.994 C 282.751 224.009,280.907 227.633,281.436 230.281 C 282.664 236.420,292.000 235.147,292.000 228.841 C 292.000 226.014,287.829 222.448,285.930 223.651 M59.354 258.875 C 65.711 260.710,69.736 267.529,67.780 273.148 C 66.544 276.696,63.004 280.800,61.180 280.800 C 60.777 280.800,60.336 280.980,60.200 281.200 C 59.610 282.155,50.458 281.671,48.258 280.568 C 34.349 273.596,44.126 254.481,59.354 258.875 M70.200 316.400 C 70.336 316.620,70.955 316.800,71.575 316.800 C 75.673 316.800,83.839 322.415,86.144 326.818 C 86.427 327.358,86.849 328.160,87.082 328.600 C 92.873 339.518,88.202 353.750,77.029 359.236 C 75.725 359.876,74.341 360.400,73.953 360.400 C 73.565 360.400,73.155 360.550,73.041 360.733 C 72.522 361.574,64.577 362.053,53.200 361.929 L 41.400 361.800 41.297 338.900 L 41.193 316.000 55.573 316.000 C 64.728 316.000,70.043 316.145,70.200 316.400 M199.154 324.843 C 210.839 326.797,218.056 339.919,213.352 350.660 C 213.048 351.354,212.800 352.041,212.800 352.188 C 212.800 353.948,207.760 358.824,204.001 360.701 L 201.000 362.200 194.600 362.200 L 188.200 362.200 185.400 360.822 C 182.289 359.291,177.844 355.166,176.756 352.800 C 176.402 352.030,175.862 350.878,175.556 350.239 C 174.859 348.784,174.776 338.601,175.449 337.161 C 177.180 333.460,177.797 332.406,179.114 330.896 C 180.737 329.035,185.023 326.003,186.033 326.001 C 186.382 326.001,186.799 325.865,186.961 325.700 C 188.030 324.611,194.885 324.129,199.154 324.843 M333.400 325.003 C 338.638 325.839,339.585 326.052,339.829 326.446 C 339.949 326.641,340.375 326.800,340.775 326.800 C 342.014 326.800,342.417 327.676,341.790 329.010 C 341.483 329.665,340.595 331.595,339.817 333.300 C 338.342 336.531,337.868 336.879,336.575 335.682 C 335.342 334.539,332.079 333.111,330.222 332.901 C 325.451 332.364,325.433 336.139,330.200 337.606 C 331.080 337.877,332.113 338.256,332.495 338.449 C 332.877 338.642,333.466 338.800,333.803 338.800 C 335.125 338.800,339.474 341.135,340.572 342.433 C 345.799 348.620,343.465 357.520,335.671 361.118 C 331.717 362.944,317.358 362.743,312.600 360.795 C 312.160 360.614,310.931 360.228,309.869 359.937 C 306.968 359.141,306.949 359.027,308.881 353.990 C 310.867 348.812,311.069 348.643,312.985 350.558 C 317.280 354.854,324.365 355.610,324.394 351.776 C 324.404 350.368,323.506 349.649,320.400 348.578 C 311.689 345.574,308.947 343.016,308.508 337.484 C 307.727 327.649,317.930 322.533,333.400 325.003 M133.600 328.489 C 133.600 331.713,133.614 331.758,134.285 330.789 C 138.563 324.618,145.098 323.257,149.730 327.574 C 153.676 331.251,153.337 338.297,149.047 341.769 C 146.688 343.678,140.578 343.638,137.875 341.696 L 136.059 340.393 135.287 341.496 C 134.072 343.231,133.903 344.455,133.643 353.400 L 133.400 361.800 124.200 361.800 L 115.000 361.800 114.896 343.500 L 114.792 325.200 124.196 325.200 L 133.600 325.200 133.600 328.489 M259.600 326.662 C 259.600 328.008,259.655 328.078,260.300 327.545 C 260.685 327.226,261.540 326.727,262.200 326.436 C 262.860 326.145,263.713 325.748,264.095 325.553 C 265.138 325.022,271.202 325.140,272.800 325.722 C 282.320 329.190,287.154 341.065,282.952 350.660 C 282.648 351.354,282.400 352.052,282.400 352.213 C 282.400 352.792,279.441 356.627,278.089 357.800 C 273.335 361.924,265.035 363.314,260.311 360.777 C 259.676 360.436,259.613 360.855,259.511 366.103 L 259.400 371.800 250.200 371.800 L 241.000 371.800 240.897 348.500 L 240.794 325.200 250.197 325.200 L 259.600 325.200 259.600 326.662 M62.000 338.944 C 62.000 344.337,62.010 344.400,62.900 344.394 C 70.139 344.346,71.153 334.573,64.007 333.726 L 62.000 333.489 62.000 338.944 M192.300 340.046 C 190.622 341.298,190.659 345.161,192.362 346.373 C 195.409 348.543,198.686 346.090,198.097 342.080 C 197.716 339.482,194.546 338.370,192.300 340.046 M260.800 340.517 C 259.867 340.987,259.792 341.249,259.686 344.425 L 259.571 347.829 261.032 348.357 C 262.250 348.797,262.668 348.795,263.547 348.343 C 265.437 347.369,265.726 346.844,265.761 344.327 C 265.809 340.777,263.618 339.094,260.800 340.517 " stroke="none" fill="#fbfbfb" fill-rule="evenodd"></path><path id="path2" d="M102.200 86.799 C 98.460 86.910,129.600 87.059,171.400 87.130 C 213.200 87.202,247.792 87.112,248.272 86.930 C 249.198 86.579,113.737 86.458,102.200 86.799 M273.531 87.100 C 286.803 87.158,308.403 87.158,321.531 87.100 C 334.659 87.041,323.800 86.994,297.400 86.994 C 271.000 86.994,260.259 87.041,273.531 87.100 M346.433 87.344 C 346.525 87.423,347.140 87.608,347.800 87.756 C 348.676 87.952,348.838 87.915,348.400 87.618 C 347.860 87.253,346.032 86.998,346.433 87.344 M90.400 88.600 C 90.126 88.930,89.665 89.200,89.375 89.200 C 89.085 89.200,88.737 89.378,88.603 89.595 C 88.457 89.832,88.648 89.885,89.079 89.727 C 90.045 89.374,91.814 88.000,91.303 88.000 C 91.080 88.000,90.674 88.270,90.400 88.600 M351.600 89.564 C 352.150 90.014,352.780 90.383,353.000 90.385 C 353.428 90.388,352.705 89.834,351.400 89.160 C 350.869 88.885,350.936 89.021,351.600 89.564 M35.900 89.899 C 40.135 89.964,47.065 89.964,51.300 89.899 C 55.535 89.835,52.070 89.782,43.600 89.782 C 35.130 89.782,31.665 89.835,35.900 89.899 M60.033 90.144 C 60.125 90.223,60.740 90.408,61.400 90.556 C 62.276 90.752,62.438 90.715,62.000 90.418 C 61.460 90.053,59.632 89.798,60.033 90.144 M86.378 91.500 L 85.000 93.000 86.500 91.622 C 87.896 90.338,88.184 90.000,87.878 90.000 C 87.812 90.000,87.137 90.675,86.378 91.500 M20.581 93.300 L 19.000 95.000 20.700 93.419 C 22.281 91.948,22.584 91.600,22.281 91.600 C 22.216 91.600,21.451 92.365,20.581 93.300 M66.839 94.000 C 67.563 94.990,68.210 95.875,68.277 95.967 C 68.345 96.058,68.397 95.968,68.394 95.767 C 68.391 95.565,67.744 94.680,66.956 93.800 L 65.524 92.200 66.839 94.000 M358.093 99.200 C 358.093 99.970,358.175 100.285,358.276 99.900 C 358.376 99.515,358.376 98.885,358.276 98.500 C 358.175 98.115,358.093 98.430,358.093 99.200 M69.714 101.400 C 69.717 102.500,69.795 102.903,69.887 102.295 C 69.979 101.686,69.977 100.786,69.882 100.295 C 69.787 99.803,69.711 100.300,69.714 101.400 M358.400 114.880 C 358.290 122.515,358.337 128.623,358.505 128.455 C 358.673 128.287,358.763 122.041,358.705 114.575 L 358.599 101.000 358.400 114.880 M312.300 105.099 C 316.535 105.164,323.465 105.164,327.700 105.099 C 331.935 105.035,328.470 104.982,320.000 104.982 C 311.530 104.982,308.065 105.035,312.300 105.099 M194.249 106.349 C 193.318 107.321,193.173 107.766,193.305 109.249 L 193.460 111.000 193.530 109.222 C 193.582 107.897,193.874 107.158,194.675 106.322 C 195.266 105.705,195.660 105.200,195.550 105.200 C 195.440 105.200,194.855 105.717,194.249 106.349 M199.926 106.312 C 200.516 106.924,201.076 107.374,201.168 107.311 C 201.399 107.155,199.535 105.200,199.156 105.200 C 198.988 105.200,199.335 105.701,199.926 106.312 M302.238 106.360 C 301.557 107.071,301.200 107.808,301.317 108.260 C 301.494 108.949,301.510 108.946,301.554 108.222 C 301.579 107.794,302.084 106.939,302.675 106.322 C 303.266 105.705,303.660 105.200,303.550 105.200 C 303.440 105.200,302.849 105.722,302.238 106.360 M66.822 108.744 C 66.065 109.765,65.758 110.346,66.141 110.036 C 66.975 109.359,68.547 107.209,68.344 107.021 C 68.265 106.948,67.580 107.723,66.822 108.744 M223.777 109.292 C 223.755 111.260,223.778 111.314,224.136 110.096 C 224.366 109.312,224.375 108.470,224.159 107.988 C 223.889 107.383,223.794 107.704,223.777 109.292 M20.400 109.347 C 21.170 110.182,22.160 111.055,22.600 111.287 C 23.040 111.519,23.310 111.625,23.200 111.522 C 20.642 109.143,19.128 107.967,20.400 109.347 M85.200 110.125 C 85.200 110.194,85.785 110.779,86.500 111.425 L 87.800 112.600 86.625 111.300 C 85.530 110.088,85.200 109.816,85.200 110.125 M63.400 111.410 C 62.520 111.952,61.959 112.397,62.153 112.398 C 62.563 112.400,65.200 110.816,65.200 110.567 C 65.200 110.313,65.121 110.351,63.400 111.410 M337.670 111.794 C 336.328 113.210,335.736 113.252,318.937 113.120 C 310.543 113.054,303.883 113.132,304.137 113.294 C 304.392 113.456,311.503 113.591,319.940 113.594 C 336.333 113.600,337.392 113.483,338.428 111.548 C 338.957 110.559,338.790 110.613,337.670 111.794 M26.538 112.894 C 27.118 113.263,59.553 113.242,60.486 112.872 C 60.863 112.722,53.275 112.600,43.624 112.600 C 33.973 112.600,26.285 112.732,26.538 112.894 M88.000 112.685 C 88.000 113.034,89.599 114.138,89.800 113.928 C 89.867 113.857,89.489 113.477,88.961 113.081 C 88.432 112.686,88.000 112.508,88.000 112.685 M196.356 113.345 C 196.803 113.545,197.607 113.529,198.264 113.308 C 199.286 112.964,199.209 112.929,197.491 112.963 C 196.070 112.990,195.780 113.088,196.356 113.345 M218.931 113.310 C 219.556 113.519,220.444 113.519,221.069 113.310 C 221.962 113.013,221.785 112.954,220.000 112.954 C 218.215 112.954,218.038 113.013,218.931 113.310 M94.137 115.694 C 94.392 115.856,97.840 115.960,101.800 115.927 C 109.994 115.857,109.166 115.672,99.937 115.510 C 96.492 115.449,93.882 115.532,94.137 115.694 M150.512 115.895 C 151.564 115.977,153.184 115.976,154.112 115.892 C 155.040 115.808,154.180 115.741,152.200 115.742 C 150.220 115.743,149.460 115.812,150.512 115.895 M159.600 116.451 C 162.684 117.777,163.200 117.971,163.200 117.804 C 163.200 117.492,161.062 116.525,159.800 116.267 C 158.655 116.033,158.646 116.041,159.600 116.451 M163.600 118.078 C 166.158 120.457,167.672 121.633,166.400 120.253 C 165.630 119.418,164.640 118.545,164.200 118.313 C 163.760 118.081,163.490 117.975,163.600 118.078 M168.867 124.420 C 169.101 125.092,169.367 125.567,169.457 125.476 C 169.656 125.278,168.901 123.200,168.631 123.200 C 168.527 123.200,168.633 123.749,168.867 124.420 M169.654 126.667 C 169.584 127.794,169.978 128.800,170.492 128.800 C 170.764 128.800,170.763 128.635,170.487 128.300 C 170.261 128.025,169.994 127.350,169.893 126.800 C 169.733 125.929,169.702 125.912,169.654 126.667 M169.113 134.700 C 168.414 135.501,167.486 137.200,167.746 137.200 C 167.842 137.200,168.293 136.570,168.747 135.799 L 169.574 134.398 263.887 134.499 L 358.200 134.600 358.402 202.600 L 358.603 270.600 358.702 202.780 C 358.778 150.455,358.690 134.850,358.320 134.480 C 357.427 133.587,169.894 133.805,169.113 134.700 M166.034 138.953 L 165.069 140.200 166.213 139.112 C 166.843 138.514,167.277 137.953,167.179 137.865 C 167.080 137.777,166.565 138.267,166.034 138.953 M64.530 143.500 C 72.851 143.560,86.351 143.560,94.530 143.500 C 102.708 143.439,95.900 143.390,79.400 143.390 C 62.900 143.390,56.208 143.439,64.530 143.500 M41.375 147.700 L 40.200 149.000 41.500 147.825 C 42.215 147.179,42.800 146.594,42.800 146.525 C 42.800 146.216,42.470 146.488,41.375 147.700 M39.079 150.374 C 38.706 151.006,38.401 151.676,38.401 151.862 C 38.402 152.048,38.772 151.595,39.223 150.855 C 39.674 150.115,39.979 149.446,39.901 149.367 C 39.822 149.289,39.452 149.742,39.079 150.374 M255.900 150.689 C 256.615 150.778,257.785 150.778,258.500 150.689 C 259.215 150.601,258.630 150.528,257.200 150.528 C 255.770 150.528,255.185 150.601,255.900 150.689 M261.100 150.689 C 261.815 150.778,262.985 150.778,263.700 150.689 C 264.415 150.601,263.830 150.528,262.400 150.528 C 260.970 150.528,260.385 150.601,261.100 150.689 M250.000 151.200 C 248.633 151.488,248.628 151.495,249.800 151.519 C 250.460 151.533,251.360 151.389,251.800 151.200 C 252.762 150.787,251.964 150.787,250.000 151.200 M267.800 151.197 C 268.564 151.528,271.514 151.755,271.167 151.456 C 271.075 151.377,270.100 151.209,269.000 151.082 C 267.713 150.933,267.285 150.974,267.800 151.197 M244.800 152.418 C 244.362 152.715,244.524 152.752,245.400 152.556 C 246.871 152.227,247.190 151.998,246.167 152.006 C 245.745 152.009,245.130 152.195,244.800 152.418 M272.833 152.144 C 272.925 152.223,273.540 152.408,274.200 152.556 C 275.076 152.752,275.238 152.715,274.800 152.418 C 274.260 152.053,272.432 151.798,272.833 152.144 M36.975 156.628 C 36.824 157.634,36.863 159.023,37.061 159.715 C 37.353 160.733,37.422 160.384,37.422 157.887 C 37.422 154.314,37.352 154.115,36.975 156.628 M287.000 157.807 C 287.440 158.166,288.160 158.635,288.600 158.851 L 289.400 159.244 288.600 158.593 C 288.160 158.234,287.440 157.765,287.000 157.549 L 286.200 157.156 287.000 157.807 M225.800 162.239 C 224.573 163.334,224.488 163.477,225.436 162.852 C 226.552 162.116,227.920 160.791,227.549 160.806 C 227.467 160.809,226.680 161.454,225.800 162.239 M292.000 160.933 C 292.000 161.043,292.720 161.703,293.600 162.400 C 294.480 163.097,295.200 163.577,295.200 163.467 C 295.200 163.357,294.480 162.697,293.600 162.000 C 292.720 161.303,292.000 160.823,292.000 160.933 M38.760 164.600 C 39.434 165.905,39.988 166.628,39.985 166.200 C 39.983 165.980,39.614 165.350,39.164 164.800 C 38.621 164.136,38.485 164.069,38.760 164.600 M220.981 166.500 L 219.400 168.200 221.100 166.619 C 222.681 165.148,222.984 164.800,222.681 164.800 C 222.616 164.800,221.851 165.565,220.981 166.500 M298.222 166.425 C 299.090 167.429,299.881 168.188,299.980 168.112 C 300.080 168.035,299.370 167.214,298.403 166.286 L 296.644 164.600 298.222 166.425 M40.400 166.925 C 40.400 166.994,40.985 167.579,41.700 168.225 L 43.000 169.400 41.825 168.100 C 40.730 166.888,40.400 166.616,40.400 166.925 M58.600 172.290 C 78.263 172.540,137.572 172.578,136.725 172.340 C 136.216 172.197,116.540 172.103,93.000 172.131 C 69.460 172.160,53.980 172.231,58.600 172.290 M138.433 172.949 C 138.845 173.317,141.200 174.400,141.200 174.221 C 141.200 173.990,138.982 172.800,138.553 172.800 C 138.396 172.800,138.342 172.867,138.433 172.949 M146.125 179.800 C 146.434 180.460,146.812 181.516,146.963 182.147 C 147.115 182.778,147.315 183.218,147.409 183.125 C 147.699 182.834,146.839 180.202,146.184 179.382 C 145.612 178.664,145.607 178.698,146.125 179.800 M208.867 185.180 C 208.633 185.851,208.527 186.400,208.631 186.400 C 208.901 186.400,209.656 184.322,209.457 184.124 C 209.367 184.033,209.101 184.508,208.867 185.180 M207.029 190.629 C 206.881 191.215,206.838 191.772,206.932 191.866 C 207.027 191.960,207.224 191.558,207.371 190.971 C 207.519 190.385,207.562 189.828,207.468 189.734 C 207.373 189.640,207.176 190.042,207.029 190.629 M312.406 191.433 C 312.409 191.855,312.595 192.470,312.818 192.800 C 313.115 193.238,313.152 193.076,312.956 192.200 C 312.627 190.729,312.398 190.410,312.406 191.433 M143.487 194.950 C 142.655 195.806,142.036 196.570,142.113 196.646 C 142.189 196.723,142.949 196.072,143.800 195.200 C 144.651 194.328,145.270 193.565,145.174 193.504 C 145.078 193.443,144.319 194.094,143.487 194.950 M206.093 195.600 C 206.093 196.370,206.175 196.685,206.276 196.300 C 206.376 195.915,206.376 195.285,206.276 194.900 C 206.175 194.515,206.093 194.830,206.093 195.600 M313.268 195.600 C 313.262 196.150,313.411 196.960,313.600 197.400 L 313.944 198.200 313.932 197.400 C 313.926 196.960,313.776 196.150,313.600 195.600 L 313.280 194.600 313.268 195.600 M139.901 197.565 C 137.824 198.535,137.446 199.031,139.400 198.221 C 140.280 197.857,141.171 197.388,141.380 197.179 C 141.880 196.680,141.687 196.731,139.901 197.565 M107.400 199.157 C 105.848 199.393,131.387 199.302,134.600 199.060 C 135.480 198.994,130.080 198.934,122.600 198.927 C 115.120 198.919,108.280 199.023,107.400 199.157 M205.355 205.000 C 205.356 207.860,205.420 208.978,205.497 207.483 C 205.574 205.989,205.574 203.649,205.496 202.283 C 205.418 200.918,205.355 202.140,205.355 205.000 M314.137 204.200 C 314.139 205.960,314.209 206.630,314.293 205.689 C 314.378 204.749,314.377 203.309,314.291 202.489 C 314.205 201.670,314.136 202.440,314.137 204.200 M26.262 201.900 C 26.160 202.065,36.871 202.200,50.063 202.200 C 63.256 202.200,73.634 202.083,73.125 201.940 C 71.821 201.573,26.488 201.535,26.262 201.900 M96.851 204.191 C 95.943 205.176,95.200 206.106,95.200 206.258 C 95.200 206.409,95.259 206.458,95.332 206.367 C 95.404 206.275,96.237 205.345,97.183 204.300 C 98.128 203.255,98.812 202.400,98.702 202.400 C 98.592 202.400,97.759 203.206,96.851 204.191 M19.400 204.000 C 18.740 204.437,18.380 204.792,18.600 204.788 C 19.001 204.782,21.176 203.223,20.800 203.212 C 20.690 203.208,20.060 203.563,19.400 204.000 M78.285 204.185 C 78.992 204.762,80.136 205.902,80.827 206.717 C 81.518 207.533,81.895 207.827,81.665 207.371 C 81.140 206.328,78.857 204.062,77.800 203.534 C 77.360 203.315,77.578 203.608,78.285 204.185 M207.500 203.882 C 207.995 203.978,208.805 203.978,209.300 203.882 C 209.795 203.787,209.390 203.709,208.400 203.709 C 207.410 203.709,207.005 203.787,207.500 203.882 M275.715 203.896 C 276.988 203.976,278.968 203.975,280.115 203.894 C 281.262 203.814,280.220 203.749,277.800 203.750 C 275.380 203.751,274.442 203.816,275.715 203.896 M206.493 205.600 C 206.493 206.370,206.575 206.685,206.676 206.300 C 206.776 205.915,206.776 205.285,206.676 204.900 C 206.575 204.515,206.493 204.830,206.493 205.600 M213.233 204.543 C 213.325 204.621,214.030 204.801,214.800 204.942 C 215.785 205.123,216.022 205.082,215.600 204.806 C 215.058 204.450,212.837 204.203,213.233 204.543 M268.252 204.716 C 268.144 204.890,268.673 204.961,269.428 204.873 C 270.183 204.785,270.800 204.642,270.800 204.556 C 270.800 204.255,268.445 204.403,268.252 204.716 M284.833 204.543 C 284.925 204.621,285.630 204.801,286.400 204.942 C 287.385 205.123,287.622 205.082,287.200 204.806 C 286.658 204.450,284.437 204.203,284.833 204.543 M292.400 207.000 C 292.950 207.314,293.580 207.572,293.800 207.572 C 294.020 207.572,293.750 207.314,293.200 207.000 C 292.650 206.686,292.020 206.428,291.800 206.428 C 291.580 206.428,291.850 206.686,292.400 207.000 M227.200 209.734 C 227.200 209.837,227.781 210.124,228.491 210.372 C 229.201 210.619,229.606 210.657,229.391 210.456 C 228.935 210.029,227.200 209.458,227.200 209.734 M268.479 209.940 C 267.973 210.083,271.114 210.200,275.460 210.200 C 279.806 210.200,282.830 210.086,282.181 209.947 C 280.620 209.613,269.656 209.607,268.479 209.940 M251.600 211.218 C 251.162 211.515,251.324 211.552,252.200 211.356 C 253.671 211.027,253.990 210.798,252.967 210.806 C 252.545 210.809,251.930 210.995,251.600 211.218 M301.633 210.944 C 301.725 211.023,302.340 211.208,303.000 211.356 C 303.876 211.552,304.038 211.515,303.600 211.218 C 303.060 210.853,301.232 210.598,301.633 210.944 M287.800 211.600 C 287.936 211.820,288.442 211.987,288.924 211.972 C 289.769 211.945,289.771 211.931,289.000 211.600 C 287.899 211.127,287.508 211.127,287.800 211.600 M93.320 213.600 C 93.320 214.810,93.395 215.305,93.487 214.700 C 93.578 214.095,93.578 213.105,93.487 212.500 C 93.395 211.895,93.320 212.390,93.320 213.600 M235.000 211.981 C 235.768 212.329,237.910 212.556,237.567 212.253 C 237.475 212.172,236.680 211.996,235.800 211.862 C 234.685 211.693,234.442 211.729,235.000 211.981 M247.000 212.000 C 245.922 212.274,245.902 212.306,246.800 212.313 C 247.350 212.317,248.250 212.176,248.800 212.000 C 250.144 211.569,248.692 211.569,247.000 212.000 M306.200 212.000 C 306.640 212.189,307.450 212.338,308.000 212.332 L 309.000 212.320 308.000 212.000 C 307.450 211.824,306.640 211.674,306.200 211.668 L 305.400 211.656 306.200 212.000 M207.301 213.400 C 207.305 214.280,207.387 214.593,207.483 214.095 C 207.579 213.598,207.575 212.878,207.475 212.495 C 207.375 212.113,207.296 212.520,207.301 213.400 M290.105 212.486 C 290.157 212.737,289.660 213.113,289.000 213.321 C 287.049 213.937,285.981 214.451,287.200 214.188 C 290.700 213.432,291.897 212.753,290.605 212.257 C 290.273 212.130,290.052 212.231,290.105 212.486 M313.449 213.015 C 313.312 213.373,313.218 214.056,313.241 214.533 C 313.267 215.081,313.403 214.886,313.610 214.003 C 313.960 212.516,313.865 211.933,313.449 213.015 M206.028 214.233 C 206.044 214.875,206.216 215.760,206.410 216.200 C 206.647 216.734,206.686 216.402,206.527 215.200 C 206.246 213.080,205.988 212.580,206.028 214.233 M266.033 213.743 C 266.125 213.821,266.830 214.001,267.600 214.142 C 268.585 214.323,268.822 214.282,268.400 214.006 C 267.858 213.650,265.637 213.403,266.033 213.743 M271.400 214.823 C 272.280 215.005,273.450 215.143,274.000 215.130 C 275.588 215.091,272.965 214.495,271.200 214.493 L 269.800 214.492 271.400 214.823 M281.600 214.800 C 280.196 215.250,281.663 215.265,283.800 214.823 L 285.400 214.492 284.000 214.486 C 283.230 214.483,282.150 214.624,281.600 214.800 M311.400 216.400 C 311.248 217.091,311.207 217.741,311.309 217.842 C 311.411 217.944,311.609 217.453,311.750 216.750 C 311.891 216.047,311.931 215.398,311.841 215.308 C 311.750 215.217,311.552 215.709,311.400 216.400 M312.649 217.015 C 312.512 217.373,312.415 217.966,312.434 218.333 C 312.453 218.700,312.627 218.469,312.821 217.820 C 313.198 216.558,313.065 215.933,312.649 217.015 M208.006 217.433 C 208.009 217.855,208.195 218.470,208.418 218.800 C 208.715 219.238,208.752 219.076,208.556 218.200 C 208.227 216.729,207.998 216.410,208.006 217.433 M310.800 218.903 C 310.800 218.959,310.623 219.622,310.407 220.376 C 310.191 221.129,310.168 221.578,310.355 221.373 C 310.764 220.926,311.303 218.800,311.008 218.800 C 310.893 218.800,310.800 218.846,310.800 218.903 M17.059 220.923 C 17.441 221.430,18.215 222.178,18.777 222.584 C 19.380 223.020,19.151 222.641,18.219 221.662 C 16.461 219.814,16.002 219.522,17.059 220.923 M260.900 220.276 C 261.285 220.376,261.915 220.376,262.300 220.276 C 262.685 220.175,262.370 220.093,261.600 220.093 C 260.830 220.093,260.515 220.175,260.900 220.276 M79.578 221.900 L 78.200 223.400 79.700 222.022 C 81.096 220.738,81.384 220.400,81.078 220.400 C 81.012 220.400,80.337 221.075,79.578 221.900 M263.500 220.799 C 263.775 221.108,264.000 222.008,264.000 222.800 C 264.000 223.592,263.775 224.492,263.500 224.801 C 263.075 225.278,263.104 225.282,263.700 224.832 C 264.148 224.492,264.400 223.762,264.400 222.800 C 264.400 221.838,264.148 221.108,263.700 220.768 C 263.104 220.318,263.075 220.322,263.500 220.799 M95.519 221.425 C 96.101 222.545,99.228 225.387,100.734 226.166 C 102.836 227.253,102.704 226.852,100.554 225.619 C 99.429 224.974,97.739 223.580,96.799 222.523 C 95.859 221.465,95.282 220.971,95.519 221.425 M209.798 223.165 C 210.275 224.713,211.194 226.800,211.400 226.800 C 211.614 226.800,210.049 222.707,209.717 222.400 C 209.598 222.290,209.634 222.634,209.798 223.165 M208.618 224.100 C 208.768 224.595,209.055 225.176,209.256 225.391 C 209.457 225.606,209.419 225.201,209.172 224.491 C 208.665 223.038,208.197 222.708,208.618 224.100 M290.132 225.041 C 290.719 225.628,291.200 226.265,291.200 226.455 C 291.200 226.645,291.385 226.800,291.612 226.800 C 292.163 226.800,290.443 224.502,289.671 224.206 C 289.337 224.078,289.544 224.453,290.132 225.041 M282.511 224.900 C 281.830 225.781,281.517 226.630,282.170 225.824 C 282.517 225.397,283.025 224.904,283.300 224.730 C 283.627 224.522,283.644 224.410,283.349 224.406 C 283.101 224.403,282.724 224.625,282.511 224.900 M38.329 225.100 C 44.999 225.161,55.799 225.161,62.329 225.100 C 68.858 225.038,63.400 224.988,50.200 224.988 C 37.000 224.988,31.658 225.038,38.329 225.100 M103.200 227.182 C 103.530 227.405,104.145 227.591,104.567 227.594 C 105.590 227.602,105.271 227.373,103.800 227.044 C 102.924 226.848,102.762 226.885,103.200 227.182 M280.993 228.100 C 280.859 228.815,280.903 229.812,281.089 230.315 C 281.344 231.002,281.429 230.679,281.429 229.015 C 281.429 226.470,281.335 226.273,280.993 228.100 M108.314 228.072 C 108.691 228.221,127.630 228.315,150.400 228.279 C 173.170 228.244,187.480 228.167,182.200 228.109 C 158.879 227.850,107.692 227.825,108.314 228.072 M212.400 228.962 C 212.400 229.412,214.423 232.767,214.855 233.034 C 215.064 233.163,214.655 232.308,213.947 231.134 C 212.432 228.624,212.400 228.578,212.400 228.962 M290.799 232.100 C 290.210 232.904,290.113 233.184,290.545 232.833 C 291.201 232.300,292.193 230.800,291.889 230.800 C 291.813 230.800,291.322 231.385,290.799 232.100 M213.446 233.700 C 214.599 235.666,217.031 238.918,218.605 240.600 L 220.478 242.600 218.499 240.200 C 217.410 238.880,215.837 236.765,215.003 235.500 C 213.697 233.518,212.588 232.236,213.446 233.700 M303.223 235.100 C 302.491 236.145,302.231 236.697,302.646 236.327 C 303.371 235.680,304.999 233.200,304.700 233.200 C 304.620 233.200,303.955 234.055,303.223 235.100 M200.749 234.200 C 200.965 234.640,201.434 235.360,201.793 235.800 L 202.444 236.600 202.051 235.800 C 201.835 235.360,201.366 234.640,201.007 234.200 L 200.356 233.400 200.749 234.200 M215.200 233.750 C 215.200 234.113,218.358 238.400,218.625 238.400 C 218.735 238.400,218.071 237.365,217.149 236.100 C 215.094 233.279,215.200 233.407,215.200 233.750 M297.620 241.733 L 293.440 246.200 296.949 242.800 C 299.874 239.966,302.437 237.100,301.927 237.233 C 301.857 237.251,299.919 239.276,297.620 241.733 M220.219 240.475 C 222.307 242.686,222.367 242.745,224.425 244.595 C 225.401 245.472,224.584 244.527,222.608 242.495 C 220.633 240.463,218.931 238.800,218.827 238.800 C 218.723 238.800,219.349 239.554,220.219 240.475 M299.578 241.900 L 298.200 243.400 299.700 242.022 C 301.096 240.738,301.384 240.400,301.078 240.400 C 301.012 240.400,300.337 241.075,299.578 241.900 M222.800 245.000 C 223.546 245.770,224.247 246.400,224.357 246.400 C 224.467 246.400,223.946 245.770,223.200 245.000 C 222.454 244.230,221.753 243.600,221.643 243.600 C 221.533 243.600,222.054 244.230,222.800 245.000 M227.288 247.026 C 227.886 247.649,228.469 248.064,228.583 247.950 C 228.697 247.836,228.207 247.327,227.495 246.819 L 226.200 245.895 227.288 247.026 M291.246 247.421 C 290.281 248.179,289.651 248.797,289.846 248.794 C 290.041 248.791,290.920 248.168,291.800 247.409 C 293.864 245.630,293.513 245.637,291.246 247.421 M293.000 247.868 C 292.120 248.657,291.760 249.116,292.200 248.888 C 292.941 248.504,295.151 246.379,294.770 246.417 C 294.676 246.426,293.880 247.079,293.000 247.868 M287.600 250.036 C 286.936 250.579,286.869 250.715,287.400 250.440 C 288.705 249.766,289.428 249.212,289.000 249.215 C 288.780 249.217,288.150 249.586,287.600 250.036 M229.600 250.420 C 230.987 251.361,231.778 251.635,230.800 250.836 C 230.250 250.386,229.620 250.017,229.400 250.015 C 229.180 250.013,229.270 250.196,229.600 250.420 M199.078 251.413 C 198.460 251.956,198.114 252.400,198.308 252.400 C 198.502 252.400,199.083 251.950,199.600 251.400 C 200.795 250.128,200.531 250.134,199.078 251.413 M281.600 254.600 C 281.050 254.914,280.780 255.172,281.000 255.172 C 281.220 255.172,281.850 254.914,282.400 254.600 C 282.950 254.286,283.220 254.028,283.000 254.028 C 282.780 254.028,282.150 254.286,281.600 254.600 M191.200 255.200 C 190.408 255.454,190.367 255.520,191.000 255.520 C 191.440 255.520,192.250 255.376,192.800 255.200 C 193.592 254.946,193.633 254.880,193.000 254.880 C 192.560 254.880,191.750 255.024,191.200 255.200 M243.400 255.600 C 243.536 255.820,244.042 255.987,244.524 255.972 C 245.369 255.945,245.371 255.931,244.600 255.600 C 243.499 255.127,243.108 255.127,243.400 255.600 M86.846 255.963 C 86.507 256.178,87.051 256.232,88.246 256.104 C 89.321 255.988,90.275 255.828,90.367 255.747 C 90.729 255.428,87.365 255.635,86.846 255.963 M272.200 256.400 C 271.093 256.682,271.077 256.709,272.000 256.747 C 272.550 256.769,273.270 256.613,273.600 256.400 C 274.281 255.960,273.929 255.960,272.200 256.400 M246.833 256.547 C 246.925 256.628,247.720 256.804,248.600 256.938 C 249.715 257.107,249.958 257.071,249.400 256.819 C 248.632 256.471,246.490 256.244,246.833 256.547 M80.893 258.686 C 79.789 259.503,78.659 260.538,78.382 260.986 C 78.105 261.433,78.671 261.080,79.639 260.200 C 80.608 259.320,81.850 258.294,82.400 257.921 C 82.950 257.548,83.288 257.233,83.151 257.221 C 83.013 257.209,81.998 257.868,80.893 258.686 M245.400 257.600 C 245.840 257.789,246.560 257.938,247.000 257.932 C 247.643 257.923,247.604 257.857,246.800 257.600 C 245.432 257.162,244.381 257.162,245.400 257.600 M252.200 257.623 C 253.080 257.805,254.340 257.942,255.000 257.927 C 255.900 257.907,255.750 257.820,254.400 257.580 C 251.986 257.150,250.094 257.187,252.200 257.623 M265.000 257.600 C 263.639 257.844,263.579 257.892,264.600 257.920 C 265.260 257.939,266.520 257.805,267.400 257.623 C 269.493 257.190,267.402 257.170,265.000 257.600 M50.940 258.706 C 50.687 258.868,52.526 259.000,55.027 259.000 C 57.528 259.000,59.265 258.878,58.887 258.728 C 57.952 258.358,51.513 258.340,50.940 258.706 M249.633 258.544 C 249.725 258.623,250.700 258.791,251.800 258.918 C 253.087 259.067,253.515 259.026,253.000 258.803 C 252.236 258.472,249.286 258.245,249.633 258.544 M266.600 258.803 C 266.085 259.026,266.513 259.067,267.800 258.918 C 268.900 258.791,269.875 258.623,269.967 258.544 C 270.314 258.245,267.364 258.472,266.600 258.803 M47.800 260.000 C 46.236 261.036,46.792 261.037,48.490 260.001 C 49.211 259.562,49.620 259.204,49.400 259.204 C 49.180 259.205,48.460 259.563,47.800 260.000 M62.200 260.265 C 63.222 261.233,65.733 262.871,65.127 262.174 C 64.757 261.748,63.857 261.059,63.127 260.643 C 62.397 260.227,61.980 260.057,62.200 260.265 M44.975 262.100 L 43.800 263.400 45.100 262.225 C 46.312 261.130,46.584 260.800,46.275 260.800 C 46.206 260.800,45.621 261.385,44.975 262.100 M67.800 270.177 C 67.800 271.578,67.932 272.516,68.094 272.262 C 68.455 271.694,68.442 269.246,68.072 268.315 C 67.922 267.938,67.800 268.776,67.800 270.177 M41.724 270.200 C 41.726 271.520,41.801 272.012,41.890 271.293 C 41.979 270.574,41.977 269.494,41.886 268.893 C 41.795 268.292,41.722 268.880,41.724 270.200 M358.093 272.400 C 358.093 273.170,358.175 273.485,358.276 273.100 C 358.376 272.715,358.376 272.085,358.276 271.700 C 358.175 271.315,358.093 271.630,358.093 272.400 M64.623 277.922 C 62.672 280.171,62.668 280.179,64.355 278.600 C 65.776 277.269,67.147 275.538,66.714 275.622 C 66.651 275.634,65.710 276.669,64.623 277.922 M44.801 278.137 C 45.351 278.762,46.160 279.459,46.600 279.686 C 47.442 280.120,47.418 280.093,45.201 278.197 L 43.803 277.000 44.801 278.137 M79.200 280.147 C 79.970 280.982,80.960 281.855,81.400 282.087 C 81.840 282.319,82.110 282.425,82.000 282.322 C 79.442 279.943,77.928 278.767,79.200 280.147 M49.600 281.194 C 49.930 281.411,50.635 281.591,51.167 281.594 C 52.451 281.602,52.125 281.375,50.400 281.058 C 49.415 280.877,49.178 280.918,49.600 281.194 M59.000 281.200 L 57.800 281.505 58.876 281.553 C 59.468 281.579,60.064 281.420,60.200 281.200 C 60.336 280.980,60.392 280.821,60.324 280.847 C 60.256 280.873,59.660 281.032,59.000 281.200 M351.600 282.036 C 350.936 282.579,350.869 282.715,351.400 282.440 C 352.705 281.766,353.428 281.212,353.000 281.215 C 352.780 281.217,352.150 281.586,351.600 282.036 M153.900 284.700 C 188.935 284.756,246.265 284.756,281.300 284.700 C 316.335 284.644,287.670 284.598,217.600 284.598 C 147.530 284.598,118.865 284.644,153.900 284.700 M67.200 316.158 C 67.200 316.245,67.905 316.383,68.766 316.465 C 69.628 316.548,70.247 316.476,70.143 316.307 C 69.953 316.000,67.200 315.860,67.200 316.158 M80.000 320.478 C 82.558 322.857,84.072 324.033,82.800 322.653 C 82.030 321.818,81.040 320.945,80.600 320.713 C 80.160 320.481,79.890 320.375,80.000 320.478 M84.870 325.547 C 85.381 326.178,85.863 326.641,85.939 326.575 C 86.156 326.388,84.641 324.427,84.270 324.413 C 84.088 324.406,84.358 324.916,84.870 325.547 M192.700 324.693 C 193.635 324.777,195.165 324.777,196.100 324.693 C 197.035 324.609,196.270 324.540,194.400 324.540 C 192.530 324.540,191.765 324.609,192.700 324.693 M324.515 324.696 C 325.788 324.776,327.768 324.775,328.915 324.694 C 330.062 324.614,329.020 324.549,326.600 324.550 C 324.180 324.551,323.242 324.616,324.515 324.696 M331.700 325.076 C 332.085 325.176,332.715 325.176,333.100 325.076 C 333.485 324.975,333.170 324.893,332.400 324.893 C 331.630 324.893,331.315 324.975,331.700 325.076 M114.896 343.500 L 115.000 361.800 124.100 361.812 L 133.200 361.823 124.192 361.704 L 115.184 361.585 115.292 343.392 C 115.351 333.386,115.263 325.200,115.096 325.200 C 114.929 325.200,114.839 333.435,114.896 343.500 M201.400 325.600 C 202.501 326.073,202.892 326.073,202.600 325.600 C 202.464 325.380,201.958 325.213,201.476 325.228 C 200.631 325.255,200.629 325.269,201.400 325.600 M264.245 325.528 C 264.133 325.708,264.573 325.777,265.221 325.682 C 265.870 325.587,266.400 325.440,266.400 325.355 C 266.400 325.050,264.443 325.207,264.245 325.528 M270.433 325.344 C 270.525 325.423,271.140 325.608,271.800 325.756 C 272.676 325.952,272.838 325.915,272.400 325.618 C 271.860 325.253,270.032 324.998,270.433 325.344 M335.233 325.344 C 335.325 325.423,335.940 325.608,336.600 325.756 C 337.476 325.952,337.638 325.915,337.200 325.618 C 336.660 325.253,334.832 324.998,335.233 325.344 M136.575 328.100 L 135.400 329.400 136.700 328.225 C 137.912 327.130,138.184 326.800,137.875 326.800 C 137.806 326.800,137.221 327.385,136.575 328.100 M312.500 327.974 C 311.609 328.619,310.753 329.352,310.598 329.603 C 310.382 329.953,313.512 327.754,314.367 326.956 C 314.987 326.376,313.847 326.998,312.500 327.974 M276.200 327.457 C 278.237 329.264,278.987 329.791,278.202 328.863 C 277.766 328.348,277.047 327.741,276.604 327.514 C 276.162 327.287,275.980 327.262,276.200 327.457 M180.785 329.229 L 179.400 330.458 180.900 329.381 C 182.226 328.430,182.657 328.000,182.285 328.000 C 182.222 328.000,181.547 328.553,180.785 329.229 M134.253 330.900 L 133.533 332.200 134.358 331.200 C 135.089 330.313,135.414 329.600,135.086 329.600 C 135.024 329.600,134.649 330.185,134.253 330.900 M309.386 331.627 C 309.037 332.302,308.807 333.014,308.876 333.209 C 308.944 333.404,309.302 332.851,309.670 331.982 C 310.465 330.106,310.287 329.884,309.386 331.627 M177.857 332.457 C 177.228 333.332,176.792 334.126,176.888 334.221 C 176.983 334.317,177.548 333.651,178.143 332.743 C 179.544 330.602,179.338 330.396,177.857 332.457 M152.137 334.200 C 152.139 335.960,152.209 336.630,152.293 335.689 C 152.378 334.749,152.377 333.309,152.291 332.489 C 152.205 331.670,152.136 332.440,152.137 334.200 M328.900 332.676 C 329.285 332.776,329.915 332.776,330.300 332.676 C 330.685 332.575,330.370 332.493,329.600 332.493 C 328.830 332.493,328.515 332.575,328.900 332.676 M331.200 332.884 C 331.310 332.993,332.026 333.293,332.791 333.551 C 333.556 333.810,334.006 333.850,333.791 333.639 C 333.576 333.429,332.860 333.129,332.200 332.972 C 331.540 332.816,331.090 332.776,331.200 332.884 M61.775 333.721 C 61.665 334.008,61.631 336.573,61.701 339.421 L 61.826 344.600 61.913 339.044 L 62.000 333.489 64.100 333.712 C 65.417 333.853,65.902 333.809,65.400 333.596 C 64.155 333.067,61.997 333.141,61.775 333.721 M89.000 339.000 C 89.000 341.835,89.114 343.625,89.253 342.977 C 89.392 342.330,89.505 340.540,89.505 339.000 C 89.505 337.460,89.392 335.670,89.253 335.023 C 89.114 334.375,89.000 336.165,89.000 339.000 M336.624 335.787 C 337.518 336.464,338.255 336.558,338.577 336.037 C 338.700 335.838,338.461 335.764,338.046 335.872 C 337.630 335.981,337.169 335.874,337.022 335.635 C 336.874 335.396,336.549 335.200,336.300 335.200 C 336.051 335.200,336.196 335.464,336.624 335.787 M175.354 337.377 C 175.232 337.694,175.203 338.279,175.289 338.677 C 175.387 339.128,175.524 338.912,175.654 338.100 C 175.871 336.738,175.730 336.396,175.354 337.377 M328.000 337.031 C 328.000 337.301,330.078 338.056,330.276 337.857 C 330.367 337.767,329.892 337.501,329.220 337.267 C 328.549 337.033,328.000 336.927,328.000 337.031 M283.800 343.227 C 283.800 345.618,283.922 347.265,284.072 346.887 C 284.442 345.952,284.459 339.912,284.094 339.340 C 283.932 339.087,283.800 340.836,283.800 343.227 M308.832 339.520 C 308.796 340.098,309.907 342.400,310.221 342.400 C 310.331 342.400,310.171 341.905,309.865 341.300 C 309.560 340.695,309.209 339.930,309.086 339.600 C 308.936 339.197,308.853 339.171,308.832 339.520 M214.200 343.603 C 214.200 345.785,214.322 347.263,214.472 346.886 C 214.621 346.508,214.744 345.030,214.744 343.600 C 214.744 342.170,214.621 340.693,214.472 340.317 C 214.322 339.942,214.200 341.421,214.200 343.603 M261.307 339.925 C 261.023 340.106,261.473 340.230,262.367 340.219 C 263.221 340.209,263.838 340.065,263.737 339.900 C 263.497 339.509,261.938 339.525,261.307 339.925 M338.200 340.654 C 338.420 340.848,339.229 341.545,339.999 342.203 L 341.397 343.400 340.399 342.263 C 339.849 341.638,339.040 340.941,338.600 340.714 C 338.160 340.488,337.980 340.461,338.200 340.654 M67.689 342.317 L 66.779 343.800 67.789 342.678 C 68.345 342.060,68.800 341.385,68.800 341.178 C 68.800 340.590,68.665 340.728,67.689 342.317 M138.344 341.976 C 138.864 342.429,139.479 342.800,139.711 342.800 C 140.203 342.800,140.179 342.780,138.600 341.855 L 137.400 341.153 138.344 341.976 M190.914 343.000 C 190.917 344.100,190.995 344.503,191.087 343.895 C 191.179 343.286,191.177 342.386,191.082 341.895 C 190.987 341.403,190.911 341.900,190.914 343.000 M198.075 342.200 C 198.166 344.605,197.979 345.258,196.900 346.301 C 195.854 347.311,195.849 347.333,196.800 346.738 C 198.091 345.931,198.875 343.666,198.391 342.141 L 198.029 341.000 198.075 342.200 M259.340 344.800 C 259.340 346.670,259.409 347.435,259.493 346.500 C 259.577 345.565,259.577 344.035,259.493 343.100 C 259.409 342.165,259.340 342.930,259.340 344.800 M265.771 344.145 C 265.771 346.069,265.836 346.293,266.132 345.403 C 266.347 344.760,266.347 343.810,266.132 343.063 C 265.816 341.959,265.771 342.091,265.771 344.145 M311.401 343.934 C 312.060 344.668,312.960 345.455,313.400 345.683 C 313.840 345.911,314.020 345.940,313.800 345.748 C 313.580 345.555,312.680 344.768,311.801 343.999 L 310.202 342.600 311.401 343.934 M133.829 344.229 C 133.681 344.815,133.638 345.372,133.732 345.466 C 133.827 345.560,134.024 345.158,134.171 344.571 C 134.319 343.985,134.362 343.428,134.268 343.334 C 134.173 343.240,133.976 343.642,133.829 344.229 M88.400 344.903 C 88.400 344.959,88.223 345.622,88.007 346.376 C 87.791 347.129,87.768 347.578,87.955 347.373 C 88.364 346.926,88.903 344.800,88.608 344.800 C 88.493 344.800,88.400 344.846,88.400 344.903 M175.200 348.976 C 175.200 349.513,175.347 350.044,175.528 350.155 C 175.708 350.267,175.777 349.827,175.682 349.179 C 175.472 347.749,175.200 347.635,175.200 348.976 M320.800 348.534 C 320.800 348.637,321.381 348.924,322.091 349.172 C 322.801 349.419,323.206 349.457,322.991 349.256 C 322.535 348.829,320.800 348.258,320.800 348.534 M324.200 351.800 C 324.200 352.528,324.335 353.040,324.500 352.938 C 324.665 352.836,324.800 352.324,324.800 351.800 C 324.800 351.276,324.665 350.764,324.500 350.662 C 324.335 350.560,324.200 351.072,324.200 351.800 M84.799 352.500 C 84.210 353.304,84.113 353.584,84.545 353.233 C 85.201 352.700,86.193 351.200,85.889 351.200 C 85.813 351.200,85.322 351.785,84.799 352.500 M177.469 353.900 C 177.856 354.615,179.072 356.055,180.173 357.100 L 182.173 359.000 180.183 356.800 C 179.088 355.590,177.872 354.150,177.479 353.600 C 176.790 352.635,176.790 352.646,177.469 353.900 M317.027 353.555 C 317.452 353.944,319.929 354.596,319.554 354.220 C 319.419 354.086,318.711 353.804,317.981 353.595 C 317.251 353.385,316.822 353.368,317.027 353.555 M82.200 355.468 C 81.320 356.257,80.960 356.716,81.400 356.488 C 82.141 356.104,84.351 353.979,83.970 354.017 C 83.876 354.026,83.080 354.679,82.200 355.468 M78.800 358.036 C 78.136 358.579,78.069 358.715,78.600 358.440 C 79.905 357.766,80.628 357.212,80.200 357.215 C 79.980 357.217,79.350 357.586,78.800 358.036 M336.400 360.400 C 335.630 360.822,335.144 361.174,335.320 361.183 C 335.744 361.205,338.000 360.032,338.000 359.790 C 338.000 359.528,337.977 359.537,336.400 360.400 M71.800 360.800 L 70.600 361.105 71.676 361.153 C 72.268 361.179,72.864 361.020,73.000 360.800 C 73.136 360.580,73.192 360.421,73.124 360.447 C 73.056 360.473,72.460 360.632,71.800 360.800 M259.287 365.892 L 259.200 371.585 250.100 371.700 L 241.000 371.816 250.113 371.908 C 257.289 371.980,259.268 371.889,259.425 371.480 C 259.535 371.194,259.568 368.539,259.500 365.580 L 259.375 360.200 259.287 365.892 M271.800 361.015 C 270.212 361.565,270.210 361.567,271.600 361.342 C 272.370 361.218,273.171 360.955,273.380 360.758 C 273.847 360.318,273.787 360.328,271.800 361.015 M312.752 360.912 C 312.945 361.105,313.619 361.198,314.251 361.119 C 315.309 360.987,315.281 360.959,313.900 360.768 C 313.040 360.649,312.550 360.710,312.752 360.912 M41.545 361.706 C 41.714 361.874,47.690 361.964,54.826 361.905 L 67.800 361.799 54.520 361.600 C 47.215 361.490,41.377 361.538,41.545 361.706 M263.200 361.620 C 264.203 361.921,269.880 362.129,269.567 361.853 C 269.475 361.772,267.780 361.619,265.800 361.512 C 263.820 361.406,262.650 361.454,263.200 361.620 M318.600 362.023 C 319.480 362.205,320.740 362.342,321.400 362.327 C 322.300 362.307,322.150 362.220,320.800 361.980 C 318.386 361.550,316.494 361.587,318.600 362.023 M331.400 362.000 C 330.322 362.274,330.302 362.306,331.200 362.313 C 331.750 362.317,332.650 362.176,333.200 362.000 C 334.544 361.569,333.092 361.569,331.400 362.000 " stroke="none" fill="#b7b4ca" fill-rule="evenodd"></path><path id="path3" d="M131.200 87.232 C 155.564 87.511,248.634 87.687,248.367 87.455 C 248.275 87.375,216.880 87.235,178.600 87.144 C 140.320 87.053,118.990 87.093,131.200 87.232 M98.500 87.498 C 100.425 87.571,103.575 87.571,105.500 87.498 C 107.425 87.425,105.850 87.365,102.000 87.365 C 98.150 87.365,96.575 87.425,98.500 87.498 M273.131 87.500 C 286.623 87.558,308.583 87.558,321.931 87.500 C 335.279 87.441,324.240 87.394,297.400 87.394 C 270.560 87.394,259.639 87.442,273.131 87.500 M347.200 87.698 C 347.523 88.018,351.200 89.571,351.200 89.388 C 351.200 89.296,350.705 88.969,350.100 88.661 C 348.902 88.052,346.878 87.380,347.200 87.698 M35.700 90.300 C 40.045 90.364,47.155 90.364,51.500 90.300 C 55.845 90.235,52.290 90.182,43.600 90.182 C 34.910 90.182,31.355 90.235,35.700 90.300 M60.833 90.558 C 61.173 90.880,64.000 91.952,64.000 91.759 C 64.000 91.649,63.376 91.298,62.613 90.980 C 61.269 90.418,60.491 90.234,60.833 90.558 M20.575 93.700 L 19.400 95.000 20.700 93.825 C 21.912 92.730,22.184 92.400,21.875 92.400 C 21.806 92.400,21.221 92.985,20.575 93.700 M69.000 101.400 C 69.000 103.034,69.122 104.062,69.272 103.685 C 69.421 103.308,69.544 102.280,69.544 101.400 C 69.544 100.520,69.421 99.492,69.272 99.115 C 69.122 98.738,69.000 99.766,69.000 101.400 M17.731 101.400 C 17.733 102.940,17.805 103.521,17.892 102.691 C 17.979 101.861,17.977 100.601,17.889 99.891 C 17.800 99.181,17.729 99.860,17.731 101.400 M358.180 114.800 C 358.180 122.390,358.234 125.495,358.299 121.700 C 358.365 117.905,358.365 111.695,358.299 107.900 C 358.234 104.105,358.180 107.210,358.180 114.800 M195.741 104.797 C 195.268 104.988,194.739 105.382,194.564 105.672 C 194.315 106.086,194.370 106.100,194.823 105.736 C 195.140 105.481,196.030 105.092,196.800 104.872 C 197.570 104.652,197.840 104.467,197.400 104.461 C 196.960 104.456,196.213 104.607,195.741 104.797 M219.200 104.800 L 217.800 105.095 219.076 105.147 C 219.778 105.176,220.464 105.020,220.600 104.800 C 220.736 104.580,220.792 104.424,220.724 104.453 C 220.656 104.482,219.970 104.638,219.200 104.800 M303.741 104.797 C 303.268 104.988,302.739 105.382,302.564 105.672 C 302.350 106.028,302.487 106.004,302.984 105.600 C 303.602 105.097,306.321 104.966,319.761 104.789 L 335.800 104.578 320.200 104.514 C 311.620 104.479,304.213 104.607,303.741 104.797 M18.000 104.953 C 18.000 105.382,19.190 107.600,19.421 107.600 C 19.531 107.600,19.323 107.015,18.959 106.300 C 18.217 104.840,18.000 104.536,18.000 104.953 M215.372 108.571 C 215.237 109.105,215.283 109.820,215.473 110.159 C 215.712 110.586,215.818 110.288,215.818 109.188 C 215.818 107.355,215.713 107.210,215.372 108.571 M224.200 109.200 C 224.200 110.038,224.335 110.640,224.500 110.538 C 224.665 110.436,224.800 109.834,224.800 109.200 C 224.800 108.566,224.665 107.964,224.500 107.862 C 224.335 107.760,224.200 108.362,224.200 109.200 M20.800 109.400 C 21.546 110.170,22.247 110.800,22.357 110.800 C 22.467 110.800,21.946 110.170,21.200 109.400 C 20.454 108.630,19.753 108.000,19.643 108.000 C 19.533 108.000,20.054 108.630,20.800 109.400 M192.893 109.200 C 192.893 109.970,192.975 110.285,193.076 109.900 C 193.176 109.515,193.176 108.885,193.076 108.500 C 192.975 108.115,192.893 108.430,192.893 109.200 M300.893 109.200 C 300.893 109.970,300.975 110.285,301.076 109.900 C 301.176 109.515,301.176 108.885,301.076 108.500 C 300.975 108.115,300.893 108.430,300.893 109.200 M24.800 111.982 C 25.130 112.205,25.745 112.391,26.167 112.394 C 27.190 112.402,26.871 112.173,25.400 111.844 C 24.524 111.648,24.362 111.685,24.800 111.982 M35.327 112.700 C 39.907 112.764,47.287 112.764,51.727 112.699 C 56.167 112.635,52.420 112.583,43.400 112.583 C 34.380 112.583,30.747 112.635,35.327 112.700 M196.000 113.582 C 196.330 113.805,196.945 113.991,197.367 113.994 C 198.390 114.002,198.071 113.773,196.600 113.444 C 195.724 113.248,195.562 113.285,196.000 113.582 M304.137 113.694 C 304.392 113.856,311.620 113.952,320.200 113.909 C 328.780 113.866,333.910 113.779,331.600 113.718 C 321.320 113.442,303.717 113.427,304.137 113.694 M92.400 114.782 C 92.730 115.005,93.345 115.191,93.767 115.194 C 94.790 115.202,94.471 114.973,93.000 114.644 C 92.124 114.448,91.962 114.485,92.400 114.782 M157.505 115.883 C 158.002 115.979,158.722 115.975,159.105 115.875 C 159.487 115.775,159.080 115.696,158.200 115.701 C 157.320 115.705,157.007 115.787,157.505 115.883 M165.983 119.700 C 166.964 120.745,167.819 121.600,167.883 121.600 C 168.184 121.600,167.866 121.241,166.100 119.583 L 164.200 117.800 165.983 119.700 M169.462 134.700 C 169.294 134.971,233.477 134.970,324.200 134.698 C 342.900 134.641,315.776 134.551,263.924 134.498 C 212.072 134.444,169.564 134.535,169.462 134.700 M358.195 202.800 C 358.195 240.090,358.242 255.345,358.300 236.700 C 358.357 218.055,358.357 187.545,358.300 168.900 C 358.242 150.255,358.195 165.510,358.195 202.800 M166.584 138.826 C 166.439 139.061,165.591 139.781,164.700 140.426 C 163.809 141.072,163.264 141.600,163.489 141.600 C 163.949 141.600,167.554 138.442,167.124 138.416 C 166.972 138.407,166.729 138.592,166.584 138.826 M158.000 143.200 C 157.196 143.457,157.157 143.523,157.800 143.532 C 158.240 143.538,158.960 143.389,159.400 143.200 C 160.419 142.762,159.368 142.762,158.000 143.200 M48.800 144.000 C 48.008 144.254,47.967 144.320,48.600 144.320 C 49.040 144.320,49.850 144.176,50.400 144.000 C 51.192 143.746,51.233 143.680,50.600 143.680 C 50.160 143.680,49.350 143.824,48.800 144.000 M41.359 148.100 C 39.607 150.121,39.087 150.800,39.290 150.800 C 39.407 150.800,40.167 149.990,40.979 149.000 C 42.481 147.166,42.779 146.463,41.359 148.100 M256.505 150.287 C 257.114 150.379,258.014 150.377,258.505 150.282 C 258.997 150.187,258.500 150.111,257.400 150.114 C 256.300 150.117,255.897 150.195,256.505 150.287 M260.900 150.287 C 261.505 150.378,262.495 150.378,263.100 150.287 C 263.705 150.195,263.210 150.120,262.000 150.120 C 260.790 150.120,260.295 150.195,260.900 150.287 M250.200 150.803 C 249.685 151.026,250.113 151.067,251.400 150.918 C 252.500 150.791,253.475 150.623,253.567 150.544 C 253.914 150.245,250.964 150.472,250.200 150.803 M266.033 150.544 C 266.125 150.623,267.100 150.791,268.200 150.918 C 269.487 151.067,269.915 151.026,269.400 150.803 C 268.636 150.472,265.686 150.245,266.033 150.544 M37.849 153.815 C 37.712 154.173,37.618 154.856,37.641 155.333 C 37.667 155.881,37.803 155.686,38.010 154.803 C 38.360 153.316,38.265 152.733,37.849 153.815 M37.606 160.433 C 37.609 160.965,37.789 161.670,38.006 162.000 C 38.282 162.422,38.323 162.185,38.142 161.200 C 37.825 159.475,37.598 159.149,37.606 160.433 M225.389 162.231 L 223.400 164.061 225.500 162.368 C 227.384 160.849,227.838 160.400,227.489 160.400 C 227.428 160.400,226.483 161.224,225.389 162.231 M220.786 166.300 L 218.600 168.600 220.900 166.414 C 222.165 165.211,223.200 164.176,223.200 164.114 C 223.200 163.817,222.818 164.163,220.786 166.300 M298.400 166.200 C 299.595 167.410,300.663 168.400,300.773 168.400 C 300.883 168.400,299.995 167.410,298.800 166.200 C 297.605 164.990,296.537 164.000,296.427 164.000 C 296.317 164.000,297.205 164.990,298.400 166.200 M41.488 167.623 C 42.196 168.388,43.366 169.333,44.088 169.724 C 45.354 170.410,45.365 170.409,44.404 169.717 C 43.856 169.323,42.686 168.378,41.804 167.617 L 40.200 166.234 41.488 167.623 M48.600 171.590 C 49.364 171.928,51.914 172.157,51.567 171.856 C 51.475 171.776,50.590 171.604,49.600 171.473 C 48.398 171.314,48.066 171.353,48.600 171.590 M215.944 171.900 C 214.793 173.289,214.306 174.000,214.504 174.000 C 214.614 174.000,215.186 173.370,215.773 172.600 C 216.863 171.171,216.995 170.632,215.944 171.900 M303.599 172.300 C 304.122 173.015,304.613 173.600,304.689 173.600 C 304.993 173.600,304.001 172.100,303.345 171.567 C 302.913 171.216,303.010 171.496,303.599 172.300 M213.753 174.900 C 212.376 177.236,212.286 177.435,212.987 176.600 C 213.800 175.632,214.500 174.400,214.238 174.400 C 214.133 174.400,213.915 174.625,213.753 174.900 M210.380 180.839 C 209.920 181.740,209.613 182.546,209.697 182.630 C 209.781 182.714,210.241 181.976,210.719 180.991 C 211.809 178.747,211.515 178.615,210.380 180.839 M147.646 188.067 C 147.621 188.434,147.496 189.064,147.370 189.467 C 147.152 190.162,147.163 190.163,147.597 189.487 C 147.848 189.096,147.973 188.466,147.873 188.087 C 147.711 187.468,147.688 187.466,147.646 188.067 M206.250 192.450 C 205.917 194.117,206.240 194.440,206.600 192.800 C 206.752 192.109,206.793 191.459,206.691 191.358 C 206.589 191.256,206.391 191.747,206.250 192.450 M313.044 192.600 C 313.373 194.071,313.602 194.390,313.594 193.367 C 313.591 192.945,313.405 192.330,313.182 192.000 C 312.885 191.562,312.848 191.724,313.044 192.600 M143.200 195.682 C 141.990 196.811,141.360 197.538,141.800 197.299 C 142.569 196.880,145.953 193.584,145.581 193.615 C 145.482 193.624,144.410 194.554,143.200 195.682 M205.456 196.484 C 205.321 196.988,205.228 197.850,205.249 198.400 C 205.272 198.989,205.431 198.671,205.636 197.625 C 206.003 195.752,205.873 194.927,205.456 196.484 M314.109 198.400 C 314.109 199.390,314.187 199.795,314.282 199.300 C 314.378 198.805,314.378 197.995,314.282 197.500 C 314.187 197.005,314.109 197.410,314.109 198.400 M115.325 199.499 C 119.024 199.566,124.964 199.565,128.525 199.499 C 132.086 199.433,129.060 199.379,121.800 199.379 C 114.540 199.379,111.626 199.433,115.325 199.499 M104.066 199.951 C 103.754 200.149,104.418 200.216,105.666 200.113 C 108.597 199.871,108.995 199.668,106.600 199.638 C 105.500 199.624,104.360 199.765,104.066 199.951 M314.542 204.200 C 314.541 206.180,314.608 207.040,314.692 206.112 C 314.776 205.184,314.777 203.564,314.695 202.512 C 314.612 201.460,314.543 202.220,314.542 204.200 M24.105 202.687 C 24.714 202.779,25.614 202.777,26.105 202.682 C 26.597 202.587,26.100 202.511,25.000 202.514 C 23.900 202.517,23.497 202.595,24.105 202.687 M72.705 202.683 C 73.202 202.779,73.922 202.775,74.305 202.675 C 74.687 202.575,74.280 202.496,73.400 202.501 C 72.520 202.505,72.207 202.587,72.705 202.683 M97.381 204.100 L 95.800 205.800 97.594 204.200 C 98.580 203.320,99.465 202.555,99.561 202.500 C 99.656 202.445,99.560 202.400,99.348 202.400 C 99.136 202.400,98.251 203.165,97.381 204.100 M204.914 204.200 C 204.917 205.300,204.995 205.703,205.087 205.095 C 205.179 204.486,205.177 203.586,205.082 203.095 C 204.987 202.603,204.911 203.100,204.914 204.200 M79.582 205.800 C 80.547 206.900,81.420 207.890,81.522 208.000 C 81.625 208.110,81.519 207.840,81.287 207.400 C 81.055 206.960,80.182 205.970,79.347 205.200 C 77.903 203.869,77.915 203.899,79.582 205.800 M206.830 206.100 C 206.846 207.255,206.999 209.010,207.170 210.000 C 207.413 211.403,207.473 210.940,207.441 207.904 C 207.418 205.761,207.265 204.006,207.100 204.004 C 206.935 204.002,206.813 204.945,206.830 206.100 M209.400 204.400 C 210.060 204.568,211.050 204.705,211.600 204.705 C 212.492 204.705,212.470 204.672,211.400 204.400 C 210.740 204.232,209.750 204.095,209.200 204.095 C 208.308 204.095,208.330 204.128,209.400 204.400 M272.400 204.400 C 271.043 204.686,271.037 204.695,272.200 204.707 C 272.860 204.715,273.850 204.576,274.400 204.400 C 275.712 203.980,274.396 203.980,272.400 204.400 M281.000 204.400 C 281.660 204.568,282.650 204.705,283.200 204.705 C 284.092 204.705,284.070 204.672,283.000 204.400 C 282.340 204.232,281.350 204.095,280.800 204.095 C 279.908 204.095,279.930 204.128,281.000 204.400 M267.800 205.200 L 266.600 205.505 267.676 205.553 C 268.268 205.579,268.864 205.420,269.000 205.200 C 269.136 204.980,269.192 204.821,269.124 204.847 C 269.056 204.873,268.460 205.032,267.800 205.200 M286.400 205.182 C 286.730 205.405,287.345 205.591,287.767 205.594 C 288.790 205.602,288.471 205.373,287.000 205.044 C 286.124 204.848,285.962 204.885,286.400 205.182 M94.379 208.655 C 94.158 209.236,94.052 209.785,94.143 209.876 C 94.233 209.967,94.499 209.492,94.733 208.820 C 95.253 207.328,94.939 207.182,94.379 208.655 M314.120 210.800 C 314.120 212.010,314.195 212.505,314.287 211.900 C 314.378 211.295,314.378 210.305,314.287 209.700 C 314.195 209.095,314.120 209.590,314.120 210.800 M272.900 209.496 C 274.165 209.575,276.235 209.575,277.500 209.496 C 278.765 209.416,277.730 209.351,275.200 209.351 C 272.670 209.351,271.635 209.416,272.900 209.496 M266.200 210.000 C 265.122 210.274,265.102 210.306,266.000 210.313 C 266.550 210.317,267.450 210.176,268.000 210.000 C 269.344 209.569,267.892 209.569,266.200 210.000 M282.800 210.000 C 283.350 210.176,284.250 210.317,284.800 210.313 C 285.698 210.306,285.678 210.274,284.600 210.000 C 282.908 209.569,281.456 209.569,282.800 210.000 M93.731 213.400 C 93.733 214.940,93.805 215.521,93.892 214.691 C 93.979 213.861,93.977 212.601,93.889 211.891 C 93.800 211.181,93.729 211.860,93.731 213.400 M205.228 211.833 C 205.244 212.475,205.416 213.360,205.610 213.800 C 205.847 214.334,205.886 214.002,205.727 212.800 C 205.446 210.680,205.188 210.180,205.228 211.833 M14.928 213.600 C 14.928 215.030,15.001 215.615,15.089 214.900 C 15.178 214.185,15.178 213.015,15.089 212.300 C 15.001 211.585,14.928 212.170,14.928 213.600 M231.541 211.701 C 231.743 211.903,232.333 212.001,232.854 211.919 C 233.655 211.793,233.598 211.737,232.487 211.552 C 231.693 211.421,231.319 211.479,231.541 211.701 M251.000 211.600 L 249.800 211.905 250.876 211.953 C 251.468 211.979,252.064 211.820,252.200 211.600 C 252.336 211.380,252.392 211.221,252.324 211.247 C 252.256 211.273,251.660 211.432,251.000 211.600 M82.920 213.600 C 82.920 214.810,82.995 215.305,83.087 214.700 C 83.178 214.095,83.178 213.105,83.087 212.500 C 82.995 211.895,82.920 212.390,82.920 213.600 M261.351 212.052 C 261.400 212.311,261.846 212.673,262.341 212.856 C 262.912 213.068,263.151 213.045,262.997 212.795 C 262.863 212.578,262.508 212.400,262.210 212.400 C 261.911 212.400,261.575 212.216,261.463 211.990 C 261.351 211.764,261.301 211.792,261.351 212.052 M290.200 212.078 C 290.640 212.327,291.132 212.727,291.294 212.966 C 291.496 213.265,291.590 213.249,291.594 212.914 C 291.597 212.647,291.252 212.242,290.826 212.014 C 289.774 211.451,289.197 211.509,290.200 212.078 M238.918 212.698 C 240.633 212.773,243.333 212.772,244.918 212.697 C 246.503 212.621,245.100 212.559,241.800 212.560 C 238.500 212.561,237.203 212.622,238.918 212.698 M309.373 212.686 C 311.321 212.822,311.569 212.942,311.724 213.824 C 311.877 214.692,311.892 214.678,311.849 213.705 C 311.802 212.636,311.725 212.599,309.498 212.567 L 307.196 212.534 309.373 212.686 M207.656 214.000 C 207.656 214.330,207.811 214.960,208.000 215.400 C 208.217 215.904,208.344 215.978,208.344 215.600 C 208.344 215.270,208.189 214.640,208.000 214.200 C 207.783 213.696,207.656 213.622,207.656 214.000 M274.900 215.497 C 276.385 215.574,278.815 215.574,280.300 215.497 C 281.785 215.420,280.570 215.357,277.600 215.357 C 274.630 215.357,273.415 215.420,274.900 215.497 M206.056 216.400 C 206.056 216.730,206.211 217.360,206.400 217.800 C 206.617 218.304,206.744 218.378,206.744 218.000 C 206.744 217.670,206.589 217.040,206.400 216.600 C 206.183 216.096,206.056 216.022,206.056 216.400 M310.629 218.229 C 310.481 218.815,310.438 219.372,310.532 219.466 C 310.627 219.560,310.824 219.158,310.971 218.571 C 311.119 217.985,311.162 217.428,311.068 217.334 C 310.973 217.240,310.776 217.642,310.629 218.229 M258.667 221.467 C 258.303 221.831,258.328 223.909,258.700 224.138 C 258.865 224.240,259.000 223.621,259.000 222.762 C 259.000 221.903,258.985 221.200,258.967 221.200 C 258.948 221.200,258.813 221.320,258.667 221.467 M96.400 221.858 C 96.400 222.074,96.985 222.779,97.700 223.425 L 99.000 224.600 97.800 223.202 C 97.140 222.433,96.555 221.728,96.500 221.635 C 96.445 221.543,96.400 221.643,96.400 221.858 M264.493 222.800 C 264.493 223.570,264.575 223.885,264.676 223.500 C 264.776 223.115,264.776 222.485,264.676 222.100 C 264.575 221.715,264.493 222.030,264.493 222.800 M38.329 224.700 C 44.999 224.761,55.799 224.761,62.329 224.700 C 68.858 224.638,63.400 224.588,50.200 224.588 C 37.000 224.588,31.658 224.638,38.329 224.700 M211.600 226.553 C 211.600 226.982,212.790 229.200,213.021 229.200 C 213.131 229.200,212.923 228.615,212.559 227.900 C 211.817 226.440,211.600 226.136,211.600 226.553 M105.800 227.403 C 106.714 227.721,109.129 227.809,108.948 227.516 C 108.841 227.342,107.998 227.214,107.076 227.232 C 106.154 227.249,105.580 227.326,105.800 227.403 M192.600 228.400 C 193.040 228.589,193.670 228.744,194.000 228.744 C 194.378 228.744,194.304 228.617,193.800 228.400 C 193.360 228.211,192.730 228.056,192.400 228.056 C 192.022 228.056,192.096 228.183,192.600 228.400 M198.965 231.725 C 199.361 232.014,200.041 232.689,200.477 233.225 C 200.913 233.761,201.137 233.930,200.975 233.600 C 200.514 232.659,199.103 231.200,198.654 231.200 C 198.430 231.200,198.570 231.436,198.965 231.725 M212.200 232.400 C 212.541 233.060,212.911 233.600,213.021 233.600 C 213.131 233.600,212.941 233.060,212.600 232.400 C 212.259 231.740,211.889 231.200,211.779 231.200 C 211.669 231.200,211.859 231.740,212.200 232.400 M214.349 231.800 C 214.565 232.240,215.034 232.960,215.393 233.400 L 216.044 234.200 215.651 233.400 C 215.435 232.960,214.966 232.240,214.607 231.800 L 213.956 231.000 214.349 231.800 M283.518 234.228 C 284.011 234.573,284.727 234.774,285.107 234.674 C 285.633 234.537,285.589 234.482,284.924 234.446 C 284.442 234.421,283.936 234.220,283.800 234.000 C 283.664 233.780,283.343 233.600,283.087 233.600 C 282.831 233.600,283.025 233.883,283.518 234.228 M216.797 238.995 C 217.865 240.433,220.401 243.190,220.382 242.891 C 220.372 242.731,219.427 241.608,218.282 240.395 C 217.137 239.182,216.469 238.552,216.797 238.995 M298.400 240.600 C 297.428 241.590,296.723 242.400,296.833 242.400 C 296.943 242.400,297.828 241.590,298.800 240.600 C 299.772 239.610,300.477 238.800,300.367 238.800 C 300.257 238.800,299.372 239.610,298.400 240.600 M219.600 239.310 C 219.600 239.371,220.995 240.766,222.700 242.410 L 225.800 245.400 222.810 242.300 C 220.033 239.421,219.600 239.017,219.600 239.310 M203.664 241.450 C 203.629 242.138,203.511 243.308,203.401 244.050 L 203.203 245.400 203.624 244.058 C 203.855 243.320,203.973 242.150,203.886 241.458 L 203.728 240.200 203.664 241.450 M294.975 244.100 L 293.800 245.400 295.100 244.225 C 295.815 243.579,296.400 242.994,296.400 242.925 C 296.400 242.616,296.070 242.888,294.975 244.100 M223.200 245.800 C 223.946 246.570,224.647 247.200,224.757 247.200 C 224.867 247.200,224.346 246.570,223.600 245.800 C 222.854 245.030,222.153 244.400,222.043 244.400 C 221.933 244.400,222.454 245.030,223.200 245.800 M231.600 249.620 C 232.987 250.561,233.778 250.835,232.800 250.036 C 232.250 249.586,231.620 249.217,231.400 249.215 C 231.180 249.213,231.270 249.396,231.600 249.620 M199.775 251.300 L 198.600 252.600 199.900 251.425 C 201.112 250.330,201.384 250.000,201.075 250.000 C 201.006 250.000,200.421 250.585,199.775 251.300 M283.900 251.627 C 283.075 252.063,282.400 252.508,282.400 252.618 C 282.400 252.727,283.120 252.449,284.000 252.000 C 284.880 251.551,285.600 251.097,285.600 250.992 C 285.600 250.730,285.597 250.731,283.900 251.627 M150.400 255.600 L 108.600 255.806 150.200 255.875 C 173.080 255.913,192.160 255.789,192.600 255.600 C 193.040 255.411,193.130 255.287,192.800 255.325 C 192.470 255.363,173.390 255.487,150.400 255.600 M249.600 256.800 C 250.968 257.238,252.019 257.238,251.000 256.800 C 250.560 256.611,249.840 256.462,249.400 256.468 C 248.757 256.477,248.796 256.543,249.600 256.800 M268.800 256.800 C 267.996 257.057,267.957 257.123,268.600 257.132 C 269.040 257.138,269.760 256.989,270.200 256.800 C 271.219 256.362,270.168 256.362,268.800 256.800 M254.500 257.476 C 254.885 257.576,255.515 257.576,255.900 257.476 C 256.285 257.375,255.970 257.293,255.200 257.293 C 254.430 257.293,254.115 257.375,254.500 257.476 M264.100 257.476 C 264.485 257.576,265.115 257.576,265.500 257.476 C 265.885 257.375,265.570 257.293,264.800 257.293 C 264.030 257.293,263.715 257.375,264.100 257.476 M257.700 257.876 C 258.085 257.976,258.715 257.976,259.100 257.876 C 259.485 257.775,259.170 257.693,258.400 257.693 C 257.630 257.693,257.315 257.775,257.700 257.876 M260.500 257.876 C 260.885 257.976,261.515 257.976,261.900 257.876 C 262.285 257.775,261.970 257.693,261.200 257.693 C 260.430 257.693,260.115 257.775,260.500 257.876 M247.200 258.382 C 247.530 258.605,248.145 258.791,248.567 258.794 C 249.590 258.802,249.271 258.573,247.800 258.244 C 246.924 258.048,246.762 258.085,247.200 258.382 M271.200 258.400 C 270.376 258.664,270.341 258.726,271.000 258.754 C 271.440 258.773,272.070 258.613,272.400 258.400 C 273.101 257.947,272.614 257.947,271.200 258.400 M50.800 259.177 C 50.250 259.341,51.510 259.398,53.600 259.305 C 55.690 259.212,57.580 259.074,57.800 258.999 C 58.626 258.718,51.757 258.892,50.800 259.177 M79.407 260.393 C 78.552 261.269,77.930 262.045,78.026 262.118 C 78.122 262.191,78.898 261.474,79.752 260.525 C 81.701 258.359,81.477 258.273,79.407 260.393 M251.400 259.210 C 252.170 259.531,255.907 259.751,255.567 259.455 C 255.475 259.376,254.320 259.213,253.000 259.093 C 251.551 258.962,250.917 259.008,251.400 259.210 M265.800 259.200 L 263.800 259.474 265.600 259.509 C 266.590 259.528,267.760 259.389,268.200 259.200 C 269.113 258.808,268.662 258.808,265.800 259.200 M67.044 267.000 C 67.373 268.471,67.602 268.790,67.594 267.767 C 67.591 267.345,67.405 266.730,67.182 266.400 C 66.885 265.962,66.848 266.124,67.044 267.000 M75.324 270.200 C 75.326 271.520,75.401 272.012,75.490 271.293 C 75.579 270.574,75.577 269.494,75.486 268.893 C 75.395 268.292,75.322 268.880,75.324 270.200 M67.246 272.467 C 67.221 272.834,67.096 273.464,66.970 273.867 C 66.752 274.562,66.763 274.563,67.197 273.887 C 67.448 273.496,67.573 272.866,67.473 272.487 C 67.311 271.868,67.288 271.866,67.246 272.467 M63.800 278.278 C 62.700 279.294,62.160 279.932,62.600 279.695 C 63.362 279.286,66.353 276.383,65.978 276.416 C 65.880 276.425,64.900 277.263,63.800 278.278 M78.400 278.925 C 78.400 278.994,78.985 279.579,79.700 280.225 L 81.000 281.400 79.825 280.100 C 78.730 278.888,78.400 278.616,78.400 278.925 M153.932 284.300 C 189.205 284.356,246.805 284.356,281.932 284.300 C 317.060 284.244,288.200 284.198,217.800 284.198 C 147.400 284.198,118.660 284.244,153.932 284.300 M41.787 339.000 C 41.787 351.540,41.838 356.612,41.900 350.272 C 41.962 343.931,41.962 333.671,41.900 327.472 C 41.838 321.272,41.787 326.460,41.787 339.000 M78.200 319.807 C 78.640 320.166,79.360 320.635,79.800 320.851 L 80.600 321.244 79.800 320.593 C 79.360 320.234,78.640 319.765,78.200 319.549 L 77.400 319.156 78.200 319.807 M197.600 325.194 C 197.930 325.411,198.635 325.591,199.167 325.594 C 200.451 325.602,200.125 325.375,198.400 325.058 C 197.415 324.877,197.178 324.918,197.600 325.194 M330.766 325.326 C 330.947 325.507,331.793 325.593,332.647 325.519 L 334.200 325.383 332.319 325.190 C 331.284 325.084,330.585 325.145,330.766 325.326 M133.280 328.900 C 133.209 331.999,133.280 332.399,133.900 332.394 C 134.377 332.390,134.447 332.290,134.118 332.082 C 133.830 331.898,133.581 330.496,133.499 328.588 L 133.361 325.400 133.280 328.900 M240.891 348.276 C 240.841 360.858,240.935 371.236,241.100 371.338 C 241.372 371.507,241.368 354.762,241.090 333.600 C 241.031 329.090,240.942 335.694,240.891 348.276 M149.397 328.001 C 151.293 330.218,151.320 330.242,150.886 329.400 C 150.659 328.960,149.962 328.151,149.337 327.601 L 148.200 326.603 149.397 328.001 M136.175 328.900 L 135.000 330.200 136.300 329.025 C 137.512 327.930,137.784 327.600,137.475 327.600 C 137.406 327.600,136.821 328.185,136.175 328.900 M278.600 330.000 C 279.459 330.880,280.252 331.600,280.362 331.600 C 280.472 331.600,279.859 330.880,279.000 330.000 C 278.141 329.120,277.348 328.400,277.238 328.400 C 277.128 328.400,277.741 329.120,278.600 330.000 M210.015 331.400 C 210.017 331.620,210.386 332.250,210.836 332.800 C 211.379 333.464,211.515 333.531,211.240 333.000 C 210.566 331.695,210.012 330.972,210.015 331.400 M326.800 333.200 C 325.486 334.514,326.453 337.600,328.180 337.600 C 328.360 337.600,328.034 337.227,327.454 336.771 C 326.162 335.755,326.090 334.320,327.275 333.216 C 327.757 332.767,328.027 332.400,327.875 332.400 C 327.724 332.400,327.240 332.760,326.800 333.200 M308.928 336.400 C 308.928 337.830,309.001 338.415,309.089 337.700 C 309.178 336.985,309.178 335.815,309.089 335.100 C 309.001 334.385,308.928 334.970,308.928 336.400 M88.931 339.000 C 88.933 340.540,89.005 341.121,89.092 340.291 C 89.179 339.461,89.177 338.201,89.089 337.491 C 89.000 336.781,88.929 337.460,88.931 339.000 M196.000 338.911 C 196.000 338.987,196.585 339.478,197.300 340.001 C 198.104 340.590,198.384 340.687,198.033 340.255 C 197.500 339.599,196.000 338.607,196.000 338.911 M190.955 340.612 C 190.590 341.169,190.364 341.698,190.453 341.787 C 190.542 341.876,190.918 341.420,191.289 340.774 C 192.114 339.336,191.869 339.217,190.955 340.612 M133.979 342.655 C 133.758 343.236,133.652 343.785,133.743 343.876 C 133.833 343.967,134.099 343.492,134.333 342.820 C 134.853 341.328,134.539 341.182,133.979 342.655 M198.582 343.200 C 198.582 344.548,198.651 344.704,198.952 344.030 C 199.179 343.521,199.179 342.879,198.952 342.370 C 198.651 341.696,198.582 341.852,198.582 343.200 M174.901 343.400 C 174.905 344.280,174.987 344.593,175.083 344.095 C 175.179 343.598,175.175 342.878,175.075 342.495 C 174.975 342.113,174.896 342.520,174.901 343.400 M141.115 342.872 C 141.492 343.021,142.610 343.144,143.600 343.144 C 144.590 343.144,145.708 343.021,146.085 342.872 C 146.462 342.722,145.344 342.600,143.600 342.600 C 141.856 342.600,140.738 342.722,141.115 342.872 M190.400 344.689 C 190.400 344.921,190.771 345.536,191.224 346.056 L 192.047 347.000 191.345 345.800 C 190.420 344.221,190.400 344.197,190.400 344.689 M133.199 353.281 C 133.090 357.835,133.139 361.422,133.309 361.252 C 133.478 361.082,133.568 357.356,133.508 352.971 L 133.398 345.000 133.199 353.281 M213.693 347.200 C 213.693 347.970,213.775 348.285,213.876 347.900 C 213.976 347.515,213.976 346.885,213.876 346.500 C 213.775 346.115,213.693 346.430,213.693 347.200 M342.600 350.000 C 342.600 351.744,342.722 352.862,342.872 352.485 C 343.021 352.108,343.144 350.990,343.144 350.000 C 343.144 349.010,343.021 347.892,342.872 347.515 C 342.722 347.138,342.600 348.256,342.600 350.000 M86.000 350.000 C 85.551 350.880,85.274 351.600,85.384 351.600 C 85.494 351.600,85.951 350.880,86.400 350.000 C 86.849 349.120,87.126 348.400,87.016 348.400 C 86.906 348.400,86.449 349.120,86.000 350.000 M261.700 349.076 C 262.085 349.176,262.715 349.176,263.100 349.076 C 263.485 348.975,263.170 348.893,262.400 348.893 C 261.630 348.893,261.315 348.975,261.700 349.076 M323.600 349.668 C 324.602 350.645,325.110 350.825,324.618 350.029 C 324.473 349.795,323.960 349.399,323.478 349.149 C 322.683 348.736,322.694 348.785,323.600 349.668 M310.911 350.100 C 310.421 350.734,309.962 352.000,310.222 352.000 C 310.331 352.000,310.595 351.539,310.809 350.976 C 311.046 350.353,311.380 350.064,311.661 350.238 C 311.948 350.415,312.015 350.348,311.838 350.062 C 311.479 349.481,311.387 349.484,310.911 350.100 M313.600 352.020 C 314.987 352.961,315.778 353.235,314.800 352.436 C 314.250 351.986,313.620 351.617,313.400 351.615 C 313.180 351.613,313.270 351.796,313.600 352.020 M210.399 354.900 C 209.810 355.704,209.713 355.984,210.145 355.633 C 210.801 355.100,211.793 353.600,211.489 353.600 C 211.413 353.600,210.922 354.185,210.399 354.900 M319.700 354.687 C 320.305 354.778,321.295 354.778,321.900 354.687 C 322.505 354.595,322.010 354.520,320.800 354.520 C 319.590 354.520,319.095 354.595,319.700 354.687 M180.100 356.627 C 181.145 357.728,182.585 358.944,183.300 359.331 C 184.554 360.010,184.565 360.010,183.600 359.321 C 183.050 358.928,181.610 357.712,180.400 356.617 L 178.200 354.627 180.100 356.627 M339.826 357.513 C 338.415 359.203,338.388 359.275,339.560 358.200 C 340.671 357.182,341.888 355.570,341.514 355.613 C 341.451 355.620,340.692 356.475,339.826 357.513 M67.457 361.107 C 67.353 361.276,67.972 361.348,68.834 361.265 C 69.695 361.183,70.400 361.045,70.400 360.958 C 70.400 360.660,67.647 360.800,67.457 361.107 M269.600 361.218 C 269.162 361.515,269.324 361.552,270.200 361.356 C 271.671 361.027,271.990 360.798,270.967 360.806 C 270.545 360.809,269.930 360.995,269.600 361.218 M190.400 362.023 C 191.357 362.308,198.226 362.482,197.400 362.201 C 197.180 362.126,195.290 361.988,193.200 361.895 C 191.110 361.802,189.850 361.859,190.400 362.023 M320.500 361.876 C 320.885 361.976,321.515 361.976,321.900 361.876 C 322.285 361.775,321.970 361.693,321.200 361.693 C 320.430 361.693,320.115 361.775,320.500 361.876 M326.600 362.000 L 322.600 362.245 326.400 362.275 C 328.490 362.292,330.740 362.168,331.400 362.000 C 332.839 361.634,332.575 361.634,326.600 362.000 " stroke="none" fill="#9494af" fill-rule="evenodd"></path><path id="path4" d="M118.700 115.900 C 124.255 115.962,133.345 115.962,138.900 115.900 C 144.455 115.837,139.910 115.786,128.800 115.786 C 117.690 115.786,113.145 115.837,118.700 115.900 M217.500 128.700 C 243.295 128.757,285.505 128.757,311.300 128.700 C 337.095 128.643,315.990 128.597,264.400 128.597 C 212.810 128.597,191.705 128.643,217.500 128.700 M121.100 143.500 C 127.755 143.561,138.645 143.561,145.300 143.500 C 151.955 143.438,146.510 143.388,133.200 143.388 C 119.890 143.388,114.445 143.438,121.100 143.500 M147.720 185.600 C 147.720 186.810,147.795 187.305,147.887 186.700 C 147.978 186.095,147.978 185.105,147.887 184.500 C 147.795 183.895,147.720 184.390,147.720 185.600 M37.872 202.300 C 44.071 202.362,54.331 202.362,60.672 202.300 C 67.012 202.238,61.940 202.187,49.400 202.187 C 36.860 202.187,31.672 202.238,37.872 202.300 M94.900 255.899 C 97.485 255.968,101.715 255.968,104.300 255.899 C 106.885 255.829,104.770 255.772,99.600 255.772 C 94.430 255.772,92.315 255.829,94.900 255.899 M54.300 281.489 C 55.015 281.578,56.185 281.578,56.900 281.489 C 57.615 281.401,57.030 281.328,55.600 281.328 C 54.170 281.328,53.585 281.401,54.300 281.489 M48.325 316.299 C 51.914 316.366,57.674 316.366,61.125 316.299 C 64.576 316.233,61.640 316.178,54.600 316.178 C 47.560 316.179,44.736 316.233,48.325 316.299 M41.387 338.800 C 41.387 351.230,41.438 356.315,41.500 350.100 C 41.562 343.885,41.562 333.715,41.500 327.500 C 41.438 321.285,41.387 326.370,41.387 338.800 M119.678 325.498 C 122.031 325.569,125.991 325.569,128.478 325.499 C 130.965 325.429,129.040 325.371,124.200 325.370 C 119.360 325.370,117.325 325.428,119.678 325.498 M142.700 325.482 C 143.195 325.578,144.005 325.578,144.500 325.482 C 144.995 325.387,144.590 325.309,143.600 325.309 C 142.610 325.309,142.205 325.387,142.700 325.482 M245.723 325.499 C 248.320 325.569,252.460 325.568,254.923 325.498 C 257.385 325.428,255.260 325.371,250.200 325.372 C 245.140 325.372,243.125 325.429,245.723 325.499 M267.300 325.487 C 267.905 325.578,268.895 325.578,269.500 325.487 C 270.105 325.395,269.610 325.320,268.400 325.320 C 267.190 325.320,266.695 325.395,267.300 325.487 M214.131 343.400 C 214.133 344.940,214.205 345.521,214.292 344.691 C 214.379 343.861,214.377 342.601,214.289 341.891 C 214.200 341.181,214.129 341.860,214.131 343.400 M190.493 343.200 C 190.493 343.970,190.575 344.285,190.676 343.900 C 190.776 343.515,190.776 342.885,190.676 342.500 C 190.575 342.115,190.493 342.430,190.493 343.200 M82.575 354.900 L 81.400 356.200 82.700 355.025 C 83.912 353.930,84.184 353.600,83.875 353.600 C 83.806 353.600,83.221 354.185,82.575 354.900 " stroke="none" fill="#9c94b4" fill-rule="evenodd"></path></g></svg>