<svg id="svg" version="1.1" xmlns="http://www.w3.org/2000/svg" xmlns:xlink="http://www.w3.org/1999/xlink" width="400" height="400" viewBox="0, 0, 400,400"><g id="svgg"><path id="path0" d="M73.400 97.572 C 64.660 99.085,63.259 111.320,71.400 115.035 C 71.840 115.236,81.311 115.490,92.446 115.600 L 112.692 115.800 114.661 117.144 C 116.836 118.629,118.154 120.368,118.582 122.320 L 118.864 123.602 190.283 123.501 L 261.703 123.400 264.432 115.200 C 265.932 110.690,267.170 106.640,267.182 106.200 C 267.257 103.434,264.550 99.449,261.676 98.095 C 260.136 97.370,77.501 96.862,73.400 97.572 M27.800 99.681 C 21.319 101.936,21.663 111.736,28.289 113.576 C 30.355 114.150,50.913 114.131,52.994 113.553 C 59.561 111.730,60.165 102.434,53.886 99.810 C 52.119 99.072,29.868 98.961,27.800 99.681 M151.069 108.958 C 153.515 111.062,151.903 115.200,148.636 115.200 C 146.658 115.200,145.200 113.673,145.200 111.600 C 145.200 108.406,148.632 106.861,151.069 108.958 M164.831 109.169 C 168.111 112.449,163.587 117.157,160.031 114.164 C 157.546 112.073,159.152 108.000,162.461 108.000 C 163.255 108.000,164.058 108.397,164.831 109.169 M239.235 108.513 C 241.373 110.154,241.202 113.724,238.937 114.756 C 238.306 115.044,234.439 115.200,227.963 115.200 L 217.964 115.200 216.982 114.218 C 215.576 112.812,215.612 110.321,217.058 108.981 L 218.117 108.000 228.358 108.013 C 235.778 108.022,238.775 108.160,239.235 108.513 M117.199 130.261 C 116.414 131.305,115.010 132.524,114.000 133.039 L 112.200 133.957 75.948 134.240 C 40.248 134.518,39.669 134.535,37.954 135.361 C 31.560 138.441,31.782 148.849,38.301 151.643 C 39.978 152.362,41.509 152.400,68.933 152.402 C 100.710 152.405,99.879 152.342,102.482 154.947 C 106.191 158.660,106.465 163.259,103.233 167.562 C 101.083 170.425,99.429 170.792,88.660 170.796 C 78.047 170.800,77.655 170.878,75.029 173.505 C 71.270 177.264,71.904 184.200,76.281 187.199 C 79.048 189.096,80.471 189.187,107.274 189.194 C 134.450 189.201,133.460 189.117,136.175 191.620 C 141.250 196.298,139.468 204.686,132.901 207.029 C 131.697 207.459,125.176 207.569,100.000 207.586 L 68.600 207.608 66.600 208.547 C 59.464 211.899,60.035 222.457,67.508 225.341 C 70.011 226.307,219.816 226.350,222.994 225.386 C 228.445 223.733,229.194 222.559,233.846 208.371 C 235.969 201.897,239.189 192.100,241.002 186.600 C 242.815 181.100,246.682 169.310,249.595 160.400 C 252.508 151.490,256.021 140.780,257.400 136.600 C 258.780 132.420,259.829 128.865,259.731 128.700 C 259.633 128.535,227.838 128.400,189.076 128.400 L 118.599 128.400 117.199 130.261 M182.364 140.952 C 196.591 145.965,207.098 162.351,205.010 176.271 L 204.735 178.107 202.467 177.862 C 199.984 177.594,197.287 176.652,194.200 174.976 C 187.954 171.585,180.577 171.632,173.163 175.109 C 167.510 177.761,167.353 177.800,162.200 177.800 C 157.016 177.800,155.851 177.502,150.527 174.814 C 149.167 174.127,146.490 173.258,144.578 172.882 L 141.102 172.200 141.346 169.200 C 142.973 149.256,164.283 134.580,182.364 140.952 M263.509 144.043 C 262.662 146.360,259.170 156.459,257.646 161.000 C 256.591 164.146,252.017 177.463,247.756 189.800 C 246.996 192.000,245.488 196.410,244.405 199.600 C 243.322 202.790,241.344 208.550,240.010 212.400 C 238.676 216.250,236.864 221.560,235.985 224.200 C 235.106 226.840,234.007 230.035,233.544 231.300 L 232.702 233.600 193.211 233.600 C 165.775 233.600,153.338 233.733,152.470 234.035 C 149.511 235.067,148.861 238.471,150.960 241.948 C 155.669 249.746,156.148 256.733,152.791 268.659 C 152.395 270.065,152.430 270.542,153.022 271.789 C 154.467 274.835,150.030 274.585,205.219 274.728 L 254.673 274.855 255.883 273.837 C 256.742 273.114,257.360 271.972,258.011 269.909 C 260.295 262.662,264.609 255.538,270.378 249.484 C 279.161 240.267,287.627 235.274,301.400 231.187 C 313.507 227.595,329.032 231.651,335.838 240.185 C 341.544 247.340,343.867 261.609,341.053 272.213 C 339.756 277.100,340.574 277.400,355.182 277.400 C 370.256 277.400,369.633 277.759,372.186 267.600 C 372.987 264.410,374.097 260.090,374.652 258.000 C 375.207 255.910,375.904 253.210,376.200 252.000 C 376.497 250.790,377.385 247.325,378.173 244.301 C 381.783 230.454,382.519 227.607,383.213 224.800 C 383.621 223.150,384.235 221.012,384.577 220.050 C 385.853 216.463,385.107 213.339,382.499 211.350 C 380.540 209.856,361.758 201.574,353.000 198.343 C 351.240 197.693,349.314 196.951,348.721 196.693 C 347.282 196.067,346.928 195.431,334.402 171.000 C 330.541 163.470,328.220 159.001,323.496 150.000 C 319.508 142.403,321.858 142.921,289.776 142.568 L 264.152 142.286 263.509 144.043 M15.000 173.065 C 8.841 176.312,9.483 185.045,16.009 186.803 C 19.017 187.612,61.132 187.146,62.708 186.286 C 68.014 183.387,67.680 175.856,62.120 173.047 C 60.204 172.079,16.839 172.095,15.000 173.065 M150.627 175.958 C 159.136 180.022,165.080 180.002,173.800 175.880 L 178.200 173.800 183.800 173.800 L 189.400 173.800 193.800 175.883 C 198.247 177.989,200.747 178.772,203.076 178.790 C 204.824 178.804,204.942 179.180,204.170 182.294 C 197.910 207.553,170.508 217.087,152.251 200.359 C 145.687 194.344,141.200 184.647,141.200 176.478 L 141.200 173.484 143.841 173.731 C 145.854 173.919,147.468 174.449,150.627 175.958 M176.625 177.557 C 173.954 178.497,173.964 178.928,176.684 180.047 C 181.036 181.838,193.225 180.958,191.577 178.973 C 189.920 176.976,180.744 176.107,176.625 177.557 M172.629 184.229 C 171.283 185.574,172.272 188.000,174.167 188.000 C 175.261 188.000,176.400 186.843,176.400 185.730 C 176.400 183.957,173.897 182.960,172.629 184.229 M187.120 186.419 C 185.754 187.784,185.723 189.789,187.045 191.250 C 188.130 192.449,190.924 192.277,191.971 190.946 C 194.714 187.459,190.247 183.291,187.120 186.419 M39.800 209.987 C 33.627 212.955,33.779 221.816,40.033 223.610 C 48.815 226.128,56.461 221.208,54.226 214.478 C 52.683 209.832,45.059 207.458,39.800 209.987 M63.326 234.003 C 62.152 234.476,62.037 234.731,59.263 243.002 C 57.935 246.961,55.219 254.970,53.227 260.800 C 48.218 275.457,47.756 274.400,59.167 274.400 C 68.327 274.400,67.654 274.696,68.824 270.151 C 69.612 267.092,69.952 266.187,71.737 262.400 C 75.240 254.967,82.808 246.417,91.065 240.564 L 94.841 237.888 94.720 236.253 C 94.526 233.608,94.530 233.609,78.400 233.631 C 70.590 233.642,63.807 233.809,63.326 234.003 M113.800 240.162 C 88.782 244.959,69.170 271.538,76.878 290.200 C 86.580 313.690,129.499 303.776,142.605 275.017 C 152.549 253.197,137.949 235.531,113.800 240.162 M303.800 240.001 C 278.325 244.553,257.818 272.212,266.283 290.600 C 276.601 313.010,317.381 304.114,331.166 276.446 C 342.223 254.256,328.239 235.633,303.800 240.001 " stroke="none" fill="#fbfbfb" fill-rule="evenodd"></path><path id="path1" d="M51.380 2.731 C 51.171 2.912,49.411 3.280,47.469 3.547 C 45.527 3.813,43.637 4.179,43.269 4.358 C 42.336 4.812,38.870 5.985,37.241 6.398 C 36.494 6.587,35.772 6.921,35.637 7.139 C 35.502 7.358,34.899 7.660,34.296 7.812 C 33.693 7.963,33.200 8.247,33.200 8.443 C 33.200 8.640,32.967 8.800,32.682 8.800 C 32.396 8.800,30.849 9.610,29.244 10.600 C 27.638 11.590,26.151 12.400,25.938 12.400 C 25.726 12.400,25.664 12.580,25.800 12.800 C 25.936 13.020,25.827 13.200,25.557 13.200 C 25.288 13.200,24.782 13.470,24.434 13.799 C 22.229 15.884,20.101 17.616,19.494 17.820 C 19.106 17.951,18.884 18.212,19.000 18.400 C 19.116 18.588,18.849 18.857,18.406 18.998 C 17.963 19.139,17.600 19.403,17.600 19.585 C 17.600 19.767,16.694 20.879,15.587 22.058 C 14.479 23.236,12.834 25.325,11.931 26.700 C 11.028 28.075,10.104 29.200,9.878 29.200 C 9.652 29.200,9.576 29.310,9.711 29.444 C 9.845 29.578,9.541 30.343,9.036 31.144 C 8.222 32.433,7.215 34.495,5.361 38.660 C 5.052 39.354,4.800 40.173,4.800 40.480 C 4.800 40.788,4.628 41.212,4.418 41.422 C 3.775 42.065,2.358 48.163,1.588 53.600 C 1.095 57.085,1.338 285.348,1.842 291.900 L 2.066 294.800 40.133 294.802 L 78.200 294.805 80.371 297.002 C 81.565 298.211,82.709 299.200,82.915 299.200 C 83.120 299.200,82.312 298.239,81.119 297.066 C 78.744 294.728,76.935 291.802,75.760 288.400 C 74.221 283.944,75.113 272.234,77.207 269.400 C 77.369 269.180,77.637 268.550,77.802 268.000 C 77.966 267.450,78.787 265.819,79.625 264.375 C 93.135 241.093,125.097 231.361,139.993 245.993 C 151.601 257.396,146.307 279.030,128.500 292.962 C 127.125 294.038,126.000 294.936,126.000 294.959 C 126.000 294.982,158.040 295.000,197.200 295.000 C 236.360 295.000,268.400 294.943,268.400 294.873 C 268.400 294.804,267.948 294.154,267.395 293.429 C 264.867 290.114,263.500 282.802,264.366 277.232 C 268.476 250.826,303.765 230.642,324.961 242.572 C 341.972 252.147,337.484 278.875,316.293 294.200 L 315.186 295.000 354.993 294.896 L 394.800 294.792 394.872 292.096 L 394.944 289.400 395.172 292.400 C 395.297 294.050,395.540 284.420,395.711 271.000 C 396.119 239.025,396.060 54.400,395.642 54.400 C 395.464 54.400,395.206 52.938,395.068 51.152 C 394.930 49.365,394.657 47.700,394.461 47.452 C 394.265 47.203,393.977 46.280,393.820 45.400 C 393.450 43.315,391.885 38.638,391.500 38.467 C 391.335 38.393,391.200 38.099,391.200 37.812 C 391.200 34.125,380.697 20.028,374.400 15.264 C 373.630 14.681,372.910 14.113,372.800 14.001 C 372.690 13.889,371.790 13.259,370.800 12.600 C 369.810 11.941,368.910 11.292,368.800 11.157 C 368.690 11.023,367.070 10.122,365.200 9.156 C 363.330 8.190,361.710 7.291,361.600 7.157 C 361.490 7.023,360.455 6.674,359.300 6.381 C 358.145 6.088,357.200 5.723,357.200 5.569 C 357.200 5.415,356.526 5.163,355.703 5.008 C 354.880 4.854,354.025 4.614,353.803 4.475 C 353.271 4.141,352.751 4.036,349.200 3.539 C 347.550 3.309,345.887 2.958,345.505 2.760 C 344.625 2.304,51.904 2.274,51.380 2.731 M260.130 97.361 C 264.194 98.317,267.180 101.760,267.320 105.651 C 267.374 107.152,264.559 117.040,263.178 120.200 C 262.985 120.640,262.675 121.630,262.489 122.400 L 262.149 123.800 190.434 123.800 L 118.720 123.800 117.973 121.832 C 115.815 116.147,115.165 116.001,92.027 115.998 C 71.815 115.995,71.430 115.958,68.882 113.777 C 63.091 108.820,65.154 99.394,72.461 97.428 C 75.591 96.586,256.561 96.521,260.130 97.361 M55.266 100.206 C 59.852 103.395,59.779 110.018,55.123 113.098 L 53.458 114.200 40.629 114.200 L 27.800 114.200 26.351 113.219 C 22.084 110.331,21.458 104.519,25.040 101.040 C 27.216 98.927,27.814 98.849,41.266 98.928 L 53.533 99.000 55.266 100.206 M146.470 109.326 C 144.576 111.341,145.948 114.816,148.626 114.787 C 152.828 114.742,152.773 108.456,148.570 108.413 C 147.789 108.405,147.022 108.738,146.470 109.326 M160.182 109.382 C 157.290 112.274,161.318 116.510,164.546 113.971 C 166.746 112.240,165.267 108.400,162.400 108.400 C 161.621 108.400,160.801 108.763,160.182 109.382 M217.777 108.706 C 215.922 109.994,215.631 111.900,217.036 113.569 L 218.071 114.800 228.182 114.800 C 239.849 114.800,240.400 114.656,240.400 111.600 C 240.400 108.546,239.841 108.399,228.246 108.406 C 222.721 108.409,218.010 108.544,217.777 108.706 M259.727 128.228 C 260.469 128.512,260.403 128.768,256.767 139.772 C 255.245 144.377,254.000 148.310,254.000 148.512 C 254.000 148.714,253.751 149.446,253.446 150.140 C 253.141 150.833,251.774 154.910,250.406 159.200 C 249.039 163.490,247.772 167.360,247.590 167.800 C 247.408 168.240,246.765 170.220,246.160 172.200 C 245.555 174.180,244.923 176.070,244.757 176.400 C 244.590 176.730,243.349 180.510,241.999 184.800 C 240.648 189.090,239.395 192.960,239.213 193.400 C 239.032 193.840,238.402 195.730,237.813 197.600 C 237.224 199.470,236.596 201.360,236.416 201.800 C 236.236 202.240,234.973 206.110,233.608 210.400 C 229.926 221.975,229.289 223.064,225.033 225.046 L 223.000 225.992 145.487 225.996 C 60.505 226.000,66.518 226.176,64.013 223.614 C 59.031 218.517,60.944 209.912,67.560 207.662 C 68.542 207.328,77.386 207.200,99.393 207.200 C 128.810 207.200,134.400 207.004,134.400 205.972 C 134.400 205.797,134.717 205.553,135.104 205.430 C 138.169 204.458,139.708 197.123,137.545 193.800 C 134.553 189.202,136.182 189.433,105.000 189.200 L 78.200 189.000 76.413 187.793 C 70.054 183.500,70.940 174.066,78.000 170.899 C 79.102 170.405,81.586 170.221,89.664 170.036 L 99.929 169.800 101.464 168.564 C 105.698 165.157,106.131 159.425,102.454 155.464 C 100.042 152.866,101.983 153.020,68.934 152.800 L 38.868 152.600 37.145 151.389 C 31.307 147.285,31.435 138.537,37.384 135.126 L 39.000 134.200 75.200 133.876 C 95.144 133.697,112.045 133.383,112.836 133.178 C 114.291 132.799,117.600 129.865,117.600 128.954 C 117.600 128.686,117.825 128.376,118.100 128.265 C 118.796 127.984,258.997 127.947,259.727 128.228 M166.400 140.645 C 164.970 140.956,163.233 141.478,162.540 141.805 C 161.846 142.132,161.158 142.400,161.009 142.400 C 160.191 142.400,154.878 145.940,152.776 147.886 C 146.823 153.398,143.358 159.791,141.838 168.072 C 140.997 172.651,140.923 172.400,143.100 172.402 C 145.736 172.405,147.622 172.964,151.817 174.986 C 159.336 178.609,165.153 178.525,173.102 174.679 L 177.400 172.600 183.800 172.600 L 190.200 172.600 194.468 174.677 C 198.523 176.649,203.003 177.915,204.245 177.438 C 205.442 176.979,204.507 166.291,202.976 162.940 C 202.659 162.246,202.400 161.499,202.400 161.279 C 202.400 160.230,199.185 154.440,197.221 151.953 C 194.429 148.417,189.726 144.625,186.085 142.972 C 184.828 142.402,183.440 141.771,183.000 141.570 C 179.735 140.078,171.197 139.603,166.400 140.645 M315.191 142.614 C 319.686 143.409,320.993 144.326,322.942 148.052 C 323.791 149.674,325.522 152.980,326.790 155.400 C 328.059 157.820,331.034 163.580,333.403 168.200 C 348.922 198.470,347.494 196.042,350.230 196.808 C 351.215 197.084,352.117 197.465,352.234 197.655 C 352.351 197.845,352.724 198.000,353.063 198.000 C 353.402 198.000,354.246 198.262,354.940 198.583 C 355.633 198.904,357.730 199.778,359.600 200.526 C 373.763 206.191,382.457 210.438,384.134 212.510 C 385.624 214.351,386.066 217.846,385.086 220.046 C 384.754 220.791,383.905 223.650,383.198 226.400 C 382.492 229.150,381.564 232.750,381.136 234.400 C 380.707 236.050,380.110 238.390,379.808 239.600 C 379.506 240.810,378.867 243.240,378.388 245.000 C 377.909 246.760,377.275 249.190,376.980 250.400 C 376.684 251.610,376.089 253.950,375.657 255.600 C 373.607 263.426,371.904 269.987,371.440 271.847 C 370.003 277.609,368.987 278.000,355.461 278.000 C 340.048 278.000,339.745 277.844,341.016 270.535 C 342.734 260.656,341.434 249.955,337.743 243.600 C 324.156 220.207,281.248 229.465,262.993 259.728 C 261.087 262.887,258.400 268.873,258.400 269.959 C 258.400 271.161,256.779 273.840,255.647 274.509 C 254.053 275.450,157.699 275.591,155.487 274.655 C 152.453 273.371,151.731 270.025,153.402 265.000 C 154.062 263.015,154.200 261.527,154.200 256.400 C 154.200 249.257,153.831 247.897,149.964 240.800 C 148.991 239.015,148.997 237.338,149.980 235.726 C 151.474 233.276,149.087 233.418,192.584 233.200 L 232.567 233.000 234.657 226.800 C 235.807 223.390,236.836 220.330,236.946 220.000 C 237.055 219.670,238.423 215.710,239.985 211.200 C 241.548 206.690,243.640 200.570,244.633 197.600 C 245.626 194.630,246.599 191.840,246.795 191.400 C 246.991 190.960,247.981 188.080,248.996 185.000 C 250.011 181.920,251.004 179.040,251.202 178.600 C 251.400 178.160,251.739 177.170,251.956 176.400 C 252.172 175.630,253.087 172.930,253.989 170.400 C 254.891 167.870,256.509 163.190,257.585 160.000 C 260.950 150.024,263.412 143.020,263.736 142.500 C 264.234 141.700,310.603 141.803,315.191 142.614 M62.126 172.580 C 68.380 174.810,68.652 183.505,62.570 186.765 C 60.118 188.079,17.290 188.071,14.712 186.755 C 8.693 183.685,9.022 173.894,15.188 172.550 C 15.745 172.429,16.380 172.270,16.600 172.197 C 18.012 171.725,60.739 172.085,62.126 172.580 M50.274 209.625 C 55.763 211.699,56.572 219.384,51.695 223.109 C 49.657 224.664,41.837 224.974,39.100 223.607 C 33.573 220.847,33.733 211.862,39.350 209.594 C 40.576 209.099,48.943 209.123,50.274 209.625 M94.244 234.137 C 96.683 236.235,95.859 237.719,89.949 241.872 C 79.887 248.941,70.283 262.305,68.969 271.065 C 68.825 272.025,68.355 273.257,67.925 273.805 L 67.142 274.800 59.215 274.800 C 47.823 274.800,47.970 275.051,52.194 262.773 C 53.665 258.498,55.042 254.370,55.253 253.600 C 55.465 252.830,55.801 251.840,56.001 251.400 C 56.201 250.960,57.468 247.270,58.816 243.200 C 62.472 232.168,60.303 233.258,78.678 233.225 L 93.155 233.200 94.244 234.137 M123.310 296.539 C 122.160 297.207,121.282 297.815,121.358 297.891 C 121.555 298.089,123.706 297.099,124.293 296.540 C 124.564 296.282,125.014 295.990,125.293 295.890 C 125.572 295.791,125.710 295.623,125.600 295.518 C 125.490 295.413,124.459 295.872,123.310 296.539 M312.933 296.350 C 312.016 296.927,311.116 297.551,310.933 297.736 C 310.427 298.246,312.928 297.078,313.493 296.540 C 313.764 296.282,314.214 295.990,314.493 295.890 C 314.772 295.791,314.910 295.617,314.800 295.505 C 314.690 295.392,313.850 295.772,312.933 296.350 M268.806 295.850 C 268.827 297.039,275.674 302.010,277.271 301.995 C 277.562 301.993,276.585 301.315,275.101 300.490 C 273.616 299.665,271.591 298.205,270.601 297.245 C 269.610 296.285,268.803 295.657,268.806 295.850 M309.000 298.667 C 308.297 299.230,308.289 299.277,308.933 299.054 C 309.336 298.914,309.831 298.800,310.033 298.800 C 310.235 298.800,310.400 298.620,310.400 298.400 C 310.400 297.833,309.927 297.924,309.000 298.667 M116.800 300.041 C 116.030 300.486,115.760 300.728,116.200 300.579 C 116.640 300.431,117.315 300.219,117.700 300.108 C 118.085 299.997,118.400 299.748,118.400 299.553 C 118.400 299.104,118.452 299.088,116.800 300.041 M306.000 300.000 C 305.230 300.422,304.713 300.774,304.851 300.783 C 305.265 300.811,308.000 299.605,308.000 299.395 C 308.000 299.046,307.425 299.220,306.000 300.000 M83.820 299.955 C 84.029 300.150,84.650 300.428,85.200 300.572 L 86.200 300.833 85.200 300.231 C 84.086 299.559,83.209 299.384,83.820 299.955 M86.400 301.132 C 86.400 301.532,89.146 302.639,91.000 302.985 C 91.660 303.109,91.279 302.867,90.153 302.447 C 89.027 302.028,87.722 301.479,87.253 301.228 C 86.784 300.977,86.400 300.934,86.400 301.132 M113.000 301.402 L 111.800 301.967 113.000 301.732 C 113.660 301.603,114.371 301.340,114.580 301.148 C 115.150 300.626,114.387 300.748,113.000 301.402 M302.600 301.402 L 301.400 301.967 302.600 301.732 C 303.260 301.603,303.971 301.340,304.180 301.148 C 304.750 300.626,303.987 300.748,302.600 301.402 M109.000 302.624 C 107.453 303.167,107.445 303.179,108.750 302.993 C 109.493 302.887,110.347 302.800,110.650 302.800 C 110.953 302.800,111.200 302.620,111.200 302.400 C 111.200 301.903,110.992 301.924,109.000 302.624 M278.200 302.330 C 278.420 302.542,279.230 302.833,280.000 302.975 C 280.911 303.144,281.190 303.108,280.800 302.871 C 279.888 302.319,277.721 301.868,278.200 302.330 M298.464 302.473 C 297.509 302.687,296.822 302.955,296.937 303.070 C 297.249 303.383,300.361 302.787,300.622 302.365 C 300.880 301.946,300.807 301.950,298.464 302.473 M98.000 304.000 C 98.000 304.220,98.720 304.400,99.600 304.400 C 100.480 304.400,101.200 304.220,101.200 304.000 C 101.200 303.780,100.480 303.600,99.600 303.600 C 98.720 303.600,98.000 303.780,98.000 304.000 M287.200 304.000 C 287.200 304.220,287.920 304.400,288.800 304.400 C 289.680 304.400,290.400 304.220,290.400 304.000 C 290.400 303.780,289.680 303.600,288.800 303.600 C 287.920 303.600,287.200 303.780,287.200 304.000 " stroke="none" fill="#39478c" fill-rule="evenodd"></path><path id="path2" d="M1.399 301.200 C 1.453 344.910,1.640 351.913,2.773 352.800 C 2.913 352.910,3.231 353.900,3.479 355.000 C 4.074 357.644,5.262 360.966,5.672 361.133 C 5.853 361.207,6.000 361.533,6.000 361.858 C 6.000 362.621,7.989 366.840,8.674 367.529 C 8.964 367.819,9.200 368.301,9.200 368.600 C 9.200 368.899,9.425 369.386,9.700 369.682 C 10.559 370.609,12.000 372.752,12.000 373.103 C 12.000 373.287,12.532 373.879,13.183 374.419 C 13.834 374.958,14.375 375.580,14.387 375.800 C 14.415 376.352,22.232 384.000,22.768 384.000 C 23.005 384.000,23.200 384.189,23.200 384.419 C 23.200 384.650,23.785 385.093,24.500 385.404 C 25.215 385.714,25.630 385.976,25.422 385.984 C 24.845 386.008,27.679 388.000,28.290 388.000 C 28.584 388.000,28.924 388.259,29.046 388.576 C 29.167 388.892,29.792 389.266,30.433 389.407 C 31.075 389.548,31.600 389.800,31.600 389.968 C 31.600 390.135,32.320 390.510,33.200 390.800 C 34.080 391.090,34.800 391.479,34.800 391.664 C 34.800 391.849,34.990 392.000,35.222 392.000 C 35.454 392.000,36.399 392.344,37.322 392.764 C 38.245 393.184,39.675 393.654,40.500 393.808 C 41.325 393.963,42.000 394.229,42.000 394.399 C 42.000 394.570,42.855 394.836,43.900 394.992 C 44.945 395.148,45.980 395.419,46.200 395.595 C 47.606 396.719,57.833 396.800,198.631 396.800 C 339.381 396.800,349.249 396.722,350.609 395.593 C 350.835 395.405,351.960 395.127,353.110 394.974 C 354.259 394.822,355.200 394.569,355.200 394.412 C 355.200 394.255,356.190 393.906,357.400 393.635 C 358.610 393.364,359.600 392.996,359.600 392.816 C 359.600 392.636,360.230 392.371,361.000 392.226 C 361.770 392.082,362.400 391.821,362.400 391.646 C 362.400 391.471,363.120 391.090,364.000 390.800 C 364.880 390.510,365.600 390.135,365.600 389.968 C 365.600 389.800,366.140 389.545,366.800 389.400 C 367.460 389.255,368.000 388.966,368.000 388.758 C 368.000 388.550,368.450 388.209,369.000 388.000 C 369.550 387.791,370.000 387.435,370.000 387.210 C 370.000 386.984,370.242 386.800,370.539 386.800 C 370.835 386.800,371.467 386.485,371.943 386.100 C 372.418 385.715,373.285 385.040,373.868 384.600 C 375.478 383.386,382.400 376.568,382.400 376.197 C 382.400 376.018,382.899 375.405,383.508 374.836 C 384.118 374.266,384.883 373.260,385.208 372.600 C 385.533 371.940,386.024 371.256,386.299 371.080 C 386.575 370.904,386.800 370.499,386.800 370.180 C 386.800 369.861,386.968 369.600,387.174 369.600 C 387.380 369.600,387.776 368.970,388.054 368.200 C 388.333 367.430,388.690 366.800,388.849 366.800 C 389.007 366.800,389.255 366.260,389.400 365.600 C 389.545 364.940,389.822 364.400,390.016 364.400 C 390.209 364.400,390.584 363.680,390.847 362.800 C 391.111 361.920,391.458 361.200,391.619 361.200 C 391.779 361.200,392.026 360.588,392.166 359.840 C 392.306 359.092,392.669 357.967,392.973 357.340 C 393.276 356.713,393.653 355.390,393.811 354.400 C 393.969 353.410,394.252 352.502,394.440 352.382 C 394.629 352.262,394.904 350.591,395.051 348.668 C 395.199 346.746,395.473 345.078,395.660 344.963 C 395.847 344.847,395.958 326.718,395.907 304.676 C 395.845 277.893,395.743 269.708,395.600 280.000 C 395.482 288.470,395.309 294.050,395.215 292.400 L 395.043 289.400 394.903 292.100 L 394.763 294.800 355.243 294.800 C 316.436 294.800,315.705 294.814,314.761 295.593 C 314.233 296.029,313.620 296.530,313.400 296.707 C 313.180 296.885,312.415 297.270,311.700 297.563 C 310.985 297.857,310.400 298.255,310.400 298.449 C 310.400 298.642,310.210 298.800,309.978 298.800 C 309.585 298.800,307.256 299.774,304.704 301.006 C 304.101 301.297,303.021 301.660,302.304 301.814 C 301.587 301.967,300.814 302.241,300.586 302.424 C 299.983 302.906,295.365 303.593,292.700 303.597 C 291.435 303.599,290.400 303.780,290.400 304.000 C 290.400 304.220,289.680 304.400,288.800 304.400 C 287.920 304.400,287.200 304.220,287.200 304.000 C 287.200 303.780,286.165 303.596,284.900 303.590 C 282.479 303.580,279.676 303.078,278.000 302.354 C 273.783 300.532,269.418 297.561,268.961 296.200 C 268.813 295.760,268.491 295.268,268.246 295.106 C 268.001 294.944,236.013 294.809,197.161 294.806 C 119.551 294.799,126.736 294.609,124.173 296.740 C 123.938 296.936,123.083 297.335,122.273 297.628 C 121.463 297.921,120.800 298.290,120.800 298.449 C 120.800 298.607,120.260 298.855,119.600 299.000 C 118.940 299.145,118.400 299.400,118.400 299.568 C 118.400 299.735,117.635 300.113,116.700 300.408 C 115.765 300.703,114.820 301.076,114.600 301.236 C 114.380 301.397,113.525 301.655,112.700 301.809 C 111.875 301.963,111.200 302.223,111.200 302.386 C 111.200 302.802,106.091 303.600,103.423 303.600 C 102.200 303.600,101.200 303.780,101.200 304.000 C 101.200 304.220,100.480 304.400,99.600 304.400 C 98.720 304.400,98.000 304.245,98.000 304.056 C 98.000 303.867,96.515 303.618,94.700 303.501 C 91.554 303.300,86.913 302.030,86.422 301.236 C 86.296 301.031,85.684 300.736,85.064 300.580 C 84.443 300.424,83.841 300.050,83.725 299.749 C 83.609 299.447,83.295 299.200,83.028 299.200 C 82.760 299.200,81.565 298.211,80.371 297.002 L 78.200 294.805 40.100 294.802 C 9.918 294.800,1.988 294.696,1.943 294.300 C 1.912 294.025,1.765 285.430,1.615 275.200 C 1.424 262.124,1.360 269.846,1.399 301.200 " stroke="none" fill="#2b3066" fill-rule="evenodd"></path><path id="path3" d="M141.200 175.749 C 141.200 201.155,170.174 217.191,190.304 202.928 C 197.682 197.700,204.400 186.599,204.400 179.635 C 204.400 179.457,203.455 179.198,202.300 179.060 C 199.837 178.768,197.537 177.938,192.600 175.560 L 189.000 173.827 184.200 173.813 C 179.078 173.799,177.614 174.160,172.694 176.654 C 165.872 180.111,158.400 180.033,151.014 176.429 C 147.150 174.544,145.625 174.010,143.344 173.742 L 141.200 173.490 141.200 175.749 M188.400 177.196 C 189.170 177.415,190.424 177.976,191.187 178.443 L 192.573 179.294 191.187 180.004 C 186.764 182.271,174.000 181.332,174.000 178.739 C 174.000 176.952,183.827 175.899,188.400 177.196 M175.920 184.080 C 176.595 184.755,176.518 187.004,175.799 187.601 C 174.382 188.777,171.600 187.629,171.600 185.870 C 171.600 184.026,174.616 182.776,175.920 184.080 M192.031 186.369 C 193.392 187.730,193.500 188.903,192.428 190.662 C 190.950 193.084,187.454 192.786,186.193 190.130 C 184.452 186.461,189.117 183.456,192.031 186.369 " stroke="none" fill="#36accc" fill-rule="evenodd"></path><path id="path4" d="M73.423 97.147 C 72.775 97.286,114.615 97.400,166.400 97.400 C 218.185 97.400,260.025 97.286,259.377 97.147 C 258.730 97.008,216.890 96.895,166.400 96.895 C 115.910 96.895,74.070 97.008,73.423 97.147 M70.800 97.891 C 69.339 98.447,66.400 101.531,66.400 102.509 C 66.400 102.703,66.993 102.084,67.719 101.133 C 68.444 100.183,69.749 99.002,70.619 98.509 C 72.092 97.674,72.183 97.366,70.800 97.891 M261.885 98.228 C 263.630 98.991,265.570 101.109,266.476 103.238 C 267.021 104.520,267.159 104.673,266.981 103.800 C 266.464 101.253,263.010 97.542,261.240 97.633 C 260.888 97.651,261.178 97.918,261.885 98.228 M27.768 99.230 C 25.501 99.888,22.747 103.176,22.828 105.126 C 22.844 105.497,23.119 105.083,23.439 104.208 C 24.208 102.107,26.086 100.221,27.971 99.656 C 30.386 98.932,52.033 99.036,53.813 99.780 C 54.576 100.098,55.200 100.269,55.200 100.159 C 55.200 98.897,31.660 98.100,27.768 99.230 M55.612 100.700 C 55.605 100.975,55.762 101.200,55.961 101.200 C 56.159 101.200,56.696 101.785,57.154 102.500 C 57.612 103.215,57.990 103.578,57.993 103.306 C 57.997 103.035,57.465 102.225,56.812 101.506 C 56.158 100.788,55.618 100.425,55.612 100.700 M65.867 103.467 C 65.505 103.828,65.538 108.884,65.906 109.462 C 66.068 109.716,66.200 108.411,66.200 106.562 C 66.200 104.713,66.185 103.200,66.167 103.200 C 66.148 103.200,66.013 103.320,65.867 103.467 M58.171 106.647 C 58.154 108.096,58.283 108.996,58.465 108.709 C 58.868 108.073,58.889 105.159,58.494 104.538 C 58.332 104.284,58.187 105.234,58.171 106.647 M22.800 108.257 C 22.800 108.691,23.068 109.396,23.395 109.824 C 23.935 110.529,23.948 110.472,23.535 109.200 C 22.972 107.464,22.800 107.243,22.800 108.257 M266.200 109.600 C 265.825 110.729,265.615 111.748,265.732 111.865 C 265.849 111.983,266.227 111.131,266.571 109.971 C 267.385 107.232,267.086 106.933,266.200 109.600 M146.258 108.981 C 143.939 111.130,145.495 115.200,148.636 115.200 C 150.692 115.200,152.182 113.687,152.182 111.600 C 152.182 108.406,148.592 106.819,146.258 108.981 M160.031 109.036 C 159.052 109.859,158.800 110.384,158.800 111.600 C 158.800 114.674,162.420 116.251,164.678 114.161 L 165.800 113.122 164.646 113.961 C 162.301 115.666,159.200 114.322,159.200 111.600 C 159.200 107.534,164.826 107.380,165.605 111.425 L 165.908 113.000 165.954 111.669 C 166.060 108.601,162.453 106.997,160.031 109.036 M217.861 108.300 C 217.759 108.465,222.286 108.549,227.921 108.486 C 237.739 108.378,238.214 108.407,239.283 109.198 C 240.615 110.183,240.754 109.961,239.525 108.816 C 238.621 107.974,218.362 107.491,217.861 108.300 M150.484 108.945 C 152.921 110.797,151.662 114.754,148.626 114.787 C 145.948 114.816,144.576 111.341,146.470 109.326 C 147.444 108.288,149.378 108.105,150.484 108.945 M216.432 109.539 C 215.779 110.760,215.914 111.100,216.641 110.063 C 216.993 109.560,217.188 109.054,217.073 108.940 C 216.959 108.825,216.670 109.095,216.432 109.539 M57.146 110.558 C 55.794 113.527,53.538 113.996,40.600 113.996 C 28.792 113.996,27.536 113.822,25.324 111.880 C 24.412 111.079,24.059 110.906,24.378 111.415 C 24.656 111.862,25.541 112.671,26.342 113.214 L 27.800 114.200 40.629 114.200 L 53.458 114.200 55.118 113.102 C 56.520 112.174,58.493 109.600,57.802 109.600 C 57.681 109.600,57.386 110.031,57.146 110.558 M66.672 111.000 C 67.170 112.595,70.663 115.620,71.960 115.580 C 72.312 115.569,71.834 115.188,70.897 114.734 C 69.324 113.971,68.140 112.849,66.911 110.954 C 66.443 110.232,66.433 110.234,66.672 111.000 M240.493 111.600 C 240.493 112.370,240.575 112.685,240.676 112.300 C 240.776 111.915,240.776 111.285,240.676 110.900 C 240.575 110.515,240.493 110.830,240.493 111.600 M216.000 112.787 C 216.000 113.034,216.442 113.678,216.982 114.218 L 217.964 115.200 227.963 115.200 C 238.021 115.200,239.685 114.998,240.176 113.718 C 240.318 113.348,240.023 113.439,239.344 113.973 C 238.344 114.760,237.798 114.800,228.182 114.800 L 218.071 114.800 217.036 113.569 C 216.466 112.892,216.000 112.541,216.000 112.787 M264.657 114.457 C 264.316 115.620,264.107 116.640,264.192 116.725 C 264.276 116.810,264.627 115.931,264.971 114.771 C 265.316 113.612,265.525 112.592,265.437 112.504 C 265.349 112.416,264.998 113.295,264.657 114.457 M92.400 115.989 C 107.488 116.150,112.486 116.325,113.400 116.725 C 114.157 117.057,114.434 117.082,114.149 116.794 C 113.151 115.784,109.815 115.622,91.600 115.699 L 72.600 115.778 92.400 115.989 M115.913 118.469 C 116.635 119.237,117.562 120.750,117.973 121.832 L 118.720 123.800 190.434 123.800 L 262.149 123.800 262.497 122.456 C 262.689 121.717,262.756 121.022,262.646 120.912 C 262.536 120.802,262.289 121.317,262.097 122.056 L 261.749 123.400 190.307 123.501 L 118.864 123.602 118.582 122.320 C 118.224 120.688,116.997 118.811,115.650 117.835 C 114.789 117.211,114.836 117.325,115.913 118.469 M263.459 117.900 C 263.351 118.285,263.139 119.050,262.987 119.600 C 262.801 120.271,262.843 120.468,263.113 120.200 C 263.553 119.763,264.190 117.200,263.859 117.200 C 263.746 117.200,263.566 117.515,263.459 117.900 M118.100 128.265 C 117.825 128.376,117.600 128.686,117.600 128.954 C 117.600 129.223,116.835 130.223,115.900 131.177 C 114.798 132.302,114.527 132.741,115.129 132.426 C 115.640 132.159,116.621 131.143,117.308 130.167 L 118.559 128.393 189.441 128.497 C 228.427 128.554,260.116 128.468,259.862 128.306 C 259.352 127.982,118.902 127.941,118.100 128.265 M259.067 131.467 C 258.709 132.723,258.493 133.826,258.585 133.918 C 258.677 134.010,259.050 133.063,259.413 131.813 C 259.777 130.563,259.994 129.460,259.895 129.362 C 259.797 129.263,259.424 130.211,259.067 131.467 M112.400 133.233 C 111.630 133.426,94.980 133.737,75.400 133.924 C 51.271 134.156,45.858 134.271,58.600 134.281 C 89.284 134.308,113.078 133.883,113.661 133.300 C 113.935 133.025,114.079 132.819,113.980 132.841 C 113.881 132.864,113.170 133.040,112.400 133.233 M37.180 135.242 C 32.095 138.192,31.291 146.179,35.671 150.224 C 36.879 151.340,36.868 151.305,35.460 149.544 C 31.662 144.794,32.908 137.827,38.006 135.316 C 38.993 134.831,39.530 134.430,39.200 134.426 C 38.870 134.422,37.961 134.789,37.180 135.242 M257.600 135.800 C 257.336 136.599,257.210 137.344,257.320 137.454 C 257.430 137.564,257.736 136.999,258.000 136.200 C 258.264 135.401,258.390 134.656,258.280 134.546 C 258.170 134.436,257.864 135.001,257.600 135.800 M256.229 140.029 C 255.415 142.768,255.714 143.067,256.600 140.400 C 256.975 139.271,257.185 138.252,257.068 138.135 C 256.951 138.017,256.573 138.869,256.229 140.029 M167.200 140.006 C 164.198 140.627,163.497 140.831,163.693 141.027 C 163.796 141.130,165.179 140.941,166.767 140.607 C 168.354 140.273,171.159 140.000,173.000 140.000 C 174.841 140.000,177.646 140.273,179.233 140.607 C 182.362 141.265,183.421 141.138,180.938 140.403 C 178.915 139.805,169.493 139.532,167.200 140.006 M159.429 142.760 C 154.464 145.329,151.033 148.365,147.089 153.679 C 145.747 155.487,142.790 161.524,142.827 162.379 C 142.843 162.737,143.037 162.577,143.286 162.000 C 147.592 152.034,155.246 143.809,161.728 142.182 C 162.802 141.913,163.612 141.200,162.845 141.200 C 162.624 141.200,161.087 141.902,159.429 142.760 M182.974 141.557 C 183.124 141.801,183.474 142.000,183.750 142.000 C 186.089 142.000,197.200 150.324,197.200 152.076 C 197.200 152.254,197.397 152.400,197.637 152.400 C 198.374 152.400,194.773 148.399,192.215 146.375 C 188.803 143.676,182.135 140.200,182.974 141.557 M263.704 142.500 C 263.488 142.775,263.206 143.540,263.078 144.200 C 262.883 145.210,262.950 145.153,263.499 143.842 L 264.152 142.285 289.576 142.513 C 303.559 142.639,314.460 142.596,313.800 142.418 C 311.672 141.844,264.160 141.922,263.704 142.500 M254.237 146.190 C 253.651 148.071,253.061 149.923,252.927 150.305 C 252.763 150.769,252.815 150.867,253.083 150.600 C 253.561 150.123,255.728 143.195,255.477 142.944 C 255.382 142.848,254.824 144.309,254.237 146.190 M317.665 143.495 C 320.036 144.391,321.042 145.319,322.270 147.740 C 322.811 148.807,323.343 149.590,323.453 149.480 C 324.551 148.383,319.692 143.381,317.154 142.996 C 315.987 142.819,316.058 142.888,317.665 143.495 M262.000 147.000 C 261.736 147.799,261.610 148.544,261.720 148.654 C 261.830 148.764,262.136 148.199,262.400 147.400 C 262.664 146.601,262.790 145.856,262.680 145.746 C 262.570 145.636,262.264 146.201,262.000 147.000 M260.016 152.816 C 259.301 154.814,258.806 156.539,258.915 156.648 C 259.024 156.757,259.671 155.184,260.352 153.152 C 261.960 148.356,261.703 148.099,260.016 152.816 M323.838 150.600 C 323.996 151.040,324.254 151.580,324.412 151.800 C 324.571 152.020,326.549 155.800,328.808 160.200 C 331.067 164.600,333.080 168.380,333.282 168.600 C 333.864 169.237,333.198 167.671,331.581 164.600 C 330.770 163.060,328.804 159.280,327.212 156.200 C 324.477 150.908,323.178 148.752,323.838 150.600 M37.776 151.805 C 38.204 152.132,38.789 152.400,39.076 152.400 C 39.968 152.400,39.657 152.097,38.300 151.645 C 37.111 151.248,37.066 151.262,37.776 151.805 M251.259 155.259 C 250.555 157.488,250.055 159.388,250.148 159.481 C 250.241 159.574,250.894 157.827,251.600 155.600 C 252.306 153.373,252.806 151.473,252.711 151.378 C 252.617 151.284,251.963 153.030,251.259 155.259 M69.400 152.794 C 101.930 153.020,100.044 152.868,102.454 155.464 C 106.131 159.425,105.698 165.157,101.464 168.564 L 99.929 169.800 89.664 170.010 C 84.019 170.125,79.097 170.395,78.727 170.610 C 77.179 171.507,97.952 170.843,100.081 169.927 C 106.004 167.379,107.235 159.705,102.482 154.947 C 99.868 152.330,100.763 152.395,68.800 152.496 L 39.800 152.587 69.400 152.794 M198.779 154.200 C 200.112 156.458,201.106 157.358,199.969 155.277 C 199.451 154.330,198.759 153.340,198.431 153.077 C 198.101 152.813,198.256 153.314,198.779 154.200 M200.800 157.336 C 200.800 157.499,201.160 158.338,201.600 159.200 C 202.040 160.062,202.400 160.944,202.400 161.158 C 202.400 161.851,203.216 163.717,203.427 163.506 C 203.674 163.259,201.718 157.958,201.180 157.420 C 200.971 157.211,200.800 157.173,200.800 157.336 M257.829 159.229 C 257.484 160.388,257.280 161.413,257.374 161.507 C 257.468 161.602,257.827 160.731,258.171 159.571 C 258.516 158.412,258.720 157.387,258.626 157.293 C 258.532 157.198,258.173 158.069,257.829 159.229 M249.200 161.400 C 248.936 162.199,248.810 162.944,248.920 163.054 C 249.030 163.164,249.336 162.599,249.600 161.800 C 249.864 161.001,249.990 160.256,249.880 160.146 C 249.770 160.036,249.464 160.601,249.200 161.400 M256.400 163.400 C 256.136 164.199,256.015 164.948,256.131 165.064 C 256.247 165.180,256.530 164.593,256.760 163.760 C 257.303 161.792,257.023 161.512,256.400 163.400 M203.847 165.606 C 204.208 168.631,204.709 170.513,204.751 169.000 C 204.770 168.340,204.525 166.900,204.208 165.800 L 203.632 163.800 203.847 165.606 M141.870 165.281 C 141.471 166.908,141.090 170.400,141.312 170.400 C 141.600 170.400,142.535 164.802,142.289 164.555 C 142.183 164.449,141.995 164.776,141.870 165.281 M247.859 165.500 C 247.751 165.885,247.539 166.650,247.387 167.200 C 247.201 167.871,247.243 168.068,247.513 167.800 C 247.953 167.363,248.590 164.800,248.259 164.800 C 248.146 164.800,247.966 165.115,247.859 165.500 M255.281 166.687 C 254.642 168.353,254.322 169.600,254.535 169.600 C 254.786 169.600,256.040 165.906,255.853 165.719 C 255.773 165.640,255.516 166.075,255.281 166.687 M245.820 171.771 C 245.244 173.661,244.662 175.521,244.527 175.904 C 244.364 176.369,244.415 176.467,244.683 176.200 C 245.204 175.680,247.350 168.817,247.077 168.544 C 246.962 168.429,246.397 169.881,245.820 171.771 M333.613 169.424 C 333.606 169.656,333.864 170.196,334.187 170.624 C 334.510 171.051,334.780 171.209,334.787 170.976 C 334.794 170.744,334.536 170.204,334.213 169.776 C 333.890 169.349,333.620 169.191,333.613 169.424 M253.600 171.400 C 253.336 172.199,253.210 172.944,253.320 173.054 C 253.430 173.164,253.736 172.599,254.000 171.800 C 254.264 171.001,254.390 170.256,254.280 170.146 C 254.170 170.036,253.864 170.601,253.600 171.400 M75.700 172.234 C 74.111 173.486,72.390 176.327,72.428 177.635 C 72.447 178.290,72.638 178.009,73.022 176.762 C 73.540 175.079,74.946 173.332,77.000 171.816 C 77.440 171.491,77.620 171.222,77.400 171.217 C 77.180 171.213,76.415 171.670,75.700 172.234 M204.928 174.000 C 204.928 175.430,205.001 176.015,205.089 175.300 C 205.178 174.585,205.178 173.415,205.089 172.700 C 205.001 171.985,204.928 172.570,204.928 174.000 M335.113 172.300 C 335.726 173.794,339.699 181.421,340.062 181.800 C 340.629 182.392,340.088 181.193,337.489 176.100 C 335.485 172.172,334.251 170.198,335.113 172.300 M27.700 172.300 C 33.805 172.362,43.795 172.362,49.900 172.300 C 56.005 172.238,51.010 172.187,38.800 172.187 C 26.590 172.187,21.595 172.238,27.700 172.300 M14.298 172.833 C 8.739 176.071,8.969 183.825,14.712 186.755 C 17.296 188.074,59.976 188.078,62.556 186.760 C 64.215 185.913,65.774 184.303,66.256 182.940 C 66.400 182.533,65.955 182.959,65.267 183.886 C 62.844 187.150,64.156 186.986,39.491 187.113 C 24.977 187.188,17.052 187.083,16.009 186.803 C 9.483 185.045,8.841 176.312,15.000 173.065 C 15.660 172.717,15.930 172.430,15.600 172.428 C 15.270 172.426,14.684 172.608,14.298 172.833 M62.200 173.066 C 63.844 173.935,64.782 174.785,65.656 176.200 C 66.063 176.860,66.397 177.220,66.397 177.000 C 66.397 175.497,63.134 172.380,61.600 172.418 C 61.270 172.425,61.540 172.717,62.200 173.066 M146.200 173.194 C 147.740 173.592,149.071 173.851,149.157 173.769 C 149.458 173.482,145.385 172.389,144.200 172.437 C 143.760 172.456,144.660 172.796,146.200 173.194 M177.696 172.791 C 176.158 173.156,169.133 176.466,169.378 176.711 C 169.470 176.803,171.123 176.123,173.050 175.199 C 174.978 174.274,177.645 173.281,178.977 172.991 C 180.366 172.689,180.888 172.468,180.200 172.473 C 179.540 172.478,178.413 172.621,177.696 172.791 M187.400 172.612 C 188.822 173.141,192.365 173.866,192.197 173.594 C 192.084 173.413,191.086 173.070,189.977 172.832 C 188.064 172.422,186.539 172.292,187.400 172.612 M252.462 174.700 C 252.223 175.305,251.922 176.340,251.794 177.000 L 251.560 178.200 252.115 177.000 C 252.731 175.668,253.303 173.600,253.056 173.600 C 252.969 173.600,252.701 174.095,252.462 174.700 M149.600 174.201 C 149.600 174.452,154.548 176.805,155.039 176.786 C 155.386 176.773,150.153 174.000,149.781 174.000 C 149.682 174.000,149.600 174.090,149.600 174.201 M192.970 174.352 C 193.090 174.545,193.595 174.806,194.094 174.932 C 194.968 175.152,194.973 175.140,194.224 174.580 C 193.364 173.938,192.632 173.804,192.970 174.352 M195.200 175.420 C 195.200 175.665,197.793 176.810,198.287 176.783 C 198.653 176.764,195.945 175.242,195.500 175.217 C 195.335 175.208,195.200 175.299,195.200 175.420 M181.507 176.690 C 182.226 176.779,183.306 176.777,183.907 176.686 C 184.508 176.595,183.920 176.522,182.600 176.524 C 181.280 176.526,180.788 176.601,181.507 176.690 M156.200 177.301 C 156.733 177.633,158.738 177.800,162.200 177.800 C 165.662 177.800,167.667 177.633,168.200 177.301 C 168.878 176.877,168.726 176.847,167.200 177.101 C 166.210 177.265,163.960 177.400,162.200 177.400 C 160.440 177.400,158.190 177.265,157.200 177.101 C 155.674 176.847,155.522 176.877,156.200 177.301 M199.270 177.204 C 200.171 177.745,204.800 178.208,204.800 177.757 C 204.800 177.561,204.215 177.397,203.500 177.394 C 202.785 177.391,201.390 177.256,200.400 177.095 C 199.127 176.887,198.796 176.919,199.270 177.204 M243.600 178.600 C 243.336 179.399,243.215 180.148,243.331 180.264 C 243.447 180.380,243.730 179.793,243.960 178.960 C 244.503 176.992,244.223 176.712,243.600 178.600 M66.412 179.800 C 66.412 181.495,66.526 182.024,66.800 181.600 C 67.013 181.270,67.188 180.460,67.188 179.800 C 67.188 179.140,67.013 178.330,66.800 178.000 C 66.526 177.576,66.412 178.105,66.412 179.800 M251.022 178.843 C 250.037 181.628,248.824 185.757,248.953 185.886 C 249.041 185.974,249.671 184.384,250.352 182.352 C 251.033 180.320,251.507 178.574,251.405 178.472 C 251.303 178.369,251.130 178.536,251.022 178.843 M159.100 179.082 C 159.595 179.178,160.405 179.178,160.900 179.082 C 161.395 178.987,160.990 178.909,160.000 178.909 C 159.010 178.909,158.605 178.987,159.100 179.082 M163.500 179.082 C 163.995 179.178,164.805 179.178,165.300 179.082 C 165.795 178.987,165.390 178.909,164.400 178.909 C 163.410 178.909,163.005 178.987,163.500 179.082 M202.875 179.075 C 203.700 179.170,204.431 179.503,204.534 179.830 C 204.652 180.204,204.696 180.160,204.656 179.708 C 204.608 179.168,204.213 178.989,202.997 178.952 L 201.400 178.905 202.875 179.075 M72.431 182.022 C 72.346 184.828,76.444 188.658,79.905 189.009 L 81.800 189.200 79.712 188.660 C 76.108 187.728,74.078 185.857,72.931 182.410 C 72.518 181.169,72.458 181.122,72.431 182.022 M182.300 181.489 C 183.015 181.578,184.185 181.578,184.900 181.489 C 185.615 181.401,185.030 181.328,183.600 181.328 C 182.170 181.328,181.585 181.401,182.300 181.489 M242.040 183.440 C 241.497 185.408,241.777 185.688,242.400 183.800 C 242.664 183.001,242.785 182.252,242.669 182.136 C 242.553 182.020,242.270 182.607,242.040 183.440 M340.860 183.601 C 341.236 184.679,342.000 185.620,342.000 185.004 C 342.000 184.639,340.805 182.400,340.611 182.400 C 340.518 182.400,340.630 182.940,340.860 183.601 M171.867 184.667 C 171.504 185.030,171.528 186.708,171.900 186.938 C 172.065 187.040,172.200 186.511,172.200 185.762 C 172.200 185.013,172.185 184.400,172.167 184.400 C 172.148 184.400,172.013 184.520,171.867 184.667 M240.046 189.446 C 239.363 191.587,238.889 193.423,238.993 193.526 C 239.206 193.740,239.188 193.788,240.588 189.244 C 241.157 187.399,241.547 185.813,241.455 185.721 C 241.363 185.629,240.729 187.306,240.046 189.446 M342.025 185.800 C 342.025 186.020,342.290 186.549,342.613 186.976 C 342.936 187.404,343.200 187.573,343.200 187.353 C 343.200 187.133,342.936 186.604,342.613 186.176 C 342.290 185.749,342.025 185.580,342.025 185.800 M192.234 186.765 C 192.396 187.076,192.661 187.886,192.823 188.565 C 193.094 189.700,193.121 189.718,193.159 188.776 C 193.182 188.214,192.917 187.404,192.570 186.976 C 192.224 186.549,192.073 186.454,192.234 186.765 M247.800 188.400 C 247.425 189.529,247.199 190.532,247.297 190.630 C 247.395 190.729,247.776 189.879,248.143 188.743 C 248.510 187.607,248.736 186.603,248.646 186.512 C 248.555 186.422,248.175 187.271,247.800 188.400 M343.997 189.600 C 345.595 192.852,347.759 196.400,348.145 196.400 C 348.353 196.400,348.248 196.085,347.911 195.700 C 347.573 195.315,346.535 193.560,345.603 191.800 C 343.762 188.324,342.561 186.679,343.997 189.600 M133.075 190.039 C 134.971 190.769,136.593 192.187,137.876 194.238 C 138.144 194.667,138.363 194.777,138.376 194.491 C 138.444 193.023,133.591 189.169,131.740 189.221 C 131.333 189.232,131.934 189.601,133.075 190.039 M246.695 191.473 C 246.594 191.653,246.403 192.340,246.272 193.000 C 246.034 194.194,246.036 194.193,246.637 192.853 C 247.160 191.686,247.208 190.568,246.695 191.473 M237.425 197.437 C 236.802 199.397,236.198 201.270,236.083 201.600 C 235.967 201.930,236.018 202.068,236.195 201.908 C 236.641 201.504,238.846 194.738,238.687 194.261 C 238.616 194.048,238.048 195.477,237.425 197.437 M245.029 196.429 C 244.215 199.168,244.514 199.467,245.400 196.800 C 245.775 195.671,245.985 194.652,245.868 194.535 C 245.751 194.417,245.373 195.269,245.029 196.429 M138.600 198.200 C 138.600 199.834,138.722 200.862,138.872 200.485 C 139.021 200.108,139.144 199.080,139.144 198.200 C 139.144 197.320,139.021 196.292,138.872 195.915 C 138.722 195.538,138.600 196.566,138.600 198.200 M196.175 197.700 L 195.000 199.000 196.300 197.825 C 197.512 196.730,197.784 196.400,197.475 196.400 C 197.406 196.400,196.821 196.985,196.175 197.700 M349.000 196.700 C 349.517 197.205,352.072 198.061,352.320 197.813 C 352.510 197.623,351.498 197.175,349.600 196.608 C 348.948 196.414,348.739 196.446,349.000 196.700 M353.947 198.653 C 354.687 198.976,355.387 199.146,355.502 199.031 C 355.743 198.790,353.782 197.984,353.074 198.033 C 352.813 198.051,353.206 198.330,353.947 198.653 M243.600 200.600 C 243.336 201.399,243.210 202.144,243.320 202.254 C 243.430 202.364,243.736 201.799,244.000 201.000 C 244.264 200.201,244.390 199.456,244.280 199.346 C 244.170 199.236,243.864 199.801,243.600 200.600 M357.000 199.813 C 357.965 200.264,371.254 205.985,377.600 208.680 C 378.370 209.007,378.820 209.096,378.600 208.878 C 378.196 208.478,365.807 203.021,359.678 200.543 C 356.343 199.195,354.755 198.762,357.000 199.813 M136.983 203.393 C 136.356 204.384,135.518 205.299,135.122 205.425 C 134.725 205.551,134.400 205.834,134.400 206.054 C 134.400 206.762,136.715 204.832,137.617 203.372 C 138.098 202.594,138.408 201.875,138.307 201.774 C 138.206 201.672,137.610 202.401,136.983 203.393 M235.000 204.800 C 234.625 205.929,234.415 206.948,234.532 207.065 C 234.649 207.183,235.027 206.331,235.371 205.171 C 236.185 202.432,235.886 202.133,235.000 204.800 M241.896 205.689 C 240.596 209.419,240.239 210.657,240.549 210.368 C 240.918 210.023,243.261 203.128,243.073 202.940 C 242.984 202.851,242.455 204.088,241.896 205.689 M131.800 206.800 C 131.140 206.968,116.722 207.127,99.760 207.153 C 68.421 207.201,67.056 207.262,65.600 208.696 C 65.200 209.090,65.466 209.039,66.400 208.543 C 67.722 207.841,69.608 207.789,100.200 207.600 C 124.686 207.449,132.795 207.281,133.400 206.912 C 134.312 206.356,133.712 206.314,131.800 206.800 M233.600 209.000 C 233.336 209.799,233.210 210.544,233.320 210.654 C 233.430 210.764,233.736 210.199,234.000 209.400 C 234.264 208.601,234.390 207.856,234.280 207.746 C 234.170 207.636,233.864 208.201,233.600 209.000 M173.200 208.400 L 169.400 208.647 173.000 208.684 C 174.980 208.704,177.050 208.576,177.600 208.400 C 178.744 208.034,178.841 208.034,173.200 208.400 M39.400 209.606 C 38.223 210.129,36.523 211.581,37.076 211.591 C 37.338 211.596,37.676 211.401,37.826 211.158 C 37.976 210.915,38.841 210.379,39.749 209.967 C 40.657 209.555,41.130 209.225,40.800 209.234 C 40.470 209.243,39.840 209.411,39.400 209.606 M49.837 209.844 C 51.851 210.559,53.396 212.118,54.162 214.212 C 54.482 215.085,54.756 215.476,54.772 215.080 C 54.860 212.822,50.958 209.079,48.674 209.232 C 48.413 209.249,48.937 209.524,49.837 209.844 M63.715 210.100 C 58.886 215.370,62.157 226.253,68.487 225.978 C 68.769 225.965,68.245 225.648,67.322 225.273 C 61.369 222.854,59.660 214.823,64.095 210.100 C 64.559 209.605,64.849 209.200,64.739 209.200 C 64.629 209.200,64.168 209.605,63.715 210.100 M380.492 210.023 C 384.692 212.241,386.173 215.928,384.581 220.200 C 384.330 220.872,384.372 220.917,384.841 220.480 C 387.493 218.013,383.184 209.060,379.422 209.218 C 379.190 209.227,379.672 209.590,380.492 210.023 M238.815 214.615 C 238.107 216.731,237.608 218.541,237.706 218.640 C 237.804 218.738,238.456 217.079,239.154 214.954 C 239.852 212.829,240.351 211.018,240.263 210.930 C 240.175 210.842,239.524 212.500,238.815 214.615 M232.229 213.229 C 231.884 214.388,231.680 215.413,231.774 215.507 C 231.868 215.602,232.227 214.731,232.571 213.571 C 232.916 212.412,233.120 211.387,233.026 211.293 C 232.932 211.198,232.573 212.069,232.229 213.229 M36.098 212.500 C 35.687 213.013,34.942 215.159,35.299 214.800 C 35.635 214.462,36.831 212.000,36.659 212.000 C 36.571 212.000,36.318 212.225,36.098 212.500 M34.893 216.800 C 34.893 217.570,34.975 217.885,35.076 217.500 C 35.176 217.115,35.176 216.485,35.076 216.100 C 34.975 215.715,34.893 216.030,34.893 216.800 M230.786 217.700 C 229.850 221.271,227.255 223.948,223.480 225.235 C 222.336 225.625,221.760 225.955,222.200 225.968 C 225.611 226.071,230.482 221.473,231.383 217.300 C 231.796 215.388,231.305 215.716,230.786 217.700 M54.285 218.813 C 53.420 223.047,46.355 225.423,40.024 223.607 C 38.938 223.296,38.756 223.316,39.147 223.707 C 40.259 224.819,50.064 224.351,51.693 223.109 C 53.487 221.740,54.901 219.494,54.715 218.306 C 54.603 217.588,54.514 217.693,54.285 218.813 M35.396 219.400 C 35.767 220.599,37.318 222.756,37.999 223.019 C 38.329 223.147,38.125 222.745,37.547 222.126 C 36.968 221.507,36.192 220.460,35.822 219.800 C 35.452 219.140,35.260 218.960,35.396 219.400 M236.849 220.100 C 236.316 221.547,235.912 223.421,236.195 223.139 C 236.542 222.792,237.614 219.200,237.371 219.200 C 237.266 219.200,237.031 219.605,236.849 220.100 M383.422 224.022 C 383.062 225.605,382.843 226.977,382.936 227.069 C 383.029 227.162,383.417 225.961,383.800 224.400 C 384.183 222.839,384.401 221.468,384.286 221.353 C 384.171 221.238,383.782 222.439,383.422 224.022 M234.415 227.415 C 233.707 229.531,233.211 231.344,233.313 231.446 C 233.414 231.547,234.076 229.900,234.785 227.785 C 235.493 225.669,235.989 223.856,235.887 223.754 C 235.786 223.653,235.124 225.300,234.415 227.415 M382.257 228.300 C 381.778 230.000,381.579 231.778,381.931 231.200 C 382.354 230.508,382.930 227.600,382.645 227.600 C 382.540 227.600,382.365 227.915,382.257 228.300 M309.913 230.295 C 311.076 230.376,312.876 230.376,313.913 230.293 C 314.951 230.211,314.000 230.145,311.800 230.146 C 309.600 230.147,308.751 230.214,309.913 230.295 M303.307 230.776 C 302.377 230.928,301.477 231.191,301.307 231.362 C 301.008 231.663,302.771 231.431,305.600 230.795 C 307.385 230.394,305.737 230.380,303.307 230.776 M319.000 230.991 C 321.799 231.661,322.439 231.715,321.579 231.212 C 321.237 231.012,319.977 230.751,318.779 230.633 L 316.600 230.417 319.000 230.991 M297.458 232.252 C 296.390 232.580,295.596 232.929,295.694 233.028 C 295.793 233.126,296.937 232.863,298.236 232.443 C 299.536 232.023,300.330 231.674,300.000 231.668 C 299.670 231.661,298.526 231.924,297.458 232.252 M323.600 232.136 C 324.150 232.446,325.050 232.819,325.600 232.965 L 326.600 233.229 325.600 232.664 C 325.050 232.354,324.150 231.981,323.600 231.835 L 322.600 231.571 323.600 232.136 M232.662 232.583 C 232.451 233.133,228.165 233.200,193.000 233.200 C 149.584 233.200,151.590 233.084,150.010 235.676 C 149.562 236.412,149.225 237.622,149.252 238.400 L 149.300 239.800 149.569 238.200 C 150.390 233.300,147.547 233.600,193.217 233.600 C 234.215 233.600,234.522 233.589,233.059 232.125 C 232.971 232.037,232.792 232.243,232.662 232.583 M380.653 234.687 C 380.002 237.539,380.075 238.746,380.741 236.140 C 381.403 233.549,381.673 232.000,381.464 232.000 C 381.355 232.000,380.990 233.209,380.653 234.687 M63.323 233.604 C 62.336 234.002,61.402 235.309,61.041 236.800 C 60.908 237.350,61.152 237.033,61.585 236.096 C 62.728 233.617,62.846 233.599,78.526 233.606 C 94.513 233.613,94.526 233.615,94.720 236.253 L 94.841 237.888 91.034 240.587 C 85.083 244.805,77.378 252.554,75.080 256.632 C 74.280 258.052,75.316 256.898,77.980 253.399 C 81.238 249.122,85.574 244.945,89.949 241.872 C 95.859 237.719,96.683 236.235,94.244 234.137 L 93.155 233.200 78.678 233.225 C 70.715 233.239,63.805 233.410,63.323 233.604 M293.400 233.814 C 292.400 234.296,292.366 234.351,293.200 234.148 C 294.333 233.871,295.607 233.221,295.000 233.230 C 294.780 233.233,294.060 233.496,293.400 233.814 M327.376 233.813 C 327.804 234.136,328.344 234.394,328.576 234.387 C 328.809 234.380,328.651 234.110,328.224 233.787 C 327.796 233.464,327.256 233.206,327.024 233.213 C 326.791 233.220,326.949 233.490,327.376 233.813 M288.700 235.825 C 287.215 236.587,286.000 237.292,286.000 237.390 C 286.000 237.583,291.549 234.984,291.913 234.620 C 292.462 234.072,291.180 234.552,288.700 235.825 M329.200 234.512 C 329.200 234.600,330.282 235.512,331.604 236.539 C 332.927 237.566,334.766 239.385,335.692 240.582 C 336.618 241.778,337.451 242.682,337.543 242.591 C 337.855 242.278,334.238 238.175,332.215 236.548 C 330.118 234.861,329.200 234.241,329.200 234.512 M282.037 239.627 C 277.975 242.349,274.324 245.405,271.000 248.864 C 267.484 252.523,267.825 252.309,272.081 248.184 C 275.620 244.754,280.588 240.840,283.700 239.029 C 285.509 237.977,285.965 237.576,285.300 237.620 C 285.135 237.631,283.666 238.534,282.037 239.627 M60.000 239.400 C 59.736 240.199,59.610 240.944,59.720 241.054 C 59.830 241.164,60.136 240.599,60.400 239.800 C 60.664 239.001,60.790 238.256,60.680 238.146 C 60.570 238.036,60.264 238.601,60.000 239.400 M379.457 239.100 C 378.978 240.800,378.779 242.578,379.131 242.000 C 379.554 241.308,380.130 238.400,379.845 238.400 C 379.740 238.400,379.565 238.715,379.457 239.100 M114.064 239.673 C 111.429 240.262,112.280 240.428,115.419 239.938 C 118.056 239.526,127.003 239.672,129.200 240.163 C 129.750 240.286,129.480 240.133,128.600 239.824 C 126.722 239.164,116.806 239.061,114.064 239.673 M303.264 239.654 C 300.661 240.265,301.461 240.431,304.619 239.936 C 307.411 239.498,317.079 239.673,318.600 240.189 L 319.400 240.460 318.600 239.937 C 317.592 239.277,305.794 239.059,303.264 239.654 M149.606 240.256 C 149.603 240.506,149.970 241.136,150.423 241.656 C 151.069 242.398,151.158 242.429,150.836 241.800 C 150.142 240.443,149.613 239.778,149.606 240.256 M109.000 241.002 L 107.800 241.567 109.000 241.324 C 109.660 241.190,110.560 240.939,111.000 240.766 L 111.800 240.451 111.000 240.443 C 110.560 240.439,109.660 240.691,109.000 241.002 M131.200 240.887 C 134.812 242.451,136.050 243.132,138.066 244.668 C 139.312 245.617,140.412 246.620,140.511 246.897 C 140.610 247.174,140.818 247.282,140.974 247.138 C 141.803 246.372,132.665 240.344,130.800 240.427 C 130.470 240.442,130.650 240.649,131.200 240.887 M298.456 240.859 C 297.717 241.072,297.204 241.337,297.316 241.449 C 297.545 241.679,300.800 240.871,300.800 240.585 C 300.800 240.320,300.003 240.414,298.456 240.859 M321.687 241.360 C 326.498 243.338,329.677 246.010,332.175 250.176 C 333.887 253.032,334.095 252.758,332.422 249.849 C 330.183 245.954,322.882 240.370,320.078 240.409 C 319.705 240.415,320.429 240.842,321.687 241.360 M105.800 242.214 C 104.800 242.696,104.766 242.751,105.600 242.548 C 106.733 242.271,108.007 241.621,107.400 241.630 C 107.180 241.633,106.460 241.896,105.800 242.214 M294.600 242.407 C 293.708 242.845,293.442 243.084,294.000 242.947 C 295.169 242.659,297.186 241.635,296.600 241.627 C 296.380 241.623,295.480 241.975,294.600 242.407 M58.400 244.200 C 58.136 244.999,58.010 245.744,58.120 245.854 C 58.230 245.964,58.536 245.399,58.800 244.600 C 59.064 243.801,59.190 243.056,59.080 242.946 C 58.970 242.836,58.664 243.401,58.400 244.200 M101.400 244.053 C 91.147 249.335,79.671 260.999,77.840 268.000 C 77.696 268.550,78.141 267.920,78.829 266.600 C 83.660 257.330,91.250 249.906,101.400 244.521 C 103.160 243.587,104.420 242.822,104.200 242.820 C 103.980 242.818,102.720 243.373,101.400 244.053 M151.660 244.001 C 152.036 245.079,152.800 246.020,152.800 245.404 C 152.800 245.039,151.605 242.800,151.411 242.800 C 151.318 242.800,151.430 243.340,151.660 244.001 M378.000 244.800 C 377.730 245.924,377.603 246.936,377.716 247.049 C 377.829 247.162,378.123 246.317,378.369 245.169 C 378.952 242.454,378.638 242.140,378.000 244.800 M289.600 244.638 C 285.694 246.748,280.000 250.743,280.000 251.373 C 280.000 251.508,280.934 250.880,282.076 249.978 C 284.316 248.207,291.256 244.000,291.937 244.000 C 292.166 244.000,292.464 243.820,292.600 243.600 C 293.014 242.930,292.316 243.171,289.600 244.638 M338.200 244.400 C 338.541 245.060,338.911 245.600,339.021 245.600 C 339.131 245.600,338.941 245.060,338.600 244.400 C 338.259 243.740,337.889 243.200,337.779 243.200 C 337.669 243.200,337.859 243.740,338.200 244.400 M152.851 246.400 C 152.843 246.730,153.083 247.540,153.386 248.200 C 153.688 248.860,153.942 249.130,153.949 248.800 C 153.957 248.470,153.717 247.660,153.414 247.000 C 153.112 246.340,152.858 246.070,152.851 246.400 M339.263 246.400 C 339.262 246.730,339.503 247.630,339.800 248.400 C 340.150 249.308,340.343 249.519,340.352 249.000 C 340.358 248.560,340.117 247.660,339.814 247.000 C 339.512 246.340,339.264 246.070,339.263 246.400 M57.029 248.429 C 56.684 249.588,56.480 250.613,56.574 250.707 C 56.668 250.802,57.027 249.931,57.371 248.771 C 57.716 247.612,57.920 246.587,57.826 246.493 C 57.732 246.398,57.373 247.269,57.029 248.429 M142.479 249.604 C 143.164 250.707,143.809 251.525,143.911 251.423 C 144.146 251.188,141.899 247.602,141.517 247.601 C 141.361 247.600,141.794 248.502,142.479 249.604 M376.657 249.900 C 376.178 251.600,375.979 253.378,376.331 252.800 C 376.754 252.108,377.330 249.200,377.045 249.200 C 376.940 249.200,376.765 249.515,376.657 249.900 M154.200 256.620 C 154.200 260.693,154.326 262.773,154.530 262.094 C 154.978 260.611,154.997 252.015,154.555 250.926 C 154.327 250.365,154.200 252.407,154.200 256.620 M55.887 251.473 C 55.781 251.653,55.583 252.430,55.448 253.200 L 55.202 254.600 55.803 253.035 C 56.337 251.641,56.393 250.618,55.887 251.473 M276.788 254.287 L 274.200 256.975 276.648 254.787 C 278.700 252.953,279.901 251.600,279.476 251.600 C 279.421 251.600,278.212 252.809,276.788 254.287 M340.853 252.400 C 340.844 252.950,341.089 254.570,341.396 256.000 L 341.955 258.600 341.735 256.069 C 341.614 254.677,341.369 253.057,341.192 252.469 L 340.869 251.400 340.853 252.400 M265.753 254.907 C 262.611 259.347,261.462 261.196,261.699 261.432 C 261.817 261.550,262.505 260.614,263.228 259.352 C 263.950 258.089,265.402 255.918,266.455 254.528 C 267.507 253.138,268.240 252.003,268.084 252.007 C 267.928 252.010,266.879 253.315,265.753 254.907 M144.443 253.200 C 144.453 253.530,144.716 254.430,145.027 255.200 L 145.593 256.600 145.351 255.200 C 145.076 253.613,144.411 252.148,144.443 253.200 M333.630 253.020 C 333.647 253.229,333.916 254.030,334.227 254.800 L 334.793 256.200 334.554 254.800 C 334.342 253.552,333.551 252.029,333.630 253.020 M375.266 255.460 C 374.489 258.561,374.341 259.392,374.616 259.118 C 374.965 258.769,376.025 254.291,375.810 254.076 C 375.723 253.990,375.479 254.612,375.266 255.460 M54.246 256.646 C 53.892 257.685,53.672 258.605,53.756 258.690 C 53.841 258.774,54.200 257.993,54.554 256.954 C 54.908 255.915,55.128 254.995,55.044 254.910 C 54.959 254.826,54.600 255.607,54.246 256.646 M145.763 261.600 C 145.759 265.862,145.784 266.017,146.112 263.715 C 146.315 262.291,146.317 260.327,146.117 259.115 C 145.815 257.286,145.767 257.622,145.763 261.600 M73.525 259.100 C 72.506 260.659,71.670 262.516,72.310 261.800 C 72.830 261.219,74.863 257.600,74.670 257.600 C 74.580 257.600,74.065 258.275,73.525 259.100 M272.529 258.973 C 271.505 260.217,269.561 263.280,270.100 262.800 C 270.555 262.395,273.993 257.600,273.828 257.600 C 273.735 257.600,273.150 258.218,272.529 258.973 M52.840 260.640 C 52.297 262.608,52.577 262.888,53.200 261.000 C 53.464 260.201,53.585 259.452,53.469 259.336 C 53.353 259.220,53.070 259.807,52.840 260.640 M335.328 261.600 C 335.328 263.030,335.401 263.615,335.489 262.900 C 335.578 262.185,335.578 261.015,335.489 260.300 C 335.401 259.585,335.328 260.170,335.328 261.600 M342.120 262.000 C 342.120 263.210,342.195 263.705,342.287 263.100 C 342.378 262.495,342.378 261.505,342.287 260.900 C 342.195 260.295,342.120 260.790,342.120 262.000 M373.600 261.800 C 373.319 262.803,373.181 263.715,373.293 263.827 C 373.406 263.939,373.709 263.192,373.967 262.167 C 374.578 259.740,374.265 259.426,373.600 261.800 M260.581 263.237 C 260.229 263.918,260.012 264.545,260.099 264.632 C 260.186 264.719,260.556 264.162,260.922 263.395 C 261.744 261.670,261.459 261.538,260.581 263.237 M71.023 263.806 C 70.160 265.872,70.274 266.106,71.247 264.262 C 71.693 263.416,71.965 262.632,71.852 262.519 C 71.739 262.406,71.366 262.985,71.023 263.806 M268.955 264.212 C 268.590 264.769,268.393 265.326,268.516 265.450 C 268.640 265.573,269.029 265.118,269.381 264.437 C 270.152 262.946,269.879 262.802,268.955 264.212 M51.400 264.800 C 51.250 265.273,51.217 265.750,51.327 265.860 C 51.437 265.970,51.650 265.673,51.800 265.200 C 51.950 264.727,51.983 264.250,51.873 264.140 C 51.763 264.030,51.550 264.327,51.400 264.800 M153.200 265.600 C 152.951 266.524,152.837 267.371,152.947 267.481 C 153.057 267.591,153.351 266.924,153.600 266.000 C 153.849 265.076,153.963 264.229,153.853 264.119 C 153.743 264.009,153.449 264.676,153.200 265.600 M372.253 267.087 C 371.602 269.939,371.675 271.146,372.341 268.540 C 373.003 265.949,373.273 264.400,373.064 264.400 C 372.955 264.400,372.590 265.609,372.253 267.087 M259.200 266.400 C 258.921 267.074,258.786 267.719,258.900 267.833 C 259.014 267.947,259.309 267.462,259.556 266.756 C 260.138 265.086,259.859 264.808,259.200 266.400 M69.895 266.273 C 69.794 266.453,69.603 267.140,69.472 267.800 C 69.234 268.994,69.236 268.993,69.837 267.653 C 70.360 266.486,70.408 265.368,69.895 266.273 M267.614 266.774 C 267.107 267.721,267.084 268.119,267.552 267.830 C 267.905 267.612,268.455 266.000,268.177 266.000 C 268.095 266.000,267.842 266.348,267.614 266.774 M341.485 267.200 C 340.956 270.229,340.719 272.400,340.918 272.400 C 341.219 272.400,342.103 266.909,341.900 266.306 C 341.806 266.028,341.620 266.430,341.485 267.200 M334.052 268.959 C 333.784 270.025,333.650 270.984,333.756 271.089 C 334.022 271.355,334.882 268.046,334.694 267.481 C 334.609 267.228,334.321 267.893,334.052 268.959 M50.000 269.000 C 49.736 269.799,49.615 270.548,49.731 270.664 C 49.847 270.780,50.130 270.193,50.360 269.360 C 50.903 267.392,50.623 267.112,50.000 269.000 M144.491 270.000 C 144.244 270.976,144.104 271.837,144.181 271.914 C 144.424 272.158,145.271 269.214,145.103 268.709 C 145.014 268.443,144.739 269.024,144.491 270.000 M266.465 269.245 C 265.682 271.335,265.645 272.098,266.408 270.442 C 266.853 269.475,267.128 268.595,267.020 268.486 C 266.911 268.378,266.661 268.719,266.465 269.245 M76.811 270.171 C 76.185 271.819,76.385 272.385,77.053 270.853 C 77.376 270.113,77.546 269.413,77.431 269.298 C 77.316 269.183,77.037 269.576,76.811 270.171 M257.688 270.861 C 257.376 272.070,256.775 273.086,255.973 273.761 L 254.739 274.800 211.033 274.800 C 157.900 274.800,155.429 274.726,153.900 273.092 C 153.295 272.445,152.800 272.083,152.800 272.288 C 152.800 272.872,154.485 274.303,155.726 274.773 C 157.911 275.601,254.229 275.346,255.647 274.509 C 256.928 273.752,258.549 270.836,258.315 269.709 C 258.232 269.311,257.957 269.816,257.688 270.861 M68.581 271.059 C 67.980 274.479,68.201 274.400,59.206 274.400 C 51.517 274.400,51.202 274.369,50.416 273.525 C 49.967 273.043,49.600 272.853,49.600 273.102 C 49.600 274.978,66.151 275.822,67.774 274.029 C 68.466 273.264,69.402 270.068,69.040 269.706 C 68.936 269.603,68.730 270.212,68.581 271.059 M370.862 272.519 C 370.336 274.607,367.994 277.090,366.240 277.418 C 362.398 278.137,343.277 277.409,342.044 276.496 C 341.282 275.932,340.905 275.808,341.042 276.165 C 341.632 277.702,343.985 278.000,355.515 278.000 L 366.614 278.000 368.066 277.013 C 369.712 275.895,370.984 274.014,371.389 272.100 C 371.795 270.179,371.365 270.520,370.862 272.519 M332.665 273.271 C 332.304 274.190,332.092 275.025,332.193 275.126 C 332.371 275.305,332.790 274.373,333.374 272.500 C 333.850 270.972,333.358 271.507,332.665 273.271 M142.644 274.932 C 142.050 276.329,140.957 278.395,140.215 279.521 C 138.373 282.319,138.153 282.817,139.387 281.400 C 140.567 280.045,144.247 272.914,143.930 272.597 C 143.817 272.483,143.238 273.534,142.644 274.932 M265.082 273.332 C 264.962 273.643,264.761 274.776,264.635 275.849 L 264.406 277.800 265.008 275.438 C 265.558 273.278,265.604 271.971,265.082 273.332 M75.326 275.059 C 74.832 277.394,74.987 286.438,75.541 287.600 C 76.011 288.587,76.014 288.585,75.798 287.400 C 75.243 284.359,75.131 279.124,75.568 276.616 C 76.070 273.731,75.874 272.467,75.326 275.059 M330.638 277.526 C 327.144 284.420,319.645 292.023,311.813 296.614 C 310.796 297.210,310.049 297.782,310.153 297.886 C 311.273 299.007,324.863 287.211,328.226 282.200 C 330.540 278.752,332.103 275.970,331.862 275.729 C 331.748 275.614,331.197 276.423,330.638 277.526 M264.134 281.200 C 264.134 282.850,264.205 283.525,264.291 282.700 C 264.378 281.875,264.378 280.525,264.291 279.700 C 264.205 278.875,264.134 279.550,264.134 281.200 M136.397 284.700 C 136.395 284.865,135.810 285.635,135.097 286.412 C 133.016 288.676,132.261 289.600,132.489 289.600 C 132.606 289.600,133.730 288.430,134.985 287.000 C 136.240 285.570,137.072 284.400,136.834 284.400 C 136.595 284.400,136.398 284.535,136.397 284.700 M264.436 285.400 C 264.401 286.299,265.183 289.351,265.395 289.138 C 265.470 289.062,265.292 288.010,265.000 286.800 C 264.707 285.590,264.454 284.960,264.436 285.400 M76.000 288.946 C 76.000 289.454,77.155 292.000,77.385 292.000 C 77.509 292.000,77.333 291.334,76.993 290.521 C 76.365 289.019,76.000 288.440,76.000 288.946 M131.157 290.254 C 130.678 290.832,125.592 294.771,123.342 296.306 C 122.934 296.584,123.188 296.533,123.907 296.192 C 124.889 295.726,129.727 292.096,131.967 290.145 C 132.058 290.065,132.039 289.906,131.924 289.790 C 131.808 289.675,131.463 289.884,131.157 290.254 M265.833 290.400 C 266.087 291.438,267.854 294.400,268.220 294.400 C 268.334 294.400,268.197 294.018,267.914 293.552 C 267.631 293.086,266.992 291.961,266.494 291.052 C 265.919 290.003,265.677 289.765,265.833 290.400 M78.202 293.603 C 79.141 295.420,83.106 299.139,85.277 300.239 C 87.842 301.539,87.730 301.180,85.100 299.674 C 82.724 298.314,80.355 296.112,78.888 293.900 C 77.691 292.095,77.344 291.945,78.202 293.603 M269.200 295.779 C 270.380 297.161,272.257 298.856,273.159 299.354 C 273.912 299.769,273.852 299.708,270.600 296.774 C 269.280 295.583,268.650 295.135,269.200 295.779 M308.100 298.596 C 307.385 298.907,306.800 299.251,306.800 299.360 C 306.800 299.669,309.174 298.765,309.424 298.361 C 309.705 297.907,309.673 297.913,308.100 298.596 M118.176 298.980 C 117.427 299.540,117.432 299.552,118.306 299.332 C 118.805 299.206,119.310 298.945,119.430 298.752 C 119.768 298.204,119.036 298.338,118.176 298.980 M115.400 300.186 C 114.740 300.488,114.470 300.743,114.800 300.753 C 115.130 300.763,115.850 300.514,116.400 300.200 C 117.673 299.472,116.980 299.462,115.400 300.186 M274.000 299.853 C 274.000 300.122,279.208 302.525,279.392 302.341 C 279.476 302.257,278.298 301.620,276.773 300.926 C 275.248 300.232,274.000 299.749,274.000 299.853 M304.200 300.407 C 303.308 300.845,303.042 301.084,303.600 300.947 C 304.769 300.659,306.786 299.635,306.200 299.627 C 305.980 299.623,305.080 299.975,304.200 300.407 M88.000 301.533 C 88.330 301.736,89.050 302.024,89.600 302.171 C 90.295 302.357,90.417 302.325,90.000 302.067 C 89.670 301.864,88.950 301.576,88.400 301.429 C 87.705 301.243,87.583 301.275,88.000 301.533 M110.856 301.659 C 110.117 301.872,109.587 302.120,109.679 302.212 C 109.881 302.414,112.800 301.637,112.800 301.381 C 112.800 301.146,112.482 301.191,110.856 301.659 M300.056 301.659 C 299.317 301.872,298.804 302.137,298.916 302.249 C 299.145 302.479,302.400 301.671,302.400 301.385 C 302.400 301.120,301.603 301.214,300.056 301.659 M91.600 302.843 C 92.150 303.070,93.860 303.326,95.400 303.411 L 98.200 303.566 96.000 303.217 C 91.195 302.452,90.515 302.395,91.600 302.843 M104.200 303.039 L 100.600 303.562 103.813 303.400 C 105.580 303.311,107.470 303.061,108.013 302.845 C 109.239 302.355,108.725 302.381,104.200 303.039 M280.907 302.831 C 281.296 303.060,282.916 303.320,284.507 303.408 L 287.400 303.569 285.000 303.200 C 283.680 302.997,282.060 302.738,281.400 302.623 C 280.436 302.455,280.339 302.496,280.907 302.831 M296.400 302.652 C 296.070 302.739,294.450 302.980,292.800 303.187 L 289.800 303.563 293.013 303.401 C 294.780 303.311,296.670 303.061,297.213 302.845 C 298.170 302.462,297.613 302.330,296.400 302.652 " stroke="none" fill="#8c93bb" fill-rule="evenodd"></path></g></svg>